<?xml version="1.0" standalone="no"?>
<!DOCTYPE svg PUBLIC "-//W3C//DTD SVG 1.1//EN" "http://www.w3.org/Graphics/SVG/1.1/DTD/svg11.dtd" >
<svg xmlns="http://www.w3.org/2000/svg" xmlns:xlink="http://www.w3.org/1999/xlink" version="1.1">
<metadata></metadata>
<defs>
<font id="aracne_soft_regregular" horiz-adv-x="940" >
<font-face units-per-em="2048" ascent="1638" descent="-410" />
<missing-glyph horiz-adv-x="507" />
<glyph horiz-adv-x="0" />
<glyph horiz-adv-x="682" />
<glyph unicode=" "  horiz-adv-x="507" />
<glyph unicode="&#x09;" horiz-adv-x="507" />
<glyph unicode="&#xa0;" horiz-adv-x="507" />
<glyph unicode="!" horiz-adv-x="331" d="M45 193q2 154 -20 395q-24 257 -19 420q0 45 5.5 121t7 117t-6.5 114q-4 30 19 45.5t49 7.5t31 -37q9 -81 7.5 -125.5t-8 -123t-6.5 -121.5q-3 -183 19 -408q22 -250 20 -408q0 -30 -24.5 -41t-49 2t-24.5 42zM33 -2q-4 43 18.5 70.5t55 21t51.5 -50.5q18 -40 -23 -68 q-37 -25 -72 -13q-27 10 -30 40z" />
<glyph unicode="&#x22;" horiz-adv-x="428" d="M8 1227q-6 18 -8 60t-2 79.5t1 86.5t1 58q0 34 25.5 46.5t50 -2.5t22.5 -48q-4 -77 -3 -155t7 -97t0 -35t-19 -23t-28 -8t-28.5 9t-18.5 29zM160 1227q-6 18 -8 60t-2 79.5t1 86.5t1 58q0 34 25.5 46.5t50 -2.5t22.5 -48q-4 -77 -3 -155t7 -97t0 -35t-19 -23t-28 -8 t-28.5 9t-18.5 29z" />
<glyph unicode="#" horiz-adv-x="1628" d="M500 1335q0 -235 16 -440q1 -8 2 -24t2 -25q83 2 243 12t202 12q0 74 -2 103v49q0 21 -1 56t-2.5 71t-2.5 68.5t-2 54t-1 22.5q0 28 23.5 42t47.5 3.5t26 -41.5q0 -1 3 -53.5t6 -119.5t3 -103v-47q2 -23 2 -74v-27q241 5 367 5q35 1 49.5 -23t0 -48.5t-49.5 -25.5 q-176 0 -369 -4q-18 -158 -21 -397q301 0 375 6q34 3 49 -20.5t2 -48.5t-47 -27q-148 -8 -374 -8q0 -107 10 -209q7 -29 -15.5 -45t-49 -8t-31.5 38q-9 99 -15 224q-48 0 -105 1t-127.5 2.5t-109.5 2.5h-55q0 -63 6 -125q0 -23 7 -70t7 -74t-23 -40.5t-47.5 -4.5t-29.5 37 q-14 105 -14 146q-4 86 -4 131q-96 -3 -184 -9t-129 -11l-40 -5q-33 -5 -51.5 17t-8 48t47.5 31q1 0 18 2t49 5.5t73 7t100 6.5t120 4v37q-2 64 -7.5 176t-6.5 145q-32 -1 -65.5 -1t-63 -0.5t-58 -0.5h-53t-45.5 0.5t-38 0.5t-29 0.5t-18 0.5h-7q-33 1 -46.5 26.5t0.5 50.5 t48 24h11q11 0 29.5 -0.5t43.5 -1t57 -0.5h66.5t76 0.5t81.5 1.5q0 8 -1 23t-1 22q-19 244 -19 446q0 30 23.5 42t48 0t27.5 -42zM963 770q-53 -2 -201.5 -11t-233.5 -9q1 -38 8.5 -150t8.5 -174v-41h59q230 -4 340 -4q0 78 19 389z" />
<glyph unicode="$" horiz-adv-x="1028" d="M414 1630q2 36 28.5 49t50.5 -3.5t19 -53.5q-1 -8 -2 -22.5t-2 -54t0 -72.5q109 10 201 -41q38 -18 66 -53.5t41 -69t20.5 -73.5t8.5 -56.5t1 -26.5q0 -27 -16 -42t-34.5 -15t-34.5 15.5t-16 41.5q0 142 -88 195q-66 33 -141 26q14 -172 -8 -332q-12 -82 -12 -290 q24 -21 57 -47q58 -48 97 -86.5t82.5 -93.5t66 -116.5t22.5 -127.5q0 -50 -20 -96t-52.5 -79.5t-74 -61t-82.5 -44.5t-80 -25q0 -85 12 -176q5 -33 -17 -51t-48 -8.5t-33 43.5q-4 21 -6.5 46t-3 42.5t-1.5 48t-1 43.5q-133 -8 -224 53q-84 56 -135 134q-55 85 -49 165 q3 20 19 33t36 12q20 -3 33 -19t12 -36q-5 -44 36 -104.5t102 -100.5q66 -44 166 -37q0 71 -9 291q-6 175 -6 353q-52 45 -91 85t-80 93.5t-64 114t-25 124.5q-1 78 41.5 146t104.5 112q61 45 129 68q-1 24 -1 51t0.5 49t1.5 39.5t2 28.5zM723 281q0 51 -18.5 99.5t-55.5 93 t-70.5 76.5t-82.5 73q0 -89 4 -265q2 -47 5 -141.5t5 -140.5q80 24 146.5 79.5t66.5 125.5zM410 1057q20 131 8 291q-34 -16 -80 -48q-48 -33 -76.5 -79.5t-25.5 -90.5q8 -146 159 -290q4 136 15 217z" />
<glyph unicode="%" horiz-adv-x="892" d="M635 1360q-1 -8 -15 -49t-37 -115.5t-40 -151.5q-14 -65 -54 -189.5t-53 -188.5q-1 -2 -18.5 -68.5t-38 -139.5t-33.5 -108q-19 -51 -48.5 -159t-39.5 -156q-8 -34 -35.5 -42.5t-48.5 10.5t-12 52q1 2 21 83t38 146t31 101q13 34 35 110.5t37.5 135.5t15.5 61 q11 67 53 195.5t53 177.5q7 33 16 68t17.5 64.5t17 56.5t16 49t13 37.5t9.5 25.5l4 10q7 21 24 30.5t33.5 6.5t28.5 -17.5t10 -35.5zM780 446q-3 -73 -73 -122q-55 -37 -105.5 -23.5t-85.5 61t-35 99.5q3 54 39 87.5t81.5 37t90.5 -12.5q39 -19 63.5 -53.5t24.5 -73.5z M582 457q2 -27 20.5 -49.5t42.5 -6.5q27 18 35 35t-4 30t-43 21q-19 5 -35 -2t-16 -26v-2zM215 809q-78 -30 -147.5 9t-69.5 120q0 65 43 114.5t104 45.5q70 -5 113.5 -65.5t33 -129.5t-76.5 -94zM127 899q37 -3 54.5 8t6.5 45q-1 2 -5 8l-6 9t-6 8t-7.5 8t-7.5 6t-9 4.5 t-10 1.5q-15 8 -30 -22q-20 -39 -4 -63q9 -11 24 -13z" />
<glyph unicode="&#x26;" horiz-adv-x="806" d="M590 -4q-12 6 -76 70q-181 -165 -342 -121q-75 19 -116 68.5t-48.5 108.5t5.5 131.5t34.5 130.5t48.5 112q9 18 20 37t26 42.5t22 36.5q5 8 14.5 21t16 24.5t10.5 22.5q-4 23 -23 78q-21 69 -32 111t-23 122.5t-10 155.5q0 172 78 239q61 53 159 31q43 -10 76.5 -39 t52.5 -66.5t29 -77.5t10 -79q0 -51 -15 -109t-31.5 -97.5t-43.5 -96.5q-4 -8 -14.5 -30t-15.5 -32l-14.5 -29t-16.5 -30.5t-17 -27t-20 -28t-21 -24.5q9 -44 32 -109t42 -108l19 -43v-2q43 -92 112 -178q33 48 43 131q2 22 13 35t26 15t29 -3.5t23 -20.5t7 -36 q-9 -120 -73 -195l67 -65q26 -24 19.5 -53t-31.5 -35.5t-51 12.5zM197 39q113 -28 252 100q-91 110 -134 211q-59 147 -75 195q-42 -65 -56 -94q-18 -35 -32 -69t-29 -79.5t-19 -84.5t0 -76t28 -64t65 -39zM281 774q15 24 36.5 69.5t24.5 51.5q73 146 80 248q3 55 -21 110.5 t-71 65.5q-43 11 -72 -8q-27 -23 -35 -72.5t-6 -87.5v-4q-3 -68 7.5 -140t22.5 -116t32 -105q0 -2 1 -6t1 -6z" />
<glyph unicode="'" horiz-adv-x="229" d="M8 1227q-6 18 -8 60t-2 79.5t1 86.5t1 58q0 34 25.5 46.5t50 -2.5t22.5 -48q-4 -77 -3 -155t7 -97t0 -35t-19 -23t-28 -8t-28.5 9t-18.5 29z" />
<glyph unicode="(" horiz-adv-x="403" d="M295 1380q-8 -8 -21.5 -23.5t-46.5 -64t-57.5 -101.5t-44.5 -133t-19 -161q0 -369 21 -491q45 -238 133 -365q11 -17 10.5 -33.5t-11 -27t-24.5 -15.5t-30 0t-27 21q-47 70 -86 177t-61 226q-23 121 -23 508v8q0 92 22 181.5t51 150t63.5 112t54 73.5t26.5 28 q16 15 33 17.5t29.5 -6t20 -21.5t4.5 -30t-17 -30z" />
<glyph unicode=")" horiz-adv-x="438" d="M4 1380q-14 13 -17 30t4.5 30t20 21.5t29.5 6t33 -17.5q7 -6 26.5 -28t54 -73.5t63.5 -112t51 -150t22 -181.5v-8q0 -387 -23 -508q-22 -119 -61 -226t-86 -177q-11 -16 -27 -21t-30 0t-24.5 15.5t-11 27t10.5 33.5q88 127 133 365q21 122 21 491q1 81 -19 161t-44.5 133 t-57.5 101.5t-46.5 64t-21.5 23.5z" />
<glyph unicode="*" horiz-adv-x="573" d="M375 1235q12 -15 12.5 -32.5t-9 -29t-23 -18.5t-30 -2.5t-28.5 21.5q-12 15 -68 71q0 -19 4 -51q5 -32 -17.5 -49.5t-49 -8t-31.5 43.5q-2 24 -6 69q-7 -6 -13.5 -12.5t-10.5 -11.5t-7.5 -8.5t-5.5 -6.5l-2 -2q-13 -15 -30.5 -19.5t-31 1.5t-23 17.5t-8 28.5t14.5 34l2 3 q3 3 7 8t9.5 11t13.5 14t17 16.5t21 18.5t24 19q-88 78 -94 84q-16 13 -20.5 30.5t2 30.5t18.5 22t30 7.5t34 -16.5l7 -6q7 -5 18.5 -15.5t23.5 -21.5l2 30l1.5 22.5t0.5 8.5q0 33 25.5 45.5t50 -2.5t22.5 -49q-2 -35 -2 -84q41 35 76 70q23 25 51 16.5t34 -34t-15 -52.5 q-49 -49 -109 -96q74 -68 113 -115z" />
<glyph unicode="+" horiz-adv-x="714" d="M592 774q30 2 45.5 -21t5.5 -48.5t-43 -30.5q-74 -10 -246 -10q14 -111 6 -191q-3 -27 -27 -38t-47 2.5t-22 45.5q6 52 -8 179q-32 0 -100 1t-105 1q-34 0 -48 24.5t0.5 49t49.5 24.5h10q10 0 28 -0.5t40.5 -1t53 -0.5h61.5q-13 173 -13 186q-3 32 21.5 47t50.5 3t27 -46 q0 -32 12 -188q176 4 248 12z" />
<glyph unicode="," horiz-adv-x="407" d="M39 -88q20 20 27 43q-41 8 -60 41q-13 27 -5 56.5t32 47.5q38 29 82 13q47 -20 51 -84q5 -73 -8.5 -111t-46.5 -74q-14 -15 -31 -18t-29.5 4.5t-21 20t-6.5 29.5t16 32z" />
<glyph unicode="-" horiz-adv-x="669" d="M565 637q-213 11 -511 0h-3q-33 -2 -47 22.5t-1.5 50t44.5 25.5h3q48 1 104 2t186.5 1t228.5 -3q19 -1 31 -11.5t14 -25t-1.5 -28.5t-16.5 -24t-31 -9z" />
<glyph unicode="." horiz-adv-x="284" d="M90 -14q-50 0 -77.5 41.5t1.5 78.5q24 30 55 36.5t52.5 -9t31.5 -43.5t-10 -67q-16 -37 -53 -37z" />
<glyph unicode="/" horiz-adv-x="559" d="M0 59q110 410 139 510q10 31 42 124t50 149.5t33 113.5q8 35 24.5 106t26.5 112.5t26.5 99t33.5 104.5q12 32 40 37.5t46.5 -16t7.5 -53.5q-12 -35 -23.5 -73.5t-19.5 -67t-19 -73t-15.5 -64.5t-16.5 -71t-15 -65q-20 -74 -63.5 -203.5t-60.5 -187.5q-91 -325 -140 -506 q-8 -29 -34.5 -34.5t-47.5 12.5t-14 46z" />
<glyph unicode="0" horiz-adv-x="862" d="M758 799q-1 -39 -17 -260q-4 -73 -7.5 -111t-14.5 -102t-32 -114t-54 -93q-43 -57 -109.5 -97.5t-136.5 -50.5q-70 -11 -159 28.5t-128 86.5q-37 43 -61.5 148.5t-31.5 185.5t-7 131q0 148 25 328q10 75 38 172q24 102 61 175.5t80 112t82.5 56t82.5 20.5 q41 4 93.5 -11.5t84.5 -41.5q49 -38 79.5 -92.5t63.5 -139.5q65 -165 68 -319v-12zM98 551q0 -104 22.5 -234t53.5 -167q28 -31 94.5 -59t104.5 -21q53 8 101 36.5t79 71.5q26 35 43.5 77t26.5 96.5t12.5 90.5t7.5 103q2 25 6.5 83t7 101t2.5 82q-3 139 -61 285 q-54 143 -113 188q-17 14 -51 24t-57 9q-148 -12 -217 -289q-34 -133 -37 -162q-25 -177 -25 -315z" />
<glyph unicode="1" horiz-adv-x="694" d="M518 711q-24 -306 -4 -678q2 -30 -22.5 -43t-50 -2t-25.5 41q-23 430 2 690q3 35 12 126.5t13 138t8 118t4 129.5q-77 -77 -167 -198t-138 -194.5t-54 -84.5q-18 -25 -46.5 -21.5t-40 25.5t0.5 49q0 1 16.5 26.5t40.5 61.5t57.5 84t73 100t80.5 102.5t86.5 98.5t86.5 82 q35 24 65 0t33 -64q4 -63 4.5 -110.5t-5 -124t-10 -127.5t-11 -121t-9.5 -104z" />
<glyph unicode="2" horiz-adv-x="866" d="M719 -14h-8q-8 1 -21.5 2.5t-32 3t-41.5 2.5t-48 2.5t-52.5 2t-54.5 0.5t-55 -1.5t-52 -3.5q-28 -2 -59.5 -3.5t-60 -1.5h-56.5t-51.5 1t-41 2t-28.5 1.5t-12 0.5q-25 3 -36.5 20.5t-8.5 40.5q20 86 77 202t97 181t80 123q147 213 260 393q27 46 39.5 69.5t24 61.5 t10.5 74q-1 43 -17 87.5t-51 80t-82 39.5q-58 4 -127 -20.5t-116 -67.5q-67 -54 -72 -125q0 -30 -26 -42t-50.5 2t-21.5 48q9 110 104 193q63 55 150 85.5t167 24.5q105 -7 172 -98.5t70 -204.5q1 -48 -14 -98t-30.5 -79.5t-45.5 -78.5q-7 -15 -27 -47t-50 -78t-58.5 -88 t-66.5 -99t-60 -89q-24 -34 -58.5 -88t-85.5 -151.5t-77 -174.5q143 -5 229 4q82 7 170 4t147.5 -7.5t67.5 -6.5q31 -2 42.5 -28t-3.5 -50t-49 -20z" />
<glyph unicode="3" horiz-adv-x="1013" d="M336 1458q29 4 84 1t110 -8.5t111 -29t86 -59.5q32 -38 48 -102t16 -125q0 -69 -25 -152q-35 -122 -133 -201q138 -56 201 -196q21 -45 30.5 -96.5t9.5 -88t-6.5 -75.5t-10 -51.5t-7.5 -24.5q-60 -174 -180 -240q-111 -63 -312 -63q-78 0 -144.5 20.5t-108.5 53t-68 66 t-37 65.5q-13 36 5.5 56.5t47 14t39.5 -36.5q18 -52 92 -98t195 -41q169 6 249.5 52t127.5 184l2 5q1 5 3 14t4.5 21t4.5 27.5t3 32.5t-0.5 37t-4.5 40t-9.5 42t-15.5 43q-68 152 -239 164q-92 -29 -164 -33q-22 -1 -36.5 13t-16.5 32t10 34.5t35 18.5q130 11 215.5 65.5 t122.5 172.5q22 77 22 123q0 45 -11 93.5t-30 71.5q-23 27 -88 41.5t-120.5 17t-102.5 -0.5q-67 -3 -113 -28.5t-114 -88.5q-15 -13 -32.5 -15.5t-30.5 6t-21 21t-4.5 30t20.5 32.5q77 70 138.5 104t152.5 39z" />
<glyph unicode="4" horiz-adv-x="833" d="M725 473q-35 -6 -70 -6q2 -24 7 -101t8 -104q14 -129 14 -231q0 -33 -24 -47t-48.5 -1.5t-25.5 44.5q0 95 -15 239q-10 115 -14 197q-46 0 -276 10q-195 10 -234 10q-27 0 -40.5 23t-4.5 47q33 68 133 248q34 69 158 235q71 97 86 123q26 41 67.5 101t68 99t26.5 40 q20 30 55 18t35 -45q12 -264 12 -590q0 -103 6 -217q31 3 64 6q34 5 50.5 -18.5t5.5 -50t-44 -29.5zM127 580q31 0 89 -3.5t71 -3.5q147 -10 264 -10q-8 152 -8 219q0 215 -6 435q-9 -14 -35 -53t-39 -58q-31 -49 -90 -129q-117 -156 -148 -221q-1 0 -98 -176z" />
<glyph unicode="5" horiz-adv-x="925" d="M793 338q-44 -209 -191 -307q-73 -49 -161.5 -70t-184.5 -4.5t-170 76.5q-33 28 -49 59t-27 74q-8 32 11.5 52t46.5 14t36 -37q12 -40 19.5 -55.5t23.5 -28.5q56 -45 131 -57t144 5t125 54q114 76 149 245q33 165 -8 308q-18 62 -42 101t-61 60.5t-70 30t-91 16.5 q-31 5 -60.5 4.5t-58.5 -5.5t-54 -12t-47 -14.5t-37 -14t-25 -10.5l-9 -5q-24 -12 -48 0.5t-24 38.5q-10 90 -5.5 201t11 182.5t9.5 85.5q3 24 20 37q29 19 75.5 22.5t80.5 -0.5q40 -3 65 0q63 14 133.5 20.5t116 7.5t133.5 1q35 0 48.5 -24.5t-1 -49t-47.5 -24.5 q-227 0 -364 -27q-27 -6 -90 -2q-66 0 -76 -2q-20 -207 -16 -350q148 59 286 39q131 -18 203 -64q97 -66 139 -217q49 -164 11 -354z" />
<glyph unicode="6" horiz-adv-x="862" d="M754 418q0 -165 -72 -301q-70 -136 -205 -154q-29 -5 -56 -3t-42 5t-21 6q-219 62 -303 248q-41 88 -41 174q-9 92 -10.5 140.5t4 124t28 153t64.5 174.5q35 80 90.5 153.5t103.5 118.5t103.5 85t76.5 51.5t36 19.5q21 9 38.5 6.5t26.5 -14.5t12 -26t-5.5 -29.5 t-26.5 -24.5q-10 -5 -29 -16t-68 -46.5t-92.5 -76t-92.5 -105.5t-80 -135q-59 -131 -78 -241q65 77 135 102q68 26 147 23.5t148 -31.5q125 -50 180 -187q29 -89 29 -194zM387 66q4 -1 11 -2.5t29 -4t40 1.5q83 15 127 101q41 78 54.5 165.5t6.5 148t-24 104.5 q-18 50 -58.5 85.5t-89.5 50.5t-101.5 15t-96.5 -16q-45 -18 -88 -67.5t-63.5 -89.5t-29.5 -66q1 -14 5 -47.5t4 -51.5q0 -8 1 -19.5t6.5 -39.5t15.5 -54.5t31 -59.5t48.5 -60.5t72 -53t99.5 -40.5z" />
<glyph unicode="7" horiz-adv-x="946" d="M866 1319q-2 -2 -37.5 -75.5t-84.5 -188.5t-74 -197q-27 -86 -89 -238.5t-85 -228.5q-19 -64 -63.5 -188.5t-61.5 -190.5q-4 -18 -16.5 -27.5t-27.5 -9t-28.5 7t-21 21t-3.5 31.5q18 82 68 218.5t59 166.5q26 90 89 245t85 222q51 168 168 407q-57 -1 -180 -5.5 t-188 -4.5q-55 -1 -134 2.5t-131 8t-57 5.5q-34 5 -45 31.5t5 49.5t48 18l11 -1q12 -1 31.5 -2.5t44.5 -3.5t54.5 -4t58.5 -3.5t59.5 -2t54.5 -0.5q36 0 162 4q258 10 290 5q27 -4 36.5 -26.5t2.5 -45.5z" />
<glyph unicode="8" horiz-adv-x="757" d="M584 68q-82 -86 -236 -97q-84 -6 -145 13q-137 41 -185 184q-16 54 -16 129q2 82 73.5 216t188.5 255q-78 59 -139 158q-15 26 -27 43q-19 29 -28.5 44.5t-24 47t-19 55.5t-3.5 56.5t12 64.5q31 85 114 139.5t168 59.5q39 0 75 0.5t76 -11t69 -36.5q49 -39 69 -116.5 t4 -137.5q-58 -203 -207 -367q175 -119 246 -328q32 -103 16 -204t-81 -168zM100 281q0 -21 4 -44t15.5 -57t40.5 -61.5t71 -40.5q46 -14 111 -8q115 6 170 65q46 50 57.5 122.5t-14.5 152.5q-60 180 -221 286q-234 -260 -234 -415zM334 840q63 70 108 151t58.5 121t13.5 47 q9 36 -4 85t-37 69q-22 19 -66.5 22.5t-84.5 -0.5q-56 -2 -114.5 -39.5t-78.5 -91.5q-16 -42 -2.5 -80t55.5 -102q7 -10 29 -45q50 -82 123 -137z" />
<glyph unicode="9" horiz-adv-x="870" d="M729 1243q0 -184 -22 -354q8 -89 8 -221q-2 -20 -2 -155t4 -194q8 -96 8 -303q0 -34 -24.5 -47t-49 1t-24.5 46q0 191 -9 295q-7 92 -4.5 254.5t-1.5 247.5q-5 -6 -34 -35q-111 -98 -269 -98q-109 12 -145 31q-99 62 -141 188q-37 118 -13 227q22 108 113 182.5 t203 100.5q208 46 323 -37q57 -42 78 -106q2 -6 2 -23zM623 1038q6 80 6 207q-3 10 -11 20.5t-28 27t-50.5 23.5t-79.5 10t-114 -13q-83 -19 -153.5 -74t-86.5 -131q-16 -86 12 -177.5t97 -133.5q21 -10 102 -19q111 0 199 78t107 182z" />
<glyph unicode=":" horiz-adv-x="266" d="M92 -14q-50 0 -77.5 41.5t1.5 78.5q24 30 55 36.5t52.5 -9t31.5 -43.5t-10 -67q-16 -37 -53 -37zM72 627q-51 0 -68 55q-12 38 2.5 67.5t40.5 39.5t55.5 -3t44.5 -51q15 -36 -11 -72t-64 -36z" />
<glyph unicode=";" horiz-adv-x="366" d="M92 623q-50 -3 -76.5 38t2.5 82q20 33 68 37q28 2 47 -13t23.5 -38t0.5 -46.5t-21.5 -40.5t-43.5 -19zM39 -88q20 20 27 43q-41 8 -60 41q-13 27 -5 56.5t32 47.5q38 29 82 13q47 -20 51 -84q5 -73 -8.5 -111t-46.5 -74q-14 -15 -31 -18t-29.5 4.5t-21 20t-6.5 29.5 t16 32z" />
<glyph unicode="&#x3c;" horiz-adv-x="608" d="M401 469q-97 28 -192.5 67.5t-137 60.5t-51.5 28q-55 30 15 100q57 57 141 122t154 89q30 9 49 -9.5t14.5 -45.5t-31.5 -39q-83 -29 -231 -162q143 -67 299 -115q28 -8 31.5 -35.5t-15.5 -48t-45 -12.5z" />
<glyph unicode="=" horiz-adv-x="720" d="M59 725q-28 -2 -43 16t-8.5 42t31.5 38q36 20 85.5 21.5t88.5 -4.5q25 -2 143 -2q112 0 131 4q36 8 66 0q31 -9 37.5 -35t-13 -47t-51.5 -15q-6 0 -23 -2t-24 -2q-31 -2 -123 -2q-126 0 -149 2q-37 4 -67.5 2.5t-59.5 -12.5q-16 -4 -21 -4zM47 635q15 2 90.5 7t198 8 t233.5 -7q33 -3 44 -28.5t-4.5 -49t-47.5 -20.5q-45 4 -96.5 6t-99 1.5t-94 -2t-85 -4t-67.5 -4.5t-47 -4l-17 -1q-32 -3 -47 20t-3.5 48.5t42.5 29.5z" />
<glyph unicode="&#x3e;" horiz-adv-x="573" d="M74 524q134 63 272 168q-58 25 -135.5 53t-125.5 43t-50 15q-30 9 -34.5 36t14 47t46.5 13l19 -6q19 -6 43.5 -14t59 -19t71.5 -25t74 -28.5t72.5 -31t62.5 -32.5q24 -10 25.5 -37t-17.5 -42q-10 -10 -50 -41.5t-128.5 -89.5t-175.5 -99q-31 -7 -52 10t-19 41.5t28 38.5z " />
<glyph unicode="?" horiz-adv-x="901" d="M283 4q-4 43 18.5 70.5t55 21t51.5 -50.5q18 -40 -23 -68q-37 -25 -72 -13q-27 10 -30 40zM291 248q-17 132 17 282t120 246q27 31 108 101t113 118q62 91 41 213q-9 39 -32.5 74t-49.5 47q-111 47 -297 25q-34 -4 -66 -11.5t-68 -23t-58 -44t-23 -65.5q-1 -34 -26 -45 t-49 5.5t-23 48.5q3 96 84 158t219 77q212 22 344 -35q54 -22 91.5 -77.5t49.5 -114.5q31 -162 -55 -287q-35 -54 -122 -130.5t-107 -98.5q-70 -79 -99.5 -208.5t-13.5 -242.5q5 -34 -17.5 -49t-48.5 -4t-32 41z" />
<glyph unicode="@" horiz-adv-x="901" d="M766 504q0 -106 -35 -172q-49 -101 -113 -105q-39 0 -67.5 20.5t-42.5 53.5q-19 -33 -47 -56.5t-62.5 -31t-64.5 19.5q-36 26 -52.5 98.5t-15 141.5t12.5 111q14 68 50 106t87 35q94 -4 137 -100q25 -54 37 -158v-12q-4 -30 -0.5 -71.5t14.5 -53.5q2 -2 6 -2q12 8 31 47 q40 75 18 225q-20 135 -61 191q-63 92 -195 102q-48 4 -91 -11.5t-71.5 -42.5t-46.5 -51.5t-26 -44.5q-39 -93 -52.5 -198t-13.5 -248q3 -266 88 -406q22 -37 58 -62.5t74 -31.5q160 -21 235 45q32 27 50.5 71t21 66t2.5 39q0 36 25 51t50 0.5t25 -51.5q0 -17 -3 -39.5 t-12.5 -61.5t-33.5 -79t-59 -71q-113 -98 -316 -68q-127 19 -203 141q-100 163 -100 457q-4 303 72 485q16 37 45 74t71 70.5t100.5 52t121.5 12.5q173 -16 266 -143q54 -81 78 -232q8 -55 8 -112zM391 313h2q31 15 55 88t31 127q-10 52 -26.5 74.5t-42.5 22.5q-9 2 -20 -17 t-15 -45q-13 -43 -10 -129t26 -121z" />
<glyph unicode="A" horiz-adv-x="1046" d="M479 1376q17 26 47.5 23.5t42.5 -31.5q6 -18 20.5 -74.5t26 -104t11.5 -48.5q6 -27 25.5 -106.5t29.5 -131.5q28 -143 129 -459q3 -8 13.5 -39.5t15.5 -48.5q45 -137 55 -166q32 -94 45 -118q15 -31 -0.5 -54t-43.5 -22.5t-42 27.5q-21 39 -51 135q-9 29 -29 84.5 t-29 83.5q-2 8 -28 88q-41 127 -49 151q-111 -16 -383 2q-30 -74 -60 -155q-42 -109 -74.5 -204.5t-44.5 -135.5l-12 -41q-7 -28 -33.5 -34.5t-48 11t-14.5 47.5l2 10q3 10 8 26.5t12.5 40.5t18.5 57.5t24 71t31.5 87t38.5 101.5q41 101 152 417q165 461 194 510zM584 883 q-10 47 -35 152.5t-37 162.5q-37 -92 -133 -364q-6 -18 -28 -77t-32 -91q234 -12 320 -4q-36 134 -55 221z" />
<glyph unicode="B" horiz-adv-x="921" d="M786 471q-3 -138 -73 -272q-88 -171 -299 -215q-53 -11 -121.5 -12.5t-112 1t-123.5 9.5q-35 3 -45 38q-18 86 -2 246q4 62 4 84q4 98 4 291q-2 76 -6 162q-3 91 4 196q11 203 -8 312q-7 34 23 51q11 6 23 11.5t51.5 16.5t83 14.5t114 -2.5t148.5 -26q50 -13 87.5 -35.5 t58 -50t30 -49.5t14.5 -45q13 -94 -29.5 -175t-124.5 -134q31 -7 66 -25q142 -68 199 -209q34 -81 34 -182zM104 78q81 -10 161 -7.5t147 16t123 53.5t90 106q46 84 55 139q40 284 -170 389q-87 39 -199 27q-18 -4 -62 -12t-78.5 -16.5t-55.5 -20.5v-2q0 -16 1 -51.5 t1 -55.5q3 -163 -2 -295q-3 -44 -6 -90q-9 -139 -5 -180zM291 897q45 12 95 42t72 48t29 25q25 25 45 70t11 96q-15 77 -117 100q-188 49 -313 10q13 -110 2 -293q-4 -94 -4 -141q36 11 103 26t75 17h2z" />
<glyph unicode="C" horiz-adv-x="1095" d="M971 172q-22 -34 -68 -77.5t-110 -74.5q-162 -71 -341.5 -28t-291.5 168q-122 144 -152 348q-25 173 15 369q23 120 70.5 221t131.5 182t193 111q60 16 125 15.5t113.5 -11t92 -26t64 -26t25.5 -14.5q27 -21 25.5 -45.5t-27 -39t-50.5 -1.5q-6 6 -51.5 24t-126.5 34 t-166 -7q-62 -17 -114 -55.5t-85 -83.5t-59.5 -102t-40 -102t-22.5 -93q-15 -77 -19.5 -153t3 -162t41 -169t90.5 -149q60 -69 150.5 -108t182.5 -42t179.5 36t140.5 116q11 15 27 19.5t29.5 -1.5t24 -16.5t11 -26t-9.5 -30.5z" />
<glyph unicode="D" horiz-adv-x="1075" d="M948 719q0 -112 -20 -256q-32 -215 -124.5 -323.5t-289.5 -157.5q-156 -39 -379 -13q-36 4 -47 4q-33 0 -50.5 18t-12.5 46q10 44 2 143q-7 50 -11 185q-20 361 -14 546q4 54 4 82q7 75 6 170.5t-16 167.5q-6 27 17.5 46.5t47.5 8.5q3 3 11 3q78 10 152 10.5t128 -5.5 t107.5 -19t85 -23.5t64.5 -26.5t41.5 -21.5t21.5 -13.5q97 -64 155 -143q121 -165 121 -428zM129 70q232 -24 360 8q118 32 188 86t102 125.5t50 187.5q13 90 17.5 161.5t0 155.5t-29 158.5t-69.5 134.5q-103 133 -265 179q-160 51 -381 26q12 -101 4 -303q-4 -54 -4 -82 q-1 -140 -0.5 -179t6.5 -179t7 -178q3 -87 10 -185q5 -94 4 -116z" />
<glyph unicode="E" horiz-adv-x="999" d="M10 1356q0 35 33 45t55 -17q141 11 234 9q202 -9 377 -9q18 0 30.5 -10.5t15 -25t-0.5 -29t-15.5 -25t-31.5 -10.5q-107 0 -377 8q-119 5 -224 -8q-11 -265 -4 -412v-1q2 -23 9 -142q287 23 520 14q29 -2 41 -27t-1 -49t-44 -24q-230 10 -512 -14q2 -38 4.5 -92.5t4 -89 t1.5 -48.5q0 -30 3 -137t1 -172q317 12 666 0q29 -2 40 -27t-1.5 -49t-42.5 -24q-426 17 -709 -2h-2q-27 -3 -41.5 14t-11.5 41q6 47 6 101t-3 128t-3 123q-1 31 -6.5 145.5t-11 216.5t-5.5 107q-3 51 -4 119t0.5 130.5t3.5 115.5t4 89.5t2 37.5z" />
<glyph unicode="F" horiz-adv-x="925" d="M412 1444q101 9 182 7.5t122 -5.5t48 -6q22 -4 32.5 -21.5t8 -35.5t-18 -31t-38.5 -9q-15 2 -41.5 4.5t-114 5t-170.5 -6.5q-190 -15 -318 -15q7 -406 7 -420q-2 -31 -2 -88q98 9 245 2q235 -10 293 -10q30 -2 42 -27t-1 -49t-45 -22q-152 4 -293 10q-154 5 -237 -4 q1 -14 3 -42.5t3 -43.5q6 -68 9.5 -198.5t8.5 -192.5q8 -145 6 -219q-1 -33 -25.5 -46t-48.5 1t-24 45q0 30 -1 66t-2.5 80.5t-2.5 68.5q-4 66 -9.5 195t-9.5 194q-12 181 -10 284q1 15 1 48.5t-0.5 75t-1 88t-1.5 91t-2 80t-2 58.5v22q0 33 20 44t60 8q66 -5 328 14z" />
<glyph unicode="G" horiz-adv-x="1064" d="M883 430q-15 -192 -121 -313q-117 -136 -305 -142q-107 -4 -207.5 47.5t-153.5 137.5q-27 45 -45.5 94.5t-28 89t-14.5 96.5t-6 91t-2 98q0 87 1 131.5t7 111.5t20 123.5t38 116.5q62 160 217 254q109 68 273.5 75t266.5 -63q15 -12 18 -28t-3.5 -28.5t-18 -23 t-26.5 -10.5t-29 10q-64 50 -202.5 44.5t-227.5 -60.5q-129 -81 -174 -205q-39 -106 -50.5 -209t-11.5 -237q1 -101 4.5 -154t22.5 -128.5t57 -137.5q35 -58 110 -99t161 -38q142 6 229.5 102t101.5 260q8 100 -2 180q-35 1 -111 -1.5t-116 -0.5q-24 0 -62 -0.5t-51.5 0 t-33.5 1.5t-31 4t-23 8q-27 16 -28 44t21.5 43.5t53.5 0.5q8 -4 32.5 -4.5t66 1t57.5 1.5q57 0 119.5 2t94.5 2t60 -4q33 -3 43 -41q19 -118 9 -242z" />
<glyph unicode="H" horiz-adv-x="1040" d="M743 1348q-5 29 18 44.5t49.5 7.5t31.5 -38q18 -138 18 -272q0 -81 -14 -340q-4 -36 -6.5 -79.5t-3 -72.5t-1.5 -84t-1 -78q0 -24 -1.5 -85t-1 -95t5.5 -86t17 -96q4 -17 -3 -31.5t-20.5 -21t-28.5 -8t-27.5 8t-16.5 27.5q-6 21 -10 41t-6.5 47.5l-4 44t-2 55.5 t-0.5 55.5v69.5v74q0 61 4 193q-78 4 -167 4t-219.5 -2t-223.5 -2q0 -13 1 -39t1 -39q3 -55 6 -196.5t10 -219.5q5 -72 5 -115q-4 -29 -30 -39.5t-49.5 3.5t-21.5 45q0 4 -4 98q-3 71 -7 210.5t-7 209.5q-11 198 -13 354q-2 41 -8 154.5t-10.5 202t-5.5 94.5 q-3 32 21.5 46.5t50.5 2.5t28 -43q0 -3 4.5 -92.5t10.5 -201.5t10 -157v-2q0 -64 4 -178q67 0 191.5 2.5t228 2.5t198.5 -5q2 10 2 29q9 144 11.5 209t1 178t-14.5 205z" />
<glyph unicode="I" horiz-adv-x="264" d="M121 981q-1 -103 -14 -402t-7 -454q1 -13 2 -40t2 -40q3 -34 -21.5 -47.5t-50.5 -1t-26 42.5q-4 58 -4 82q-6 84 -4 219.5t5 217.5t9 216t8 215q1 24 1 51v53.5t-0.5 54t-1 52t-1.5 47.5t-1.5 41.5t-1 32t-1.5 21.5v8q-4 32 20 46.5t50.5 4t28.5 -40.5l1 -27 q1 -27 3 -65.5t3 -90t1.5 -100.5t-0.5 -96z" />
<glyph unicode="J" horiz-adv-x="1105" d="M967 594q-4 -147 -43 -277q-52 -171 -164 -245q-66 -43 -155 -61t-175.5 -11t-161.5 33q-175 62 -225 231q-63 211 -33 352q7 31 34.5 40t49.5 -8.5t15 -49.5q-25 -131 28 -305q37 -122 164 -166q88 -33 208 -28t196 55q142 94 161 444q3 28 3 57.5t-1.5 64.5t-1.5 54 q-2 187 -9.5 318t-31.5 260q-4 17 3.5 31t21.5 19.5t29 5t27.5 -10.5t15.5 -27q26 -135 34.5 -269t10.5 -327v-180z" />
<glyph unicode="K" horiz-adv-x="1105" d="M127 782v-55q39 25 135 109q37 31 122.5 96t133.5 106q50 43 105 94t122.5 116t102.5 98q15 15 33 17.5t30.5 -5.5t20.5 -21t5 -30.5t-19 -32.5q-13 -12 -78 -74.5t-91.5 -87.5t-76 -69.5t-90.5 -79.5q-40 -35 -126.5 -100.5t-129.5 -102.5q-18 -15 -51.5 -43t-47.5 -39 q79 -53 140 -100q91 -70 270 -220q179 -152 326 -260q20 -15 23 -37t-9 -36t-31 -19.5t-43 12.5q-115 83 -330 265q-167 139 -268 217q-97 73 -166 118q-1 -1 -3 -2t-3 -2v-43q0 -51 -4 -153q-1 -29 -3.5 -70t-2.5 -69q-5 -165 4 -222q3 -18 -5 -32t-22 -19t-29 -4.5 t-27 11.5t-15 30q-12 90 -4 240q0 20 2 65.5t2 73.5q8 166 2 252q-4 55 -5 291.5t-24 369.5q-7 29 15 47.5t48.5 11t32.5 -41.5q14 -76 20.5 -171t7.5 -169t1 -230z" />
<glyph unicode="L" d="M799 -4q-89 -9 -258 0q-78 7 -125 4q-52 -2 -164 -2t-137 -2q-20 -1 -38 -1.5t-32 11t-20 37.5q-19 84 -19 672q0 199 -2 256q-1 29 -1 59.5t0.5 58.5t1 56.5t1 52.5t1.5 46t2 39.5t1.5 30.5t1.5 20v7q2 32 27.5 44t49.5 -2.5t22 -47.5q-1 -21 -3 -57t-4 -132t0 -173 q0 -22 1 -110.5t1 -147.5q0 -497 11 -621q65 -3 219 2t211 -2q148 -8 241 0q39 4 55 -20t2.5 -50t-46.5 -28z" />
<glyph unicode="M" horiz-adv-x="1173" d="M997 20q-26 138 -43 517q-2 61 -10 212t-10 232q0 89 -16 211q-54 -78 -66 -98q-40 -61 -82 -117.5t-73.5 -95.5t-57 -68t-40.5 -44.5t-15 -16.5q-15 -15 -38.5 -13.5t-35.5 19.5q-2 3 -92 103t-107 120q-81 101 -147 199q-2 -73 -4.5 -168t-5.5 -179t-5.5 -158t-4 -118 t-1.5 -45q0 -4 -2 -6q-18 -115 -18 -291q0 -27 -5 -70.5t-10 -73.5t-6 -34q-5 -31 -32 -41t-49 7t-15 52q19 92 19 160q0 180 18 303q22 512 25 817q0 36 36.5 46.5t55.5 -19.5q0 -2 39 -59t95.5 -135.5t92.5 -120.5q51 -51 164 -185q117 132 217 285q5 10 62 93.5t81 111.5 q20 27 51.5 17t34.5 -40q2 -5 9 -55t16 -135t12 -156q8 -212 21 -442q13 -342 41 -502q3 -19 -5 -33.5t-22 -20t-29 -5t-27.5 11t-15.5 28.5z" />
<glyph unicode="N" horiz-adv-x="954" d="M678 1368q0 34 25 47t49.5 -1.5t23.5 -47.5q0 -24 -0.5 -79.5t0 -87t1 -77.5t3 -86.5t6.5 -79.5q31 -407 31 -561q0 -45 8.5 -140t8.5 -149q0 -45 -7 -73q-8 -31 -35 -39.5t-48 10t-13 51.5q6 26 -6 242q-6 64 -6 96q0 91 -6 182q-29 45 -103 137t-98 124 q-136 183 -208 274.5t-118 134.5q-4 -56 -9 -138.5t-7.5 -140t-3.5 -63.5q0 -135 -16 -338q-10 -166 -11 -196q-4 -85 -13.5 -164.5t-15.5 -115.5t-8 -42q-6 -33 -32.5 -40t-48.5 12t-15 49q25 123 33 305q8 132 12 200q17 236 17 334q0 12 4 95.5t11.5 192.5t14.5 155 q3 24 25 35.5t47 -1.5q7 -3 22 -13.5t55.5 -47t86.5 -86.5t116 -141.5t144 -202.5q97 -119 108 -133q-12 128 -16 188q-8 122 -8 420z" />
<glyph unicode="O" horiz-adv-x="1110" d="M127 471q15 -59 28 -100t34 -91.5t45 -84.5t59 -63.5t78 -43.5q85 -29 175.5 -10t141.5 76q158 177 168 450q2 47 8 133.5t6 134.5q0 72 -12 139t-38.5 130t-75 111.5t-113.5 72.5q-78 28 -179.5 19.5t-170.5 -46.5q-81 -50 -123 -202q-99 -347 -31 -625zM971 872 q0 -52 -7.5 -141.5t-7.5 -130.5q-16 -311 -194 -512q-51 -57 -128 -87t-151 -28.5t-143 21.5q-137 45 -219 194q-43 82 -90 258q-77 307 30 676q12 38 23.5 68.5t31.5 69t49.5 70t65.5 52.5q88 52 215.5 61.5t217.5 -24.5q82 -30 144 -89.5t96 -135.5t50.5 -156.5 t16.5 -165.5z" />
<glyph unicode="P" horiz-adv-x="925" d="M786 1061q0 -146 -124 -270q-163 -168 -551 -123q2 -69 4.5 -157t5.5 -165.5t6 -144.5t4.5 -107t1.5 -41q2 -34 -22 -49t-49.5 -2t-26.5 47l-3 57q-2 58 -5.5 147t-7.5 187.5t-6.5 196.5t-2.5 158q0 79 -5.5 272t-2.5 295q4 40 41 47q14 3 36 6.5t79.5 8.5t112.5 5.5 t126.5 -9t131 -29.5t116 -60t90.5 -96q51 -80 51 -174zM109 766q58 -6 101.5 -8.5t104 -0.5t106 12t92.5 33t79 58q152 169 59 324q-35 58 -104.5 93.5t-151.5 45t-155.5 7.5t-139.5 -13q1 -79 5 -255t4 -267v-29z" />
<glyph unicode="Q" horiz-adv-x="1173" d="M457 1450q151 24 274 -64q89 -63 176 -198q49 -78 81 -238t32 -329q0 -343 -184 -533q103 -152 157 -211q15 -16 17.5 -33.5t-6 -30t-21.5 -20t-30.5 -3.5t-32.5 20q-70 77 -162 217q-158 -98 -346 -54q-104 24 -186 97.5t-130 174.5t-74 210t-28 219q0 85 37 237 q22 87 31.5 122t33 101.5t49.5 114.5q41 76 124 129t188 72zM823 1135q-83 132 -166 183t-184 34q-71 -12 -139.5 -50.5t-102.5 -99.5q-9 -17 -18 -37.5t-15.5 -35t-15 -41t-12 -37t-12.5 -43t-10.5 -38t-11 -42.5t-9.5 -39q-3 -16 -11 -49.5t-12 -54t-8 -51t-4 -58.5 q2 -82 22 -173t58.5 -183.5t107 -161.5t154.5 -88q154 -35 275 45q-24 52 -75.5 116t-90.5 103q-16 15 -19.5 32.5t4.5 30.5t21 21t31 4.5t34 -19.5q10 -10 34.5 -37t68 -83.5t69.5 -102.5q136 148 136 441q0 159 -30.5 305.5t-68.5 208.5z" />
<glyph unicode="R" horiz-adv-x="827" d="M51 1415q109 17 225.5 4t219.5 -53q89 -36 131.5 -132.5t17.5 -195.5q-28 -144 -151 -238t-281 -114q80 -77 244 -278q31 -38 116 -154.5t125 -179.5q10 -17 9.5 -34t-11.5 -27.5t-25 -16t-30 0.5t-27 23q-38 61 -121.5 175.5t-111.5 148.5q-13 16 -42 50.5t-41 49.5 t-36 43l-36 42t-31 35t-31.5 33.5t-27 26t-27.5 23.5q3 -167 -5 -305q-3 -36 -3.5 -79t0 -71.5t2 -80t1.5 -70.5q1 -33 -23 -47t-49.5 -1t-27.5 44q-7 182 0 311q6 134 5.5 203.5t-4 207t-3.5 214.5q-12 263 6 395q6 41 43 47zM549 1059q12 61 -2 108t-47.5 75t-81 48 t-102 25.5t-109.5 8.5t-105 -3q-8 -162 -2 -344q2 -33 3 -99t3 -100q99 -2 187 25t159.5 93t96.5 163z" />
<glyph unicode="S" horiz-adv-x="897" d="M795 311q-3 -125 -64 -209q-54 -75 -150.5 -107.5t-193 -24.5t-176.5 46q-51 25 -91 65t-63 86.5t-35.5 84t-19.5 76.5q-7 34 16 50t50 6.5t32 -38.5q34 -185 152 -240q63 -28 137 -36t147.5 14t112.5 76q34 46 41 96q17 100 -23.5 191t-134.5 163q-39 30 -107.5 73.5 t-119 81.5t-86.5 81q-40 48 -69 100.5t-46.5 110.5t-12.5 118.5t36 112.5q63 108 240 162q99 27 187.5 7.5t155 -88t81.5 -163.5q4 -23 -9.5 -38.5t-32.5 -17.5t-36 8t-21 32q-9 53 -39.5 93.5t-72 59.5t-90.5 24.5t-95 -11.5q-140 -46 -182 -119q-20 -34 -22 -76t8.5 -78 t30.5 -73.5t35.5 -59.5t31.5 -41q35 -44 86 -81.5t114 -75.5t97 -64q97 -75 149 -172.5t52 -204.5z" />
<glyph unicode="T" horiz-adv-x="1060" d="M47 1319q-30 2 -41 27t2.5 49t44.5 24l15 -1q15 -1 39.5 -2.5t52.5 -3t58.5 -2.5t53.5 -1q33 0 95 0.5t114 0.5t99 -1q19 0 78.5 -3t99.5 -2.5t80 5.5q34 5 50 -18t6 -49t-40 -29q-89 -14 -236 -6q-29 4 -114 4q11 -40 20 -156q1 -13 5 -65.5t5 -69.5t3 -61.5t1.5 -70.5 t-3 -63.5t-7.5 -72.5q-10 -79 -6 -258q1 -45 2 -141t3.5 -170t9.5 -148q3 -29 -20 -44t-49 -6.5t-30 38.5q-5 43 -8.5 86.5t-4.5 99.5t-1.5 85.5t0 103.5t0.5 94q-4 187 6 272q6 45 7.5 97t0 89t-6 101.5t-5.5 97.5q-4 105 -27 162h-127q-38 0 -92.5 2t-93.5 4z" />
<glyph unicode="U" horiz-adv-x="1103" d="M936 766q0 -307 -84 -506q-32 -76 -97 -136t-145 -90.5t-170.5 -36t-171.5 27.5q-66 25 -113.5 69.5t-74.5 102.5t-40.5 111t-21.5 118t-10 131.5t0 164.5t2 126q4 300 35 483q6 35 32.5 44.5t49 -8.5t16.5 -50q-29 -158 -34 -469q0 -50 -0.5 -128.5t-0.5 -114t2 -82.5 t7 -85q7 -55 17.5 -98.5t31 -90t55 -80.5t82.5 -52q63 -25 134 -20.5t134.5 28.5t115 70t75.5 104q34 82 52 177t20 213t-1 195t-12 216q-6 129 -24 241q-3 22 5 37.5t22 20.5t29.5 3t27.5 -14.5t14 -31.5q41 -302 41 -590z" />
<glyph unicode="V" horiz-adv-x="1107" d="M944 1325q-55 -201 -147 -434q-155 -385 -209 -559q-15 -46 -32.5 -95t-32 -86t-27 -67t-20 -47.5t-7.5 -18.5q-10 -20 -30.5 -25.5t-39.5 4.5t-24 32q-33 145 -99 399t-92 365q-16 64 -61 196t-80.5 230.5t-38.5 103.5q-12 29 5.5 50.5t45 18.5t39.5 -34 q155 -413 187 -543q16 -66 72 -284.5t81 -329.5q38 90 60 161q85 264 211 566q72 179 141 424q8 32 37.5 37t50.5 -15t10 -49z" />
<glyph unicode="W" horiz-adv-x="1314" d="M1073 1317q-11 -69 -39 -299q-18 -141 -102 -701q-32 -221 -49 -282q-7 -24 -29 -32.5t-43 3t-25 35.5q-8 51 -19.5 98t-29.5 100.5t-30.5 88t-40 106t-41.5 107.5q-5 12 -31.5 81t-38.5 103q-22 -74 -56.5 -214.5t-45.5 -180.5q-29 -118 -113 -320q-9 -21 -32.5 -25 t-43.5 9.5t-20 36.5q0 62 -47.5 326.5t-87.5 449.5q-82 350 -103 539q-4 36 18.5 52.5t48.5 4t31 -46.5q35 -251 101 -527q73 -333 114 -593q18 50 39 120q16 59 64 261.5t84 304.5q12 33 50 28t44 -39q15 -68 117 -333q65 -163 110 -295q1 9 3.5 26t3.5 21q12 84 33.5 226 t38.5 258t30 218q6 46 19 147.5t20 153.5q3 19 15 30.5t27 12t29.5 -5t22 -20t4.5 -33.5z" />
<glyph unicode="X" horiz-adv-x="1101" d="M866 1372q21 21 47.5 12t33 -34.5t-16.5 -53.5q-46 -47 -107 -133t-146 -217t-95 -147q-41 -59 -54 -80q98 -129 240 -371q128 -211 182 -278q22 -27 11 -53t-37 -29t-50 18q-58 69 -192 291q-119 208 -211 332q-43 -68 -97.5 -156t-101.5 -165.5t-87.5 -145t-65 -108.5 t-25.5 -42q-19 -27 -48 -27.5t-40.5 21.5t4.5 57q7 13 71.5 120.5t160 264t164.5 265.5q-53 73 -144.5 222.5t-145 242t-71.5 125.5q-9 18 -8 34.5t12.5 26.5t25.5 14t29.5 -2.5t26.5 -23.5q5 -9 58 -101.5t137 -231t139 -216.5q15 25 35 53q22 32 104.5 160t143.5 212.5 t118 143.5z" />
<glyph unicode="Y" horiz-adv-x="1107" d="M872 1436q13 22 34.5 27.5t37 -4.5t23.5 -28.5t-6 -44.5q0 -1 -17 -30t-55.5 -93.5t-73.5 -123.5q-40 -69 -86 -142.5t-72 -113t-28 -41.5q0 -2 -2 -4q-67 -83 -92 -156q0 -246 -5 -348v-51t0.5 -53.5t1 -53t1 -48t1 -39t0.5 -26.5l1 -10q2 -34 -23 -49.5t-50.5 -2.5 t-25.5 48q0 1 -1 21t-2 50.5t-1.5 66.5t-0.5 77t1 74q3 75 3.5 185.5t-1.5 156.5q-25 59 -166.5 280t-261.5 392q-20 29 -7 54.5t40 26t49 -25.5q43 -60 182.5 -272.5t210.5 -333.5q31 53 68 98q1 1 21 32t42 66.5t55.5 89t61.5 101.5z" />
<glyph unicode="Z" horiz-adv-x="1089" d="M537 1425q329 -7 391 0q36 5 52 -24t-9 -58q2 -9 -2 -22q-15 -34 -54.5 -96t-77 -115.5t-69.5 -98.5t-33 -46q-55 -73 -162.5 -230.5t-169.5 -242.5q-140 -197 -266 -392q111 0 193 -4q209 -13 299 -2q26 3 65.5 5t80 2t75 -0.5t60.5 -1.5l26 -1q32 -1 44.5 -26t-1.5 -49 t-47 -23q-234 0 -289 -4q-61 -4 -112.5 -5t-77 0t-68 3.5l-59.5 3.5q-216 10 -267 0q-37 -6 -55.5 17.5t-1.5 54.5l7 12q7 11 19.5 30.5t30.5 48t44.5 69t58 86.5t74 107t88.5 126q27 38 143 210t188 265q145 199 203 299q-45 -1 -103.5 -1t-104.5 1.5t-83.5 2.5t-38.5 1 q-16 2 -39 3t-47.5 1h-52h-54t-51.5 -0.5t-46 -1t-37 -1t-25 -0.5l-10 -1q-35 -3 -51 20.5t-3 49t50 28.5q1 0 31.5 1t73.5 2t92 1.5t98 -0.5t80 -4z" />
<glyph unicode="[" horiz-adv-x="628" d="M449 -53q-30 -5 -66.5 -8.5t-71.5 -4.5t-70 -1.5t-65 0.5t-52.5 1.5t-37.5 1.5t-16 1q-24 -1 -37 14.5t-10 42.5q6 55 4 112q-2 31 -2 158q0 389 -11 567q-8 125 -8 398v4q1 17 1.5 37.5t-0.5 40l-2 39t-2 36.5t-2 29.5t-2 20.5l-1 8q-6 47 47 53l13 1q12 1 31 2t41 1.5 t46.5 0.5t44.5 -1l221 -10q35 -2 47.5 -27t-3 -49t-48.5 -22q-1 0 -35.5 1.5t-91 4t-94.5 4.5q-16 1 -36 1t-44.5 -0.5t-34.5 -0.5q5 -130 2 -176q0 -226 9 -389q10 -164 10 -574q0 -50 1 -97t1 -56q2 -31 2 -78q187 -5 305 12q35 5 52 -17.5t6.5 -48.5t-41.5 -32z" />
<glyph unicode="\" horiz-adv-x="569" d="M377 37q-22 118 -89.5 322.5t-88.5 291.5q-18 76 -58.5 218.5t-56.5 211.5q-8 33 -19 72t-21.5 71.5t-20 60.5t-15.5 45l-6 16q-12 33 6.5 54.5t46.5 16.5t41 -37l4 -10q4 -11 9 -26l12 -36t15 -46t16 -50.5t15 -54t13 -53.5q18 -76 58.5 -217.5t56.5 -210.5 q22 -89 90.5 -297.5t89.5 -323.5q2 -19 -6 -33t-22 -19.5t-28.5 -4.5t-26.5 11.5t-15 27.5z" />
<glyph unicode="]" horiz-adv-x="643" d="M43 -53q-31 6 -41.5 32t6 48.5t51.5 17.5q118 -17 306 -12q0 47 2 78q0 9 1 56t1 97q0 410 10 574q8 145 8 389q-3 46 2 176q-10 0 -34.5 0.5t-44.5 0.5t-36 -1q-38 -2 -94.5 -4.5t-91 -4t-35.5 -1.5q-33 -2 -48.5 22t-3 49t47.5 27q131 6 221 10q20 1 44.5 1t46.5 -0.5 t41 -1.5t32 -2l12 -1q54 -6 48 -53l-1 -8q-1 -8 -2 -20.5t-2.5 -29.5t-2.5 -36.5l-2 -39t-0.5 -40t1.5 -37.5v-4q0 -273 -8 -398q-10 -162 -10 -567q0 -127 -2 -158q-2 -57 4 -112q3 -27 -10 -42.5t-37 -14.5q-1 0 -16 -1t-37.5 -1.5t-52.5 -1.5t-65 -0.5t-70 1.5t-71.5 4.5 t-66.5 8.5z" />
<glyph unicode="^" horiz-adv-x="559" d="M4 1270q1 2 18.5 45.5t41.5 100t40 85.5q13 20 36 23t40 -11l7 -6q7 -6 16.5 -15t23.5 -22.5t28.5 -28t30 -33.5t29 -37.5t25.5 -40.5t20 -42q9 -30 -10 -50t-46 -16.5t-38 31.5q-23 63 -102 142q-22 -47 -66 -160q-13 -30 -39.5 -32.5t-45 18.5t-9.5 49z" />
<glyph unicode="_" horiz-adv-x="1306" d="M45 -4q1 0 19.5 2t52 5t76.5 5.5t102 4.5t119 1q29 -1 91.5 -2t92.5 -2q354 -4 410 4q35 5 51.5 -18t5 -49.5t-44.5 -30.5q-106 -11 -422 -4q-32 0 -94 1t-90 1q-42 0 -84 -0.5t-76 -2t-65.5 -3.5t-55 -4t-40.5 -4t-27 -3l-9 -1q-36 -3 -52 19t-4 48t44 33z" />
<glyph unicode="`" horiz-adv-x="403" d="M242 1202q-42 26 -98 75.5t-90 84.5t-38 41q-23 26 -13.5 53.5t35 32t50.5 -18.5q140 -140 207 -184q21 -14 24.5 -34.5t-8 -34.5t-29.5 -21t-40 6z" />
<glyph unicode="a" horiz-adv-x="1046" d="M479 1376q17 26 47.5 23.5t42.5 -31.5q6 -18 20.5 -74.5t26 -104t11.5 -48.5q6 -27 25.5 -106.5t29.5 -131.5q28 -143 129 -459q3 -8 13.5 -39.5t15.5 -48.5q45 -137 55 -166q32 -94 45 -118q15 -31 -0.5 -54t-43.5 -22.5t-42 27.5q-21 39 -51 135q-9 29 -29 84.5 t-29 83.5q-2 8 -28 88q-41 127 -49 151q-111 -16 -383 2q-30 -74 -60 -155q-42 -109 -74.5 -204.5t-44.5 -135.5l-12 -41q-7 -28 -33.5 -34.5t-48 11t-14.5 47.5l2 10q3 10 8 26.5t12.5 40.5t18.5 57.5t24 71t31.5 87t38.5 101.5q41 101 152 417q165 461 194 510zM584 883 q-10 47 -35 152.5t-37 162.5q-37 -92 -133 -364q-6 -18 -28 -77t-32 -91q234 -12 320 -4q-36 134 -55 221z" />
<glyph unicode="b" horiz-adv-x="921" d="M786 471q-3 -138 -73 -272q-88 -171 -299 -215q-53 -11 -121.5 -12.5t-112 1t-123.5 9.5q-35 3 -45 38q-18 86 -2 246q4 62 4 84q4 98 4 291q-2 76 -6 162q-3 91 4 196q11 203 -8 312q-7 34 23 51q11 6 23 11.5t51.5 16.5t83 14.5t114 -2.5t148.5 -26q50 -13 87.5 -35.5 t58 -50t30 -49.5t14.5 -45q13 -94 -29.5 -175t-124.5 -134q31 -7 66 -25q142 -68 199 -209q34 -81 34 -182zM104 78q81 -10 161 -7.5t147 16t123 53.5t90 106q46 84 55 139q40 284 -170 389q-87 39 -199 27q-18 -4 -62 -12t-78.5 -16.5t-55.5 -20.5v-2q0 -16 1 -51.5 t1 -55.5q3 -163 -2 -295q-3 -44 -6 -90q-9 -139 -5 -180zM291 897q45 12 95 42t72 48t29 25q25 25 45 70t11 96q-15 77 -117 100q-188 49 -313 10q13 -110 2 -293q-4 -94 -4 -141q36 11 103 26t75 17h2z" />
<glyph unicode="c" horiz-adv-x="1095" d="M971 172q-22 -34 -68 -77.5t-110 -74.5q-162 -71 -341.5 -28t-291.5 168q-122 144 -152 348q-25 173 15 369q23 120 70.5 221t131.5 182t193 111q60 16 125 15.5t113.5 -11t92 -26t64 -26t25.5 -14.5q27 -21 25.5 -45.5t-27 -39t-50.5 -1.5q-6 6 -51.5 24t-126.5 34 t-166 -7q-62 -17 -114 -55.5t-85 -83.5t-59.5 -102t-40 -102t-22.5 -93q-15 -77 -19.5 -153t3 -162t41 -169t90.5 -149q60 -69 150.5 -108t182.5 -42t179.5 36t140.5 116q11 15 27 19.5t29.5 -1.5t24 -16.5t11 -26t-9.5 -30.5z" />
<glyph unicode="d" horiz-adv-x="1075" d="M948 719q0 -112 -20 -256q-32 -215 -124.5 -323.5t-289.5 -157.5q-156 -39 -379 -13q-36 4 -47 4q-33 0 -50.5 18t-12.5 46q10 44 2 143q-7 50 -11 185q-20 361 -14 546q4 54 4 82q7 75 6 170.5t-16 167.5q-6 27 17.5 46.5t47.5 8.5q3 3 11 3q78 10 152 10.5t128 -5.5 t107.5 -19t85 -23.5t64.5 -26.5t41.5 -21.5t21.5 -13.5q97 -64 155 -143q121 -165 121 -428zM129 70q232 -24 360 8q118 32 188 86t102 125.5t50 187.5q13 90 17.5 161.5t0 155.5t-29 158.5t-69.5 134.5q-103 133 -265 179q-160 51 -381 26q12 -101 4 -303q-4 -54 -4 -82 q-1 -140 -0.5 -179t6.5 -179t7 -178q3 -87 10 -185q5 -94 4 -116z" />
<glyph unicode="e" horiz-adv-x="999" d="M10 1356q0 35 33 45t55 -17q141 11 234 9q202 -9 377 -9q18 0 30.5 -10.5t15 -25t-0.5 -29t-15.5 -25t-31.5 -10.5q-107 0 -377 8q-119 5 -224 -8q-11 -265 -4 -412v-1q2 -23 9 -142q287 23 520 14q29 -2 41 -27t-1 -49t-44 -24q-230 10 -512 -14q2 -38 4.5 -92.5t4 -89 t1.5 -48.5q0 -30 3 -137t1 -172q317 12 666 0q29 -2 40 -27t-1.5 -49t-42.5 -24q-426 17 -709 -2h-2q-27 -3 -41.5 14t-11.5 41q6 47 6 101t-3 128t-3 123q-1 31 -6.5 145.5t-11 216.5t-5.5 107q-3 51 -4 119t0.5 130.5t3.5 115.5t4 89.5t2 37.5z" />
<glyph unicode="f" horiz-adv-x="925" d="M412 1444q101 9 182 7.5t122 -5.5t48 -6q22 -4 32.5 -21.5t8 -35.5t-18 -31t-38.5 -9q-15 2 -41.5 4.5t-114 5t-170.5 -6.5q-190 -15 -318 -15q7 -406 7 -420q-2 -31 -2 -88q98 9 245 2q235 -10 293 -10q30 -2 42 -27t-1 -49t-45 -22q-152 4 -293 10q-154 5 -237 -4 q1 -14 3 -42.5t3 -43.5q6 -68 9.5 -198.5t8.5 -192.5q8 -145 6 -219q-1 -33 -25.5 -46t-48.5 1t-24 45q0 30 -1 66t-2.5 80.5t-2.5 68.5q-4 66 -9.5 195t-9.5 194q-12 181 -10 284q1 15 1 48.5t-0.5 75t-1 88t-1.5 91t-2 80t-2 58.5v22q0 33 20 44t60 8q66 -5 328 14z" />
<glyph unicode="g" horiz-adv-x="1064" d="M883 430q-15 -192 -121 -313q-117 -136 -305 -142q-107 -4 -207.5 47.5t-153.5 137.5q-27 45 -45.5 94.5t-28 89t-14.5 96.5t-6 91t-2 98q0 87 1 131.5t7 111.5t20 123.5t38 116.5q62 160 217 254q109 68 273.5 75t266.5 -63q15 -12 18 -28t-3.5 -28.5t-18 -23 t-26.5 -10.5t-29 10q-64 50 -202.5 44.5t-227.5 -60.5q-129 -81 -174 -205q-39 -106 -50.5 -209t-11.5 -237q1 -101 4.5 -154t22.5 -128.5t57 -137.5q35 -58 110 -99t161 -38q142 6 229.5 102t101.5 260q8 100 -2 180q-35 1 -111 -1.5t-116 -0.5q-24 0 -62 -0.5t-51.5 0 t-33.5 1.5t-31 4t-23 8q-27 16 -28 44t21.5 43.5t53.5 0.5q8 -4 32.5 -4.5t66 1t57.5 1.5q57 0 119.5 2t94.5 2t60 -4q33 -3 43 -41q19 -118 9 -242z" />
<glyph unicode="h" horiz-adv-x="1040" d="M743 1348q-5 29 18 44.5t49.5 7.5t31.5 -38q18 -138 18 -272q0 -81 -14 -340q-4 -36 -6.5 -79.5t-3 -72.5t-1.5 -84t-1 -78q0 -24 -1.5 -85t-1 -95t5.5 -86t17 -96q4 -17 -3 -31.5t-20.5 -21t-28.5 -8t-27.5 8t-16.5 27.5q-6 21 -10 41t-6.5 47.5l-4 44t-2 55.5 t-0.5 55.5v69.5v74q0 61 4 193q-78 4 -167 4t-219.5 -2t-223.5 -2q0 -13 1 -39t1 -39q3 -55 6 -196.5t10 -219.5q5 -72 5 -115q-4 -29 -30 -39.5t-49.5 3.5t-21.5 45q0 4 -4 98q-3 71 -7 210.5t-7 209.5q-11 198 -13 354q-2 41 -8 154.5t-10.5 202t-5.5 94.5 q-3 32 21.5 46.5t50.5 2.5t28 -43q0 -3 4.5 -92.5t10.5 -201.5t10 -157v-2q0 -64 4 -178q67 0 191.5 2.5t228 2.5t198.5 -5q2 10 2 29q9 144 11.5 209t1 178t-14.5 205z" />
<glyph unicode="i" horiz-adv-x="264" d="M121 981q-1 -103 -14 -402t-7 -454q1 -13 2 -40t2 -40q3 -34 -21.5 -47.5t-50.5 -1t-26 42.5q-4 58 -4 82q-6 84 -4 219.5t5 217.5t9 216t8 215q1 24 1 51v53.5t-0.5 54t-1 52t-1.5 47.5t-1.5 41.5t-1 32t-1.5 21.5v8q-4 32 20 46.5t50.5 4t28.5 -40.5l1 -27 q1 -27 3 -65.5t3 -90t1.5 -100.5t-0.5 -96z" />
<glyph unicode="j" horiz-adv-x="1105" d="M967 594q-4 -147 -43 -277q-52 -171 -164 -245q-66 -43 -155 -61t-175.5 -11t-161.5 33q-175 62 -225 231q-63 211 -33 352q7 31 34.5 40t49.5 -8.5t15 -49.5q-25 -131 28 -305q37 -122 164 -166q88 -33 208 -28t196 55q142 94 161 444q3 28 3 57.5t-1.5 64.5t-1.5 54 q-2 187 -9.5 318t-31.5 260q-4 17 3.5 31t21.5 19.5t29 5t27.5 -10.5t15.5 -27q26 -135 34.5 -269t10.5 -327v-180z" />
<glyph unicode="k" horiz-adv-x="1105" d="M127 782v-55q39 25 135 109q37 31 122.5 96t133.5 106q50 43 105 94t122.5 116t102.5 98q15 15 33 17.5t30.5 -5.5t20.5 -21t5 -30.5t-19 -32.5q-13 -12 -78 -74.5t-91.5 -87.5t-76 -69.5t-90.5 -79.5q-40 -35 -126.5 -100.5t-129.5 -102.5q-18 -15 -51.5 -43t-47.5 -39 q79 -53 140 -100q91 -70 270 -220q179 -152 326 -260q20 -15 23 -37t-9 -36t-31 -19.5t-43 12.5q-115 83 -330 265q-167 139 -268 217q-97 73 -166 118q-1 -1 -3 -2t-3 -2v-43q0 -51 -4 -153q-1 -29 -3.5 -70t-2.5 -69q-5 -165 4 -222q3 -18 -5 -32t-22 -19t-29 -4.5 t-27 11.5t-15 30q-12 90 -4 240q0 20 2 65.5t2 73.5q8 166 2 252q-4 55 -5 291.5t-24 369.5q-7 29 15 47.5t48.5 11t32.5 -41.5q14 -76 20.5 -171t7.5 -169t1 -230z" />
<glyph unicode="l" d="M799 -4q-89 -9 -258 0q-78 7 -125 4q-52 -2 -164 -2t-137 -2q-20 -1 -38 -1.5t-32 11t-20 37.5q-19 84 -19 672q0 199 -2 256q-1 29 -1 59.5t0.5 58.5t1 56.5t1 52.5t1.5 46t2 39.5t1.5 30.5t1.5 20v7q2 32 27.5 44t49.5 -2.5t22 -47.5q-1 -21 -3 -57t-4 -132t0 -173 q0 -22 1 -110.5t1 -147.5q0 -497 11 -621q65 -3 219 2t211 -2q148 -8 241 0q39 4 55 -20t2.5 -50t-46.5 -28z" />
<glyph unicode="m" horiz-adv-x="1173" d="M997 20q-26 138 -43 517q-2 61 -10 212t-10 232q0 89 -16 211q-54 -78 -66 -98q-40 -61 -82 -117.5t-73.5 -95.5t-57 -68t-40.5 -44.5t-15 -16.5q-15 -15 -38.5 -13.5t-35.5 19.5q-2 3 -92 103t-107 120q-81 101 -147 199q-2 -73 -4.5 -168t-5.5 -179t-5.5 -158t-4 -118 t-1.5 -45q0 -4 -2 -6q-18 -115 -18 -291q0 -27 -5 -70.5t-10 -73.5t-6 -34q-5 -31 -32 -41t-49 7t-15 52q19 92 19 160q0 180 18 303q22 512 25 817q0 36 36.5 46.5t55.5 -19.5q0 -2 39 -59t95.5 -135.5t92.5 -120.5q51 -51 164 -185q117 132 217 285q5 10 62 93.5t81 111.5 q20 27 51.5 17t34.5 -40q2 -5 9 -55t16 -135t12 -156q8 -212 21 -442q13 -342 41 -502q3 -19 -5 -33.5t-22 -20t-29 -5t-27.5 11t-15.5 28.5z" />
<glyph unicode="n" horiz-adv-x="954" d="M678 1368q0 34 25 47t49.5 -1.5t23.5 -47.5q0 -24 -0.5 -79.5t0 -87t1 -77.5t3 -86.5t6.5 -79.5q31 -407 31 -561q0 -45 8.5 -140t8.5 -149q0 -45 -7 -73q-8 -31 -35 -39.5t-48 10t-13 51.5q6 26 -6 242q-6 64 -6 96q0 91 -6 182q-29 45 -103 137t-98 124 q-136 183 -208 274.5t-118 134.5q-4 -56 -9 -138.5t-7.5 -140t-3.5 -63.5q0 -135 -16 -338q-10 -166 -11 -196q-4 -85 -13.5 -164.5t-15.5 -115.5t-8 -42q-6 -33 -32.5 -40t-48.5 12t-15 49q25 123 33 305q8 132 12 200q17 236 17 334q0 12 4 95.5t11.5 192.5t14.5 155 q3 24 25 35.5t47 -1.5q7 -3 22 -13.5t55.5 -47t86.5 -86.5t116 -141.5t144 -202.5q97 -119 108 -133q-12 128 -16 188q-8 122 -8 420z" />
<glyph unicode="o" horiz-adv-x="1110" d="M971 872q0 -52 -7.5 -141.5t-7.5 -130.5q-16 -311 -194 -512q-51 -57 -128 -87t-151 -28.5t-143 21.5q-137 45 -219 194q-43 82 -90 258q-77 307 30 676q12 38 23.5 68.5t31.5 69t49.5 70t65.5 52.5q88 52 215.5 61.5t217.5 -24.5q82 -30 144 -89.5t96 -135.5 t50.5 -156.5t16.5 -165.5zM127 471q15 -59 28 -100t34 -91.5t45 -84.5t59 -63.5t78 -43.5q85 -29 175.5 -10t141.5 76q158 177 168 450q2 47 8 133.5t6 134.5q0 72 -12 139t-38.5 130t-75 111.5t-113.5 72.5q-78 28 -179.5 19.5t-170.5 -46.5q-81 -50 -123 -202 q-99 -347 -31 -625z" />
<glyph unicode="p" horiz-adv-x="925" d="M786 1061q0 -146 -124 -270q-163 -168 -551 -123q2 -69 4.5 -157t5.5 -165.5t6 -144.5t4.5 -107t1.5 -41q2 -34 -22 -49t-49.5 -2t-26.5 47l-3 57q-2 58 -5.5 147t-7.5 187.5t-6.5 196.5t-2.5 158q0 79 -5.5 272t-2.5 295q4 40 41 47q14 3 36 6.5t79.5 8.5t112.5 5.5 t126.5 -9t131 -29.5t116 -60t90.5 -96q51 -80 51 -174zM109 766q58 -6 101.5 -8.5t104 -0.5t106 12t92.5 33t79 58q152 169 59 324q-35 58 -104.5 93.5t-151.5 45t-155.5 7.5t-139.5 -13q1 -79 5 -255t4 -267v-29z" />
<glyph unicode="q" horiz-adv-x="1173" d="M457 1450q151 24 274 -64q89 -63 176 -198q49 -78 81 -238t32 -329q0 -343 -184 -533q103 -152 157 -211q15 -16 17.5 -33.5t-6 -30t-21.5 -20t-30.5 -3.5t-32.5 20q-70 77 -162 217q-158 -98 -346 -54q-104 24 -186 97.5t-130 174.5t-74 210t-28 219q0 85 37 237 q22 87 31.5 122t33 101.5t49.5 114.5q41 76 124 129t188 72zM823 1135q-83 132 -166 183t-184 34q-71 -12 -139.5 -50.5t-102.5 -99.5q-9 -17 -18 -37.5t-15.5 -35t-15 -41t-12 -37t-12.5 -43t-10.5 -38t-11 -42.5t-9.5 -39q-3 -16 -11 -49.5t-12 -54t-8 -51t-4 -58.5 q2 -82 22 -173t58.5 -183.5t107 -161.5t154.5 -88q154 -35 275 45q-24 52 -75.5 116t-90.5 103q-16 15 -19.5 32.5t4.5 30.5t21 21t31 4.5t34 -19.5q10 -10 34.5 -37t68 -83.5t69.5 -102.5q136 148 136 441q0 159 -30.5 305.5t-68.5 208.5z" />
<glyph unicode="r" horiz-adv-x="827" d="M51 1415q109 17 225.5 4t219.5 -53q89 -36 131.5 -132.5t17.5 -195.5q-28 -144 -151 -238t-281 -114q80 -77 244 -278q31 -38 116 -154.5t125 -179.5q10 -17 9.5 -34t-11.5 -27.5t-25 -16t-30 0.5t-27 23q-38 61 -121.5 175.5t-111.5 148.5q-13 16 -42 50.5t-41 49.5 t-36 43l-36 42t-31 35t-31.5 33.5t-27 26t-27.5 23.5q3 -167 -5 -305q-3 -36 -3.5 -79t0 -71.5t2 -80t1.5 -70.5q1 -33 -23 -47t-49.5 -1t-27.5 44q-7 182 0 311q6 134 5.5 203.5t-4 207t-3.5 214.5q-12 263 6 395q6 41 43 47zM549 1059q12 61 -2 108t-47.5 75t-81 48 t-102 25.5t-109.5 8.5t-105 -3q-8 -162 -2 -344q2 -33 3 -99t3 -100q99 -2 187 25t159.5 93t96.5 163z" />
<glyph unicode="s" horiz-adv-x="897" d="M795 311q-3 -125 -64 -209q-54 -75 -150.5 -107.5t-193 -24.5t-176.5 46q-51 25 -91 65t-63 86.5t-35.5 84t-19.5 76.5q-7 34 16 50t50 6.5t32 -38.5q34 -185 152 -240q63 -28 137 -36t147.5 14t112.5 76q34 46 41 96q17 100 -23.5 191t-134.5 163q-39 30 -107.5 73.5 t-119 81.5t-86.5 81q-40 48 -69 100.5t-46.5 110.5t-12.5 118.5t36 112.5q63 108 240 162q99 27 187.5 7.5t155 -88t81.5 -163.5q4 -23 -9.5 -38.5t-32.5 -17.5t-36 8t-21 32q-9 53 -39.5 93.5t-72 59.5t-90.5 24.5t-95 -11.5q-140 -46 -182 -119q-20 -34 -22 -76t8.5 -78 t30.5 -73.5t35.5 -59.5t31.5 -41q35 -44 86 -81.5t114 -75.5t97 -64q97 -75 149 -172.5t52 -204.5z" />
<glyph unicode="t" horiz-adv-x="1060" d="M47 1319q-30 2 -41 27t2.5 49t44.5 24l15 -1q15 -1 39.5 -2.5t52.5 -3t58.5 -2.5t53.5 -1q33 0 95 0.5t114 0.5t99 -1q19 0 78.5 -3t99.5 -2.5t80 5.5q34 5 50 -18t6 -49t-40 -29q-89 -14 -236 -6q-29 4 -114 4q11 -40 20 -156q1 -13 5 -65.5t5 -69.5t3 -61.5t1.5 -70.5 t-3 -63.5t-7.5 -72.5q-10 -79 -6 -258q1 -45 2 -141t3.5 -170t9.5 -148q3 -29 -20 -44t-49 -6.5t-30 38.5q-5 43 -8.5 86.5t-4.5 99.5t-1.5 85.5t0 103.5t0.5 94q-4 187 6 272q6 45 7.5 97t0 89t-6 101.5t-5.5 97.5q-4 105 -27 162h-127q-38 0 -92.5 2t-93.5 4z" />
<glyph unicode="u" horiz-adv-x="1103" d="M936 766q0 -307 -84 -506q-32 -76 -97 -136t-145 -90.5t-170.5 -36t-171.5 27.5q-66 25 -113.5 69.5t-74.5 102.5t-40.5 111t-21.5 118t-10 131.5t0 164.5t2 126q4 300 35 483q6 35 32.5 44.5t49 -8.5t16.5 -50q-29 -158 -34 -469q0 -50 -0.5 -128.5t-0.5 -114t2 -82.5 t7 -85q7 -55 17.5 -98.5t31 -90t55 -80.5t82.5 -52q63 -25 134 -20.5t134.5 28.5t115 70t75.5 104q34 82 52 177t20 213t-1 195t-12 216q-6 129 -24 241q-3 22 5 37.5t22 20.5t29.5 3t27.5 -14.5t14 -31.5q41 -302 41 -590z" />
<glyph unicode="v" horiz-adv-x="1107" d="M944 1325q-55 -201 -147 -434q-155 -385 -209 -559q-15 -46 -32.5 -95t-32 -86t-27 -67t-20 -47.5t-7.5 -18.5q-10 -20 -30.5 -25.5t-39.5 4.5t-24 32q-33 145 -99 399t-92 365q-16 64 -61 196t-80.5 230.5t-38.5 103.5q-12 29 5.5 50.5t45 18.5t39.5 -34 q155 -413 187 -543q16 -66 72 -284.5t81 -329.5q38 90 60 161q85 264 211 566q72 179 141 424q8 32 37.5 37t50.5 -15t10 -49z" />
<glyph unicode="w" horiz-adv-x="1314" d="M1073 1317q-11 -69 -39 -299q-18 -141 -102 -701q-32 -221 -49 -282q-7 -24 -29 -32.5t-43 3t-25 35.5q-8 51 -19.5 98t-29.5 100.5t-30.5 88t-40 106t-41.5 107.5q-5 12 -31.5 81t-38.5 103q-22 -74 -56.5 -214.5t-45.5 -180.5q-29 -118 -113 -320q-9 -21 -32.5 -25 t-43.5 9.5t-20 36.5q0 62 -47.5 326.5t-87.5 449.5q-82 350 -103 539q-4 36 18.5 52.5t48.5 4t31 -46.5q35 -251 101 -527q73 -333 114 -593q18 50 39 120q16 59 64 261.5t84 304.5q12 33 50 28t44 -39q15 -68 117 -333q65 -163 110 -295q1 9 3.5 26t3.5 21q12 84 33.5 226 t38.5 258t30 218q6 46 19 147.5t20 153.5q3 19 15 30.5t27 12t29.5 -5t22 -20t4.5 -33.5z" />
<glyph unicode="x" horiz-adv-x="1101" d="M866 1372q21 21 47.5 12t33 -34.5t-16.5 -53.5q-46 -47 -107 -133t-146 -217t-95 -147q-41 -59 -54 -80q98 -129 240 -371q128 -211 182 -278q22 -27 11 -53t-37 -29t-50 18q-58 69 -192 291q-119 208 -211 332q-43 -68 -97.5 -156t-101.5 -165.5t-87.5 -145t-65 -108.5 t-25.5 -42q-19 -27 -48 -27.5t-40.5 21.5t4.5 57q7 13 71.5 120.5t160 264t164.5 265.5q-53 73 -144.5 222.5t-145 242t-71.5 125.5q-9 18 -8 34.5t12.5 26.5t25.5 14t29.5 -2.5t26.5 -23.5q5 -9 58 -101.5t137 -231t139 -216.5q15 25 35 53q22 32 104.5 160t143.5 212.5 t118 143.5z" />
<glyph unicode="y" horiz-adv-x="1107" d="M872 1436q13 22 34.5 27.5t37 -4.5t23.5 -28.5t-6 -44.5q0 -1 -17 -30t-55.5 -93.5t-73.5 -123.5q-40 -69 -86 -142.5t-72 -113t-28 -41.5q0 -2 -2 -4q-67 -83 -92 -156q0 -246 -5 -348v-51t0.5 -53.5t1 -53t1 -48t1 -39t0.5 -26.5l1 -10q2 -34 -23 -49.5t-50.5 -2.5 t-25.5 48q0 1 -1 21t-2 50.5t-1.5 66.5t-0.5 77t1 74q3 75 3.5 185.5t-1.5 156.5q-25 59 -166.5 280t-261.5 392q-20 29 -7 54.5t40 26t49 -25.5q43 -60 182.5 -272.5t210.5 -333.5q31 53 68 98q1 1 21 32t42 66.5t55.5 89t61.5 101.5z" />
<glyph unicode="z" horiz-adv-x="1089" d="M537 1425q329 -7 391 0q36 5 52 -24t-9 -58q2 -9 -2 -22q-15 -34 -54.5 -96t-77 -115.5t-69.5 -98.5t-33 -46q-55 -73 -162.5 -230.5t-169.5 -242.5q-140 -197 -266 -392q111 0 193 -4q209 -13 299 -2q26 3 65.5 5t80 2t75 -0.5t60.5 -1.5l26 -1q32 -1 44.5 -26t-1.5 -49 t-47 -23q-234 0 -289 -4q-61 -4 -112.5 -5t-77 0t-68 3.5l-59.5 3.5q-216 10 -267 0q-37 -6 -55.5 17.5t-1.5 54.5l7 12q7 11 19.5 30.5t30.5 48t44.5 69t58 86.5t74 107t88.5 126q27 38 143 210t188 265q145 199 203 299q-45 -1 -103.5 -1t-104.5 1.5t-83.5 2.5t-38.5 1 q-16 2 -39 3t-47.5 1h-52h-54t-51.5 -0.5t-46 -1t-37 -1t-25 -0.5l-10 -1q-35 -3 -51 20.5t-3 49t50 28.5q1 0 31.5 1t73.5 2t92 1.5t98 -0.5t80 -4z" />
<glyph unicode="{" horiz-adv-x="544" d="M225 1356q19 39 46.5 67t53.5 41.5t54 19t47.5 4.5t34.5 -5q24 -7 34 -25.5t5.5 -36.5t-22.5 -29.5t-44 -5.5h-1q-62 10 -104 -47l-16 -26q-29 -59 -32 -139.5t-2.5 -167.5t-18.5 -148q-22 -78 -100 -125q40 -55 55 -149q3 -16 5.5 -32t4.5 -35t3.5 -32.5t2.5 -36 t1.5 -33.5t0.5 -37.5v-34.5v-38.5v-36.5q2 -88 16 -138t56 -69q41 -15 74 -10q32 5 48.5 -18t6.5 -49.5t-43 -30.5q-67 -7 -123 18q-23 9 -42 22.5t-32 32t-23 34.5t-16.5 41t-10.5 40.5t-6 44t-3 40t-2 38.5q0 11 0.5 69t0 82t-4 68.5t-10.5 81.5q-18 94 -56 127 q-28 -6 -44.5 14.5t-10.5 46.5t33 35q18 4 40 14t49.5 33t35.5 52q14 49 16.5 114t-0.5 116.5t6.5 117t36.5 121.5z" />
<glyph unicode="|" horiz-adv-x="202" d="M12 -319q-14 140 -10 342q0 247 4 362q8 138 7 352.5t1 337.5q1 42 0.5 87t-1.5 93t-2 92t-3 84.5t-3 69.5t-2 47l-1 19q-2 34 22 49t49 2.5t27 -45.5q0 -2 2 -37t4.5 -89t5 -116.5t3.5 -132.5t0 -125q-2 -89 -2 -326t-7 -366q-9 -185 -6 -361q0 -27 0.5 -79t1 -84t3 -78 t6.5 -88q4 -37 -19 -53t-49 -3t-31 46z" />
<glyph unicode="}" horiz-adv-x="593" d="M266 1356q27 -56 37 -121.5t7 -117t-0.5 -116.5t16.5 -114q12 -41 52 -66t73 -33q27 -9 32.5 -35t-11 -46.5t-44.5 -14.5q-36 -32 -55 -127q-6 -30 -9.5 -60t-4.5 -65t-1.5 -56.5t0 -63.5t0.5 -56q-1 -27 -2 -38.5t-3 -40t-6 -44t-10.5 -40.5t-16.5 -41t-23 -34.5 t-32 -32t-42 -22.5q-56 -25 -123 -18q-33 4 -43 30.5t7 49.5t49 18t73 10q42 19 56 69t16 138v36.5v38.5v34.5t0.5 37.5t1.5 33.5t2.5 36t3.5 32.5t4.5 35t5.5 32q15 92 56 149q-79 48 -101 125q-19 61 -18.5 148t-2.5 167.5t-32 139.5q-15 29 -35.5 47.5t-37 21.5t-31 5 t-16.5 -1h-1q-34 -8 -53.5 12.5t-12 48t39.5 36.5q15 4 34.5 5t47 -4.5t53.5 -19t53.5 -41.5t46.5 -67z" />
<glyph unicode="~" horiz-adv-x="778" d="M451 508q-34 1 -63.5 12t-54 34t-39.5 40.5t-36 46.5q-24 29 -36 41.5t-28 22.5t-32 8q-68 -6 -68 -125q-1 -35 -26 -49.5t-49 -0.5t-23 48q4 87 27 135q42 83 129 92q42 4 80.5 -16t56 -39t47.5 -56q4 -5 18 -22t21 -25t19 -19.5t24.5 -18t25.5 -9.5q15 -4 35.5 10 t32.5 35q18 35 6 103q-6 34 16 52.5t48 10t32 -40.5q19 -113 -16 -174q-24 -40 -64 -68t-83 -28z" />
<glyph unicode="&#xa1;" horiz-adv-x="276" d="M63 10q-10 86 -6 295q5 186 -22 424q-13 93 -19 145.5t-6.5 134.5t13.5 150q3 19 15 29.5t27 10.5t29 -6t21.5 -20.5t3.5 -31.5q-12 -60 -11.5 -134.5t6.5 -124t19 -141.5q28 -240 23 -438q-4 -188 6 -280q2 -31 -21.5 -46t-49 -5.5t-28.5 38.5zM74 1382q39 -18 51.5 -51 t-9 -58t-69.5 -20q-40 4 -47 48q-6 41 20 70q22 25 54 11z" />
<glyph unicode="&#xa2;" horiz-adv-x="1062" d="M852 215q16 25 44.5 21t40 -26.5t-4.5 -49.5q-17 -31 -62 -75.5t-108 -76.5q-92 -45 -225 -45q5 -81 8 -104q2 -30 -22 -45t-49.5 -6t-27.5 38q-8 60 -8 136q-48 12 -96 32q-109 45 -184 136q-119 143 -146 346q-22 153 15 368q37 191 114 310q104 158 262 204 q31 9 46 11q-2 38 -4 77t-3 60l-2 20q0 29 23.5 43.5t48 4.5t27.5 -42q0 -2 1.5 -23.5t4 -59.5t4.5 -74q63 -4 128 -24t92 -33.5t38 -20.5q15 -9 20 -24.5t0 -29.5t-15 -25t-25 -12.5t-31 7.5l-10 5q-11 6 -30 14t-43 17t-56 16t-64 9q1 -87 -3.5 -256.5t-2.5 -265.5 q0 -192 -6 -383q-6 -318 -6 -323q66 -6 123 9t96 43.5t60.5 50.5t37.5 46zM233 213q54 -69 146 -109q15 -6 57 -20q0 157 6 307q4 125 4 379q0 79 4 248.5t3 269.5q-63 -13 -116.5 -50t-87.5 -83t-61.5 -105t-41.5 -107t-23 -97q-73 -412 110 -633z" />
<glyph unicode="&#xa3;" horiz-adv-x="1001" d="M801 96q29 7 47 -15.5t11 -49t-38 -31.5q-1 -1 -19 -4.5t-55.5 -6.5t-78.5 -3q-27 0 -43 2h-107q-84 0 -127 2q-52 4 -80 8q-101 12 -143 6q-29 -6 -45 14.5t-9.5 46.5t33.5 35q35 28 50 103q25 125 8 334l-6 75q-21 -1 -75 -7.5t-85 -6.5q-27 0 -40.5 22.5t-4.5 46.5 t37 29q68 10 162 17q-6 151 4 325q0 123 34 207q29 77 93.5 128t146.5 61q80 9 151.5 -22t116.5 -97q12 -17 8.5 -37.5t-20.5 -32.5q-17 -11 -37.5 -8t-32.5 20q-62 90 -174 78q-54 -6 -96.5 -40t-62.5 -85q-29 -76 -29 -174v-2q-8 -149 -2 -319q66 0 188 -4q183 -6 205 -6 q25 0 36.5 -23.5t2 -48t-36.5 -27.5t-57.5 -3.5t-49 0.5t-54 3.5t-50.5 3.5q-122 4 -178 4q0 -19 4 -69q21 -218 -10 -363q-6 -37 -25 -80q9 -1 28 -3t28 -3q15 -1 39 -4t34 -4q61 -3 121 0q74 0 113 -2q44 -2 86.5 0.5t62.5 5.5z" />
<glyph unicode="&#xa4;" horiz-adv-x="714" d="M514 510q4 -27 -15.5 -44t-44.5 -11.5t-36 34.5l-2 3l-5 7.5t-7.5 10t-12 13.5t-16.5 16q-47 -51 -113 -56h-12q-47 0 -94 29q-21 -24 -68 -68q-20 -20 -47.5 -10t-34.5 34t14 48q56 56 70 72q-32 62 -29 129q0 1 2 11l4 20t7 25.5t12 29.5q-54 70 -88 104 q-22 22 -13.5 49.5t33.5 33.5t54 -17q7 -5 82 -94q43 27 97.5 30t104.5 -18q37 33 64 67q20 22 48 15.5t37 -30t-9 -48.5q-33 -41 -68 -74q23 -42 24.5 -99t-14.5 -85l-8 -16q31 -25 51 -50.5t25.5 -38.5t7.5 -22zM256 582q25 3 47 26t31 44l10 22q21 47 -1 92t-75 45 q-44 -2 -73 -28t-33 -70v-2q-2 -49 22.5 -88.5t71.5 -40.5z" />
<glyph unicode="&#xa5;" horiz-adv-x="1032" d="M868 1436q13 20 34 25.5t36.5 -4t23 -27t-5.5 -44.5q-2 -2 -145 -249q-43 -73 -89 -146.5t-73.5 -114t-30.5 -42.5h115q22 0 34.5 -16t13.5 -34.5t-12 -34.5t-36 -16q-145 0 -180 -2q-15 -28 -23 -49v-61q70 -4 134.5 -3.5t83.5 3.5q29 9 47 -12t12.5 -49t-35.5 -36 q-31 -6 -105 -7t-137 3q0 -76 -4 -186v-51v-54.5t0.5 -52.5t1 -48.5t1 -39.5t1.5 -27v-10q2 -29 -22.5 -42t-50 -2.5t-25.5 40.5q0 1 -1 21.5t-2 51t-1.5 66.5t-0.5 77t1 73q1 29 2 92.5t2 95.5q-26 -1 -91.5 -6.5t-98.5 -5.5q-28 0 -41 24t-2.5 49t39.5 27q1 0 30.5 2.5 t76.5 5t87 3.5q0 43 -2 57q-8 21 -24 47q-30 3 -62.5 3t-71.5 -1.5t-61 -1.5q-28 -2 -42 22.5t-3.5 50t41.5 27.5l9 1q8 0 21.5 0.5t30 1t37.5 0.5t39 -1q-173 275 -342 523q-12 19 -12.5 37t10.5 29t25 16t31 -2t28 -25q9 -14 87 -131t168 -255t138 -220q28 50 68 96 q3 5 31 48.5t70.5 112t78.5 130.5q143 238 143 248z" />
<glyph unicode="&#xa6;" horiz-adv-x="247" d="M2 954q-7 95 0 238q11 184 -6 281q-4 24 9 39t31.5 17t36 -8.5t21.5 -31.5q16 -101 8 -303q-8 -165 -2 -223q4 -34 -20 -49t-50 -3t-28 43zM6 -41q-8 95 -4 283q0 187 -4 239q-3 34 21 49t50 3t29 -44q6 -66 2 -249q-4 -182 4 -273q1 -23 -13 -37t-32 -15t-34.5 10.5 t-18.5 33.5z" />
<glyph unicode="&#xa7;" horiz-adv-x="702" d="M438 238q194 -138 166 -338q-14 -74 -41 -109q-37 -57 -103 -83.5t-143 -26.5q-89 0 -161 32q-74 33 -108 87.5t-46 127.5q-7 30 14 46.5t48 9.5t36 -35q12 -62 34 -94.5t65 -51.5q40 -18 94 -22.5t108 11.5t80 54q19 30 25 68q18 140 -125 244q-24 17 -75 50t-89.5 62 t-69.5 64q-79 93 -100 184t19 164q36 66 115 101t167 38q-25 19 -73 49.5t-86 59t-66 63.5q-66 77 -94 148q-45 106 4 190q29 49 80 83.5t106 51.5q106 33 203.5 -15t124.5 -159q12 -27 -7.5 -46t-47.5 -15t-37 33q-26 69 -81 100t-126 6q-37 -9 -74 -33.5t-57 -54.5 q-44 -74 80 -225q16 -19 35 -36.5t45 -35.5t42 -28.5t50.5 -32.5t46.5 -29q90 -69 132 -160.5t27 -187.5q-17 -93 -95.5 -152.5t-180.5 -64.5q100 -60 139 -92zM152 633q-39 -68 22 -164q43 -39 112.5 -41.5t126.5 34.5t64 101q16 84 -31 131q-56 48 -155 24t-139 -85z" />
<glyph unicode="&#xa8;" horiz-adv-x="622" d="M94 1247q-36 2 -60 18.5t-29 38.5t0.5 44t28 37.5t54.5 15.5q38 0 59 -24t21 -60q0 -28 -23.5 -49t-50.5 -21zM383 1245q-58 2 -74 52q-15 44 12 79q23 30 62 23q43 -7 57.5 -27.5t14.5 -58.5q0 -28 -22.5 -48t-49.5 -20z" />
<glyph unicode="&#xa9;" horiz-adv-x="1400" d="M549 360q-138 54 -184 205q-32 101 -12.5 218.5t83.5 211.5q42 61 104.5 85t123.5 15t118 -42q27 -16 24.5 -45t-24.5 -41.5t-49 0.5q-148 71 -215 -27q-51 -75 -67.5 -170.5t8.5 -173.5q31 -110 127 -143q50 -17 100.5 3.5t75.5 55.5q10 15 25.5 19.5t28.5 -2t24 -17.5 t11.5 -26.5t-9.5 -30.5q-47 -69 -128.5 -97t-164.5 2zM537 96q-224 0 -351 103q-148 118 -178 323q-22 164 33 357q38 140 121.5 252t191.5 169q83 46 246 46q191 0 318 -78q53 -33 96.5 -77t99.5 -112q152 -184 152 -374q-3 -195 -158 -373q-88 -92 -152 -131 q-85 -49 -195.5 -77t-223.5 -28zM600 1245q-47 2 -108.5 -7t-92.5 -26q-90 -47 -160 -143t-104 -217q-14 -52 -23 -103t-10.5 -119.5t10.5 -128t46 -120.5t90 -105q101 -81 289 -81q98 0 197 24.5t171 67.5q57 33 129 112q131 148 132 305t-128 312q-42 50 -69.5 79.5 t-68 62t-80.5 49t-95.5 27.5t-124.5 11z" />
<glyph unicode="&#xab;" horiz-adv-x="911" d="M401 469q-97 28 -192.5 67.5t-137 60.5t-51.5 28q-55 30 15 100q57 57 141 122t154 89q30 9 49 -9.5t14.5 -45.5t-31.5 -39q-83 -29 -231 -162q143 -67 299 -115q28 -8 31.5 -35.5t-15.5 -48t-45 -12.5zM748 500q-97 28 -192.5 67t-137 60t-51.5 28q-56 31 14 101 q57 57 141 122t154 89q30 9 49 -9.5t15 -46t-31 -39.5q-86 -30 -232 -161q143 -67 299 -115q28 -8 31.5 -35.5t-15 -48t-44.5 -12.5z" />
<glyph unicode="&#xac;" horiz-adv-x="1116" d="M858 367q0 1 -1 4.5t-1 5.5q0 100 6 147q4 48 0 117q-115 -10 -319.5 -17t-282.5 -3q-54 4 -105.5 4t-76.5 -2l-25 -2q-23 -1 -37.5 13t-15.5 32.5t10 35t33 19.5l4 1h10.5t15.5 0.5t21.5 1t26.5 1t31 0.5t35 -0.5t39 -1.5l42 -2q86 -7 336.5 4t288.5 18q22 7 38 -4 t23 -32l2 -12q1 -12 3 -30.5t3.5 -42t1.5 -53.5t-3 -57q-10 -84 -5 -129v-16q0 -31 -24.5 -43t-49 1t-24.5 42z" />
<glyph unicode="&#xad;" horiz-adv-x="669" d="M565 637q-213 11 -511 0h-3q-33 -2 -47 22.5t-1.5 50t44.5 25.5h3q48 1 104 2t186.5 1t228.5 -3q19 -1 31 -11.5t14 -25t-1.5 -28.5t-16.5 -24t-31 -9z" />
<glyph unicode="&#xae;" horiz-adv-x="1400" d="M625 690q95 -111 180 -237q18 -24 4 -48.5t-39.5 -27t-46.5 19.5q-71 105 -174 228l2 -207q0 -29 -24.5 -42t-49 -2.5t-24.5 40.5q-1 3 -2 44.5t-1 104t3 107.5q1 22 1 50t-1 60.5t-2 64.5t-2 62.5t-2.5 53l-2.5 37.5v14q0 64 109 57q56 0 109.5 -18t95 -62.5 t41.5 -105.5q0 -72 -50 -121.5t-116 -69.5q-2 -2 -8 -2zM698 883q0 81 -153 86q6 -141 6 -195q34 5 63 15.5t54.5 35t29.5 58.5zM537 96q-224 0 -351 103q-148 118 -178 323q-22 164 33 357q38 140 121.5 252t191.5 169q83 46 246 46q191 0 318 -78q53 -33 96.5 -77 t99.5 -112q152 -184 152 -374q-3 -195 -158 -373q-88 -92 -152 -131q-85 -49 -195.5 -77t-223.5 -28zM600 1245q-47 2 -108.5 -7t-92.5 -26q-90 -47 -160 -143t-104 -217q-14 -52 -23 -103t-10.5 -119.5t10.5 -128t46 -120.5t90 -105q101 -81 289 -81q98 0 197 24.5 t171 67.5q57 33 129 112q131 148 132 305t-128 312q-42 50 -69.5 79.5t-68 62t-80.5 49t-95.5 27.5t-124.5 11z" />
<glyph unicode="&#xaf;" horiz-adv-x="1187" d="M45 1397q1 0 19.5 2t52 5t76.5 5.5t102 4.5t119 1q29 -1 91.5 -2t92.5 -2q354 -4 410 4q35 5 51.5 -18t5 -49.5t-44.5 -30.5q-106 -11 -422 -4q-32 0 -94 1t-90 1q-42 0 -84 -0.5t-76 -2.5t-65.5 -4t-55 -4t-40.5 -4t-27 -3l-9 -1q-36 -3 -52 19.5t-4 48.5t44 33z" />
<glyph unicode="&#xb0;" horiz-adv-x="417" d="M223 1468q45 -27 65 -76t-1 -94q-27 -60 -104.5 -84t-129.5 7q-31 18 -45 53t-6 69q14 83 81.5 125.5t139.5 -0.5zM102 1307q22 -7 54 4t41 28q12 21 -16 39t-48 11q-16 -8 -31.5 -38t0.5 -44z" />
<glyph unicode="&#xb1;" horiz-adv-x="1013" d="M565 336q18 -1 31 9t16.5 24t1.5 28.5t-14 25t-31 11.5q-217 8 -519 0h-3q-32 0 -44.5 -25.5t1.5 -50t47 -22.5h3q297 11 511 0zM578 844q30 2 45.5 -21t5.5 -49t-43 -31q-74 -10 -246 -10q14 -111 6 -190q-3 -27 -27 -38t-47 2.5t-22 45.5q6 51 -8 178q-32 0 -100 1 t-105 1q-34 0 -48 24.5t0.5 49t49.5 24.5h10q10 0 27.5 -0.5t40 -1t53 -0.5h61.5q-12 160 -12 187q-3 32 21.5 47t50 3t26.5 -46q0 -20 13 -189q164 4 248 13z" />
<glyph unicode="&#xb4;" horiz-adv-x="466" d="M80 1202q-26 -16 -51 -1.5t-26.5 39.5t24.5 46q80 52 205 183l1 1q13 15 30 18.5t30 -3.5t21.5 -19t6.5 -29.5t-16 -33.5q-4 -6 -38 -40.5t-89.5 -84.5t-97.5 -76z" />
<glyph unicode="&#xb6;" d="M801 1421q17 -21 12 -43v-2q-12 -53 -12 -198q-5 -136 -8 -162q-7 -28 -0.5 -174.5t6.5 -188.5q-2 -33 -2 -98q-4 -179 0 -268q2 -80 2 -277q0 -22 -15.5 -34.5t-34 -13.5t-34 12t-15.5 36q0 195 -4 273q-4 93 0 276q2 33 2 133q-27 -6 -59 -6q-3 -234 -16 -377 q-4 -50 -4 -114t2 -103l2 -39q2 -28 -21.5 -43t-49 -5.5t-28.5 40.5l-1 19q-1 18 -2 45.5t-1.5 61.5t0.5 73.5t4 72.5q14 197 17 367q-8 2 -49 2q-171 4 -289 43q-126 41 -180 150q-50 99 -25 229q23 114 102.5 195t202.5 116q104 26 172 31q16 2 150 2q98 -3 130 -10 t46 -21zM494 784h47q0 17 -1 53.5t-1 55.5v4q8 158 2 240q-14 122 -11 215q-99 0 -198 -29q-97 -26 -159 -87t-77 -146q-5 -23 -7 -47t3 -58.5t18.5 -63t45 -56t77.5 -42.5q106 -35 261 -39zM700 1178q0 92 9 172q-11 0 -37 1t-41 1q-3 -79 8 -207q7 -76 -2 -252 q2 -37 2 -109q9 1 27.5 3.5t27.5 3.5q0 25 -2 72t-2 87t4 76q6 45 6 152z" />
<glyph unicode="&#xb7;" horiz-adv-x="276" d="M90 623q-62 5 -76.5 49.5t11 86t61.5 38.5q72 -5 72 -99q0 -34 -19.5 -56t-48.5 -19z" />
<glyph unicode="&#xb8;" horiz-adv-x="360" d="M43 -293q-35 0 -48.5 25t0 50t44.5 25q44 0 53 32q7 27 -17 42q-10 5 -22 6q-26 -1 -40.5 23t-2.5 47q8 18 19.5 39.5t23 40.5t21.5 35t17 26t7 11q13 18 30 24t31 0t24 -17t10 -29.5t-13 -35.5q-30 -45 -57 -90q54 -25 69.5 -77t-16.5 -111q-37 -66 -133 -66z" />
<glyph unicode="&#xb9;" horiz-adv-x="1052" d="M373 510q0 64 -4 182q-7 336 16 600q5 81 2 103q-70 -62 -157.5 -167.5t-139.5 -178.5q-11 -15 -27 -19t-29.5 1.5t-23.5 16.5t-10 26.5t10 31.5q10 17 68.5 93.5t153.5 180t161 142.5q35 21 61.5 -10.5t26.5 -69.5q10 -54 2 -158q-22 -380 -14 -590q4 -118 4 -184 q0 -30 -25 -42t-50 0t-25 42z" />
<glyph unicode="&#xba;" horiz-adv-x="481" d="M141 1178q-54 0 -96.5 33t-46.5 83q-6 65 48.5 124t115.5 59q36 0 65.5 -23t40.5 -55q29 -80 -7.5 -150.5t-119.5 -70.5zM162 1378q-21 -3 -43.5 -28.5t-22.5 -46.5q0 -16 17 -22t36.5 -2t26.5 13q10 12 8.5 49t-22.5 37z" />
<glyph unicode="&#xbb;" d="M436 524q137 64 273 168q-58 25 -135.5 53t-126 43t-50.5 15q-30 9 -34.5 36t14.5 47t47 13q1 0 15.5 -4.5t34 -10.5t48 -16t58 -20t64 -23t65.5 -26t61.5 -27.5t54.5 -28.5q24 -10 26 -37t-17 -42q-10 -10 -50 -41.5t-129 -89.5t-176 -99q-31 -7 -52 10t-19 41.5 t28 38.5zM74 485q134 63 272 168q-58 25 -135.5 53t-125.5 43t-50 15q-30 9 -34.5 36t14 47t46.5 13l19 -6q18 -5 43 -13t59.5 -19.5t71.5 -25t74 -28t72.5 -31t62.5 -32.5q24 -10 26 -37.5t-18 -42.5q-10 -10 -50 -41.5t-128.5 -89.5t-175.5 -99q-31 -7 -52 10t-19 41.5 t28 38.5z" />
<glyph unicode="&#xbf;" horiz-adv-x="954" d="M211 -61q-48 26 -97 71t-73 94q-93 181 33 443q73 149 280 266q143 80 191 170q55 104 -4 229q-15 32 1.5 54.5t45.5 20.5t43 -30q82 -170 2 -321q-63 -119 -230 -209q-182 -105 -241 -225q-103 -212 -33 -352q17 -32 53.5 -67.5t73.5 -55.5q54 -27 128 -29.5t143 23 t104 73.5q29 37 52 93t32 114q7 30 33 37.5t48 -8.5t17 -45q-25 -149 -102 -252q-53 -67 -144.5 -102.5t-187.5 -32.5t-168 41zM592 1454q39 -18 51.5 -51t-9 -58t-69.5 -20q-40 4 -47 48q-6 41 20 70q22 25 54 11z" />
<glyph unicode="&#xc0;" horiz-adv-x="1071" d="M463 1491q-42 26 -97.5 76t-89.5 84.5t-38 40.5q-14 16 -16 33.5t6.5 29.5t21 19t29.5 3.5t30 -18.5q140 -140 207 -184q21 -14 24.5 -34.5t-8 -34.5t-29.5 -21t-40 6zM479 1376q17 26 47.5 23.5t42.5 -31.5q6 -18 20.5 -74.5t26 -104t11.5 -48.5q6 -27 25.5 -106.5 t29.5 -131.5q28 -143 129 -459q3 -8 13.5 -39.5t15.5 -48.5q45 -137 55 -166q32 -94 45 -118q15 -31 -0.5 -54t-43.5 -22.5t-42 27.5q-21 39 -51 135q-9 29 -29 84.5t-29 83.5q-2 8 -28 88q-41 127 -49 151q-111 -16 -383 2q-30 -74 -60 -155q-42 -109 -74.5 -204.5 t-44.5 -135.5l-12 -41q-7 -28 -33.5 -34.5t-48 11t-14.5 47.5l2 10q3 10 8 26.5t12.5 40.5t18.5 57.5t24 71t31.5 87t38.5 101.5q41 101 152 417q165 461 194 510zM584 883q-10 47 -35 152.5t-37 162.5q-37 -92 -133 -364q-6 -18 -28 -77t-32 -91q234 -12 320 -4 q-36 134 -55 221z" />
<glyph unicode="&#xc1;" horiz-adv-x="1050" d="M479 1376q17 26 47.5 23.5t42.5 -31.5q6 -18 20.5 -74.5t26 -104t11.5 -48.5q6 -27 25.5 -106.5t29.5 -131.5q28 -143 129 -459q3 -8 13.5 -39.5t15.5 -48.5q45 -137 55 -166q32 -94 45 -118q15 -31 -0.5 -54t-43.5 -22.5t-42 27.5q-21 39 -51 135q-9 29 -29 84.5 t-29 83.5q-2 8 -28 88q-41 127 -49 151q-111 -16 -383 2q-30 -74 -60 -155q-42 -109 -74.5 -204.5t-44.5 -135.5l-12 -41q-7 -28 -33.5 -34.5t-48 11t-14.5 47.5l2 10q3 10 8 26.5t12.5 40.5t18.5 57.5t24 71t31.5 87t38.5 101.5q41 101 152 417q165 461 194 510zM584 883 q-10 47 -35 152.5t-37 162.5q-37 -92 -133 -364q-6 -18 -28 -77t-32 -91q234 -12 320 -4q-36 134 -55 221zM600 1493q-26 -16 -51 -1.5t-26.5 39.5t24.5 46q67 44 207 184q13 15 30 18.5t29.5 -3.5t21 -19t6.5 -29.5t-16 -33.5q-4 -6 -38 -40.5t-89.5 -84.5t-97.5 -76z" />
<glyph unicode="&#xc2;" horiz-adv-x="1058" d="M479 1376q17 26 47.5 23.5t42.5 -31.5q6 -18 20.5 -74.5t26 -104t11.5 -48.5q6 -27 25.5 -106.5t29.5 -131.5q28 -143 129 -459q3 -8 13.5 -39.5t15.5 -48.5q45 -137 55 -166q32 -94 45 -118q15 -31 -0.5 -54t-43.5 -22.5t-42 27.5q-21 39 -51 135q-9 29 -29 84.5 t-29 83.5q-2 8 -28 88q-41 127 -49 151q-111 -16 -383 2q-30 -74 -60 -155q-42 -109 -74.5 -204.5t-44.5 -135.5l-12 -41q-7 -28 -33.5 -34.5t-48 11t-14.5 47.5l2 10q3 10 8 26.5t12.5 40.5t18.5 57.5t24 71t31.5 87t38.5 101.5q41 101 152 417q165 461 194 510zM584 883 q-10 47 -35 152.5t-37 162.5q-37 -92 -133 -364q-6 -18 -28 -77t-32 -91q234 -12 320 -4q-36 134 -55 221zM324 1509q1 2 18.5 46t41.5 100.5t40 85.5q13 20 36 23t40 -11l7 -6q7 -6 16.5 -15t23.5 -22.5t28.5 -28t30 -33.5t29 -37.5t25.5 -40.5t20 -42q9 -30 -10 -50 t-46 -16.5t-38 31.5q-22 60 -103 141q-19 -40 -65 -159q-13 -30 -39.5 -32.5t-45 18t-9.5 48.5z" />
<glyph unicode="&#xc3;" horiz-adv-x="1064" d="M479 1376q17 26 47.5 23.5t42.5 -31.5q6 -18 20.5 -74.5t26 -104t11.5 -48.5q6 -27 25.5 -106.5t29.5 -131.5q28 -143 129 -459q3 -8 13.5 -39.5t15.5 -48.5q45 -137 55 -166q32 -94 45 -118q15 -31 -0.5 -54t-43.5 -22.5t-42 27.5q-21 39 -51 135q-9 29 -29 84.5 t-29 83.5q-2 8 -28 88q-41 127 -49 151q-111 -16 -383 2q-30 -74 -60 -155q-42 -109 -74.5 -204.5t-44.5 -135.5l-12 -41q-7 -28 -33.5 -34.5t-48 11t-14.5 47.5l2 10q3 10 8 26.5t12.5 40.5t18.5 57.5t24 71t31.5 87t38.5 101.5q41 101 152 417q165 461 194 510zM584 883 q-10 47 -35 152.5t-37 162.5q-37 -92 -133 -364q-6 -18 -28 -77t-32 -91q234 -12 320 -4q-36 134 -55 221zM680 1456q-34 1 -63.5 12t-54 34t-39.5 40.5t-36 46.5q-24 29 -36 41.5t-28 22.5t-32 8q-67 -6 -67 -125q-1 -35 -26 -49.5t-49.5 -0.5t-23.5 48q4 87 27 135 q42 83 129 92q32 3 59.5 -5.5t52 -29t37.5 -34.5t35 -41l18 -22.5t21 -25t19.5 -19.5t25 -18.5t25.5 -9.5q14 -4 34 10.5t33 35.5q19 36 7 102q-6 34 16 52.5t48 10t32 -40.5q19 -111 -17 -174q-24 -40 -64 -68t-83 -28z" />
<glyph unicode="&#xc4;" horiz-adv-x="1024" d="M479 1376q17 26 47.5 23.5t42.5 -31.5q6 -18 20.5 -74.5t26 -104t11.5 -48.5q6 -27 25.5 -106.5t29.5 -131.5q28 -143 129 -459q3 -8 13.5 -39.5t15.5 -48.5q45 -137 55 -166q32 -94 45 -118q15 -31 -0.5 -54t-43.5 -22.5t-42 27.5q-21 39 -51 135q-9 29 -29 84.5 t-29 83.5q-2 8 -28 88q-41 127 -49 151q-111 -16 -383 2q-30 -74 -60 -155q-42 -109 -74.5 -204.5t-44.5 -135.5l-12 -41q-7 -28 -33.5 -34.5t-48 11t-14.5 47.5l2 10q3 10 8 26.5t12.5 40.5t18.5 57.5t24 71t31.5 87t38.5 101.5q41 101 152 417q165 461 194 510zM584 883 q-10 47 -35 152.5t-37 162.5q-37 -92 -133 -364q-6 -18 -28 -77t-32 -91q234 -12 320 -4q-36 134 -55 221zM369 1481q-60 3 -83 41t0 75t76 37q38 0 59 -24t21 -60q0 -28 -23 -48.5t-50 -20.5zM657 1479q-58 2 -74 52q-14 44 12 78q23 30 62 23q43 -7 57.5 -27.5t14.5 -58.5 q0 -28 -22.5 -47.5t-49.5 -19.5z" />
<glyph unicode="&#xc5;" horiz-adv-x="1077" d="M479 1376q17 26 47.5 23.5t42.5 -31.5q6 -18 20.5 -74.5t26 -104t11.5 -48.5q6 -27 25.5 -106.5t29.5 -131.5q28 -143 129 -459q3 -8 13.5 -39.5t15.5 -48.5q45 -137 55 -166q32 -94 45 -118q15 -31 -0.5 -54t-43.5 -22.5t-42 27.5q-21 39 -51 135q-9 29 -29 84.5 t-29 83.5q-2 8 -28 88q-41 127 -49 151q-111 -16 -383 2q-30 -74 -60 -155q-42 -109 -74.5 -204.5t-44.5 -135.5l-12 -41q-7 -28 -33.5 -34.5t-48 11t-14.5 47.5l2 10q3 10 8 26.5t12.5 40.5t18.5 57.5t24 71t31.5 87t38.5 101.5q41 101 152 417q165 461 194 510zM584 883 q-10 47 -35 152.5t-37 162.5q-37 -92 -133 -364q-6 -18 -28 -77t-32 -91q234 -12 320 -4q-36 134 -55 221zM498 1458q-54 0 -97 33.5t-47 83.5q-6 65 48.5 123.5t115.5 58.5q36 0 66 -23t41 -55q29 -80 -7.5 -150.5t-119.5 -70.5zM518 1659q-21 -3 -43 -29t-22 -47 q0 -16 17 -22t36 -1.5t26 13.5q10 12 8.5 49t-22.5 37z" />
<glyph unicode="&#xc6;" horiz-adv-x="1351" d="M1165 113q17 1 30 -8.5t17.5 -24t3 -29.5t-12.5 -26.5t-29 -12.5q-1 0 -37.5 -2.5t-94 -6.5t-96.5 -7q-117 -6 -188 -6h-18h-25.5t-28 0.5t-31 2.5t-29 5t-27.5 8.5t-21.5 12.5t-15.5 17t-5 23v3q7 214 -2 352q-6 62 -6 123q-17 0 -57.5 -2.5t-67.5 -2.5q-106 3 -152 -14 q-33 -87 -77 -210t-72.5 -203.5t-28.5 -81.5q-9 -28 -37 -31.5t-47.5 16t-7.5 47.5q0 2 34.5 102t85 240t83.5 226q1 1 36 89t82.5 205.5t73.5 174.5q44 109 74 167.5t70 100.5q14 14 33 15t34 -11q79 12 201 14.5t200.5 0t92.5 -4.5q30 0 41 -25.5t-2 -50t-43 -22.5h-12 q-11 1 -30 1.5t-44.5 1.5t-56 1t-64 0.5t-69 -0.5t-69 -2.5t-66.5 -4.5t-60 -7q9 -46 12 -88q8 -96 8 -291v-185v-69q65 -3 137 0h93q18 0 55 1t57 1q14 2 39 2q29 0 43 -23.5t3 -48.5t-42 -28h-39q-39 -2 -119 -2h-88q-91 -4 -139 0q1 -20 3 -58l3 -57q10 -137 4 -326 q60 -6 105 -6q134 4 180 8q41 2 95 5.5t90.5 7t37.5 4.5zM428 633q33 0 119 4v65v185q0 2 0.5 36t1 71t0 77.5t-3 69.5t-6.5 35q-6 -16 -23 -56.5t-27 -64.5q-124 -293 -174 -426q41 4 113 4z" />
<glyph unicode="&#xc7;" horiz-adv-x="1095" d="M469 -401q-35 0 -48.5 25t0 50t44.5 25q44 0 53 32q7 27 -17 42q-9 6 -22 6q-26 -1 -40.5 22.5t-2.5 46.5q15 39 74 134q-103 14 -195.5 60.5t-154.5 117.5q-122 144 -152 348q-25 173 15 369q23 120 70.5 221t131.5 182t193 111q60 16 125 15.5t113.5 -11t92 -26t64 -26 t25.5 -14.5q27 -21 25.5 -45.5t-27 -39t-50.5 -1.5q-6 6 -51.5 24t-126.5 34t-166 -7q-62 -17 -114 -55.5t-85 -83.5t-59.5 -102t-40 -102t-22.5 -93q-15 -77 -19.5 -153t3 -162t41 -169t90.5 -149q60 -69 150.5 -108t182.5 -42t179.5 36t140.5 116q11 15 27 19.5t29.5 -1.5 t24 -16.5t11 -26t-9.5 -30.5q-22 -34 -68 -77.5t-110 -74.5q-78 -37 -168 -43q-1 -2 -19 -34q-30 -45 -57 -90q54 -25 69.5 -77.5t-16.5 -111.5q-36 -65 -133 -65z" />
<glyph unicode="&#xc8;" horiz-adv-x="966" d="M391 1491q-42 26 -97.5 76t-89.5 84.5t-38 40.5q-23 26 -13.5 53.5t35 32t50.5 -18.5l1 -1q125 -131 205 -183q21 -14 24.5 -34.5t-8 -34.5t-29.5 -21t-40 6zM10 1356q0 35 33 45t55 -17q141 11 234 9q202 -9 377 -9q18 0 30.5 -10.5t15 -25t-0.5 -29t-15.5 -25 t-31.5 -10.5q-107 0 -377 8q-119 5 -224 -8q-11 -265 -4 -412v-1q2 -23 9 -142q287 23 520 14q29 -2 41 -27t-1 -49t-44 -24q-230 10 -512 -14q2 -38 4.5 -92.5t4 -89t1.5 -48.5q0 -30 3 -137t1 -172q317 12 666 0q29 -2 40 -27t-1.5 -49t-42.5 -24q-426 17 -709 -2h-2 q-27 -3 -41.5 14t-11.5 41q6 47 6 101t-3 128t-3 123q-1 31 -6.5 145.5t-11 216.5t-5.5 107q-3 51 -4 119t0.5 130.5t3.5 115.5t4 89.5t2 37.5z" />
<glyph unicode="&#xc9;" horiz-adv-x="958" d="M10 1356q0 35 33 45t55 -17q141 11 234 9q202 -9 377 -9q18 0 30.5 -10.5t15 -25t-0.5 -29t-15.5 -25t-31.5 -10.5q-107 0 -377 8q-119 5 -224 -8q-11 -265 -4 -412v-1q2 -23 9 -142q287 23 520 14q29 -2 41 -27t-1 -49t-44 -24q-230 10 -512 -14q2 -38 4.5 -92.5t4 -89 t1.5 -48.5q0 -30 3 -137t1 -172q317 12 666 0q29 -2 40 -27t-1.5 -49t-42.5 -24q-426 17 -709 -2h-2q-27 -3 -41.5 14t-11.5 41q6 47 6 101t-3 128t-3 123q-1 31 -6.5 145.5t-11 216.5t-5.5 107q-3 51 -4 119t0.5 130.5t3.5 115.5t4 89.5t2 37.5zM451 1493 q-26 -16 -51.5 -1.5t-27 39.5t24.5 46q67 44 207 184q13 15 30 18.5t30 -3.5t21.5 -19t6.5 -29.5t-16 -33.5q-4 -6 -38 -40.5t-89.5 -84.5t-97.5 -76z" />
<glyph unicode="&#xca;" d="M10 1356q0 35 33 45t55 -17q141 11 234 9q202 -9 377 -9q18 0 30.5 -10.5t15 -25t-0.5 -29t-15.5 -25t-31.5 -10.5q-107 0 -377 8q-119 5 -224 -8q-11 -265 -4 -412v-1q2 -23 9 -142q287 23 520 14q29 -2 41 -27t-1 -49t-44 -24q-230 10 -512 -14q2 -38 4.5 -92.5t4 -89 t1.5 -48.5q0 -30 3 -137t1 -172q317 12 666 0q29 -2 40 -27t-1.5 -49t-42.5 -24q-426 17 -709 -2h-2q-27 -3 -41.5 14t-11.5 41q6 47 6 101t-3 128t-3 123q-1 31 -6.5 145.5t-11 216.5t-5.5 107q-3 51 -4 119t0.5 130.5t3.5 115.5t4 89.5t2 37.5zM223 1509q1 2 18.5 46 t42 100.5t40.5 85.5q13 20 35.5 23t39.5 -11l7 -6q7 -6 17 -15t24 -22.5t28 -28t30 -33.5t29.5 -37.5t25.5 -40.5t20 -42q9 -30 -10 -50t-46.5 -16.5t-38.5 31.5q-23 62 -102 141q-24 -51 -66 -159q-13 -30 -39.5 -32.5t-45 18t-9.5 48.5z" />
<glyph unicode="&#xcb;" horiz-adv-x="964" d="M10 1356q0 35 33 45t55 -17q141 11 234 9q202 -9 377 -9q18 0 30.5 -10.5t15 -25t-0.5 -29t-15.5 -25t-31.5 -10.5q-107 0 -377 8q-119 5 -224 -8q-11 -265 -4 -412v-1q2 -23 9 -142q287 23 520 14q29 -2 41 -27t-1 -49t-44 -24q-230 10 -512 -14q2 -38 4.5 -92.5t4 -89 t1.5 -48.5q0 -30 3 -137t1 -172q317 12 666 0q29 -2 40 -27t-1.5 -49t-42.5 -24q-426 17 -709 -2h-2q-27 -3 -41.5 14t-11.5 41q6 47 6 101t-3 128t-3 123q-1 31 -6.5 145.5t-11 216.5t-5.5 107q-3 51 -4 119t0.5 130.5t3.5 115.5t4 89.5t2 37.5zM268 1481q-60 3 -82.5 41 t0.5 75t76 37q38 0 59 -24t21 -60q0 -28 -23.5 -48.5t-50.5 -20.5zM557 1479q-58 2 -74 52q-14 44 12 78q23 30 62 23q43 -7 57.5 -27.5t14.5 -58.5q0 -28 -22.5 -47.5t-49.5 -19.5z" />
<glyph unicode="&#xcc;" horiz-adv-x="475" d="M221 1491q-42 26 -97.5 76t-89.5 84.5t-38 40.5q-23 26 -13.5 53.5t35 32t50.5 -18.5l1 -1q125 -131 205 -183q21 -14 24.5 -34.5t-8 -34.5t-29.5 -21t-40 6zM299 981q-1 -100 -13.5 -400t-6.5 -456q1 -14 2 -40.5t2 -39.5q3 -34 -22 -47.5t-51 -1t-26 42.5q-4 58 -4 82 q-6 85 -4 219.5t5.5 217.5t9.5 216t8 215q1 24 1 51v53.5t-0.5 54t-1 52t-1.5 47.5t-1.5 41.5t-1 32t-0.5 21.5l-1 8q-4 32 20 46.5t50 4t28 -40.5l1 -27q1 -27 3 -65.5t3 -90t1.5 -100.5t-0.5 -96z" />
<glyph unicode="&#xcd;" horiz-adv-x="321" d="M121 981q-1 -103 -14 -402t-7 -454q1 -13 2 -40t2 -40q3 -34 -21.5 -47.5t-50.5 -1t-26 42.5q-4 58 -4 82q-6 84 -4 219.5t5 217.5t9 216t8 215q1 24 1 51v53.5t-0.5 54t-1 52t-1.5 47.5t-1.5 41.5t-1 32t-1.5 21.5v8q-4 32 20 46.5t50.5 4t28.5 -40.5l1 -27 q1 -27 3 -65.5t3 -90t1.5 -100.5t-0.5 -96zM113 1493q-26 -16 -51.5 -1.5t-27 39.5t24.5 46q67 44 207 184q13 15 30 18.5t30 -3.5t21.5 -19t6.5 -29.5t-16 -33.5q-4 -6 -38 -40.5t-89.5 -84.5t-97.5 -76z" />
<glyph unicode="&#xce;" horiz-adv-x="413" d="M238 981q-1 -103 -14 -402t-7 -454q1 -13 2 -39.5t2 -40.5q3 -34 -21.5 -47.5t-50.5 -1t-26 42.5q-4 58 -4 82q-6 84 -4 219.5t5 217.5t9 216t8 215q1 24 1 51v53.5t-0.5 54t-1 52t-1.5 47.5t-1.5 41.5t-1 32t-0.5 21.5l-1 8q-4 32 20 46.5t50 4t28 -40.5q0 -1 1.5 -27.5 t3 -65t3 -90t2 -100.5t-0.5 -96zM4 1509q1 2 18.5 46t41.5 100.5t40 85.5q13 20 36 23t40 -11l7 -6q7 -6 16.5 -15t23.5 -22.5t28.5 -28t30 -33.5t29 -37.5t25.5 -40.5t20 -42q9 -30 -10 -50t-46 -16.5t-38 31.5q-23 62 -102 141q-24 -51 -66 -159q-13 -30 -39.5 -32.5 t-45 18t-9.5 48.5z" />
<glyph unicode="&#xcf;" horiz-adv-x="440" d="M272 981q-1 -100 -13.5 -400t-6.5 -456q1 -14 2 -40.5t2 -39.5q3 -34 -21.5 -47.5t-50.5 -1t-26 42.5q-4 58 -4 82q-6 84 -4 219.5t5 217.5t9 216t8 215q1 24 1 51v53.5t-0.5 54t-1 52t-1.5 47.5t-1.5 41.5t-1 32t-1.5 21.5v8q-4 32 20 46.5t50 4t28 -40.5l1 -27 q1 -27 3 -65.5t3 -90t1.5 -100.5t-0.5 -96zM74 1481q-60 3 -82.5 41t0.5 75t76 37q38 0 58.5 -24t20.5 -60q0 -28 -23 -48.5t-50 -20.5zM362 1479q-58 2 -74 52q-14 44 12 78q23 30 62 23q43 -7 57.5 -27.5t14.5 -58.5q0 -28 -22.5 -47.5t-49.5 -19.5z" />
<glyph unicode="&#xd0;" horiz-adv-x="1216" d="M1106 805q12 -150 -25 -381q-8 -61 -15 -97.5t-26.5 -87.5t-50.5 -89q-99 -126 -291 -175q-109 -28 -219 -28q-26 0 -80 4q-21 2 -58.5 5.5t-59.5 6.5q-30 2 -49 18t-15 46q10 42 2 141q-6 61 -10 182q-9 137 -12 281q-88 7 -134 -6q-4 -2 -14 -2q-24 0 -38.5 20 t-8.5 43.5t31 32.5q61 20 160 12q0 119 2 176q1 13 2 41t2 41q11 216 -11 338q-6 27 17 47t49 8q106 18 198.5 12.5t157 -17.5t116 -33.5t75.5 -35.5t35 -24q89 -56 155 -141q100 -132 115 -338zM983 438q12 73 18.5 127t9.5 131t-5.5 138t-32 128.5t-62.5 120.5 q-54 70 -131 119q-4 2 -8 6q-3 3 -13.5 10t-38.5 21t-61 25q-152 48 -364 24q13 -112 2 -303q0 -13 -1 -40.5t-1 -41.5q-2 -57 -2 -176q13 1 38 2t36 2q108 6 176 -2q28 -4 36.5 -30.5t-6.5 -49.5t-45 -18q-67 7 -155 2q-46 -4 -78 -4q0 -10 12 -275q4 -120 10 -178 q7 -71 5 -119q70 -8 84 -8q153 -9 268 23q158 39 239 139q32 41 46.5 94.5t23.5 132.5z" />
<glyph unicode="&#xd1;" horiz-adv-x="954" d="M678 1368q0 34 25 47t49.5 -1.5t23.5 -47.5q0 -24 -0.5 -79.5t0 -87t1 -77.5t3 -86.5t6.5 -79.5q31 -407 31 -561q0 -45 8.5 -140t8.5 -149q0 -45 -7 -73q-8 -31 -35 -39.5t-48 10t-13 51.5q6 26 -6 242q-6 64 -6 96q0 91 -6 182q-29 45 -103 137t-98 124 q-136 183 -208 274.5t-118 134.5q-4 -56 -9 -138.5t-7.5 -140t-3.5 -63.5q0 -135 -16 -338q-10 -166 -11 -196q-4 -85 -13.5 -164.5t-15.5 -115.5t-8 -42q-6 -33 -32.5 -40t-48.5 12t-15 49q25 123 33 305q8 132 12 200q17 236 17 334q0 12 4 95.5t11.5 192.5t14.5 155 q3 24 25 35.5t47 -1.5q7 -3 22 -13.5t55.5 -47t86.5 -86.5t116 -141.5t144 -202.5q97 -119 108 -133q-12 128 -16 188q-8 122 -8 420zM571 1458q-34 1 -63 12t-54 34.5t-39 40t-36 46.5q-24 29 -36 41.5t-28 22.5t-32 8q-68 -6 -68 -125q-1 -35 -26 -49.5t-49 -0.5t-23 48 q4 89 26 135q42 83 129 92q42 4 80.5 -15.5t57 -39t47.5 -55.5q4 -5 18 -22t21 -25t19 -19.5t24.5 -18t25.5 -9.5q15 -4 35.5 10t32.5 35q18 35 6 102q-6 34 16 53t48 10.5t32 -40.5q19 -113 -16 -175q-23 -40 -64 -68t-84 -28z" />
<glyph unicode="&#xd2;" horiz-adv-x="1064" d="M463 1491q-42 26 -97.5 76t-89.5 84.5t-38 40.5q-14 16 -16 33.5t6.5 29.5t21 19t29.5 3.5t30 -18.5q140 -140 207 -184q21 -14 24.5 -34.5t-8 -34.5t-29.5 -21t-40 6zM127 471q15 -59 28 -100t34 -91.5t45 -84.5t59 -63.5t78 -43.5q85 -29 175.5 -10t141.5 76 q158 177 168 450q2 47 8 133.5t6 134.5q0 72 -12 139t-38.5 130t-75 111.5t-113.5 72.5q-78 28 -179.5 19.5t-170.5 -46.5q-81 -50 -123 -202q-99 -347 -31 -625zM971 872q0 -52 -7.5 -141.5t-7.5 -130.5q-16 -311 -194 -512q-51 -57 -128 -87t-151 -28.5t-143 21.5 q-137 45 -219 194q-43 82 -90 258q-77 307 30 676q12 38 23.5 68.5t31.5 69t49.5 70t65.5 52.5q88 52 215.5 61.5t217.5 -24.5q82 -30 144 -89.5t96 -135.5t50.5 -156.5t16.5 -165.5z" />
<glyph unicode="&#xd3;" horiz-adv-x="1056" d="M510 1493q-26 -16 -51 -1.5t-26.5 39.5t24.5 46q67 44 207 184q13 15 30 18.5t29.5 -3.5t21 -19t6.5 -29.5t-16 -33.5q-4 -6 -38 -40.5t-89.5 -84.5t-97.5 -76zM127 471q15 -59 28 -100t34 -91.5t45 -84.5t59 -63.5t78 -43.5q85 -29 175.5 -10t141.5 76q158 177 168 450 q2 47 8 133.5t6 134.5q0 72 -12 139t-38.5 130t-75 111.5t-113.5 72.5q-78 28 -179.5 19.5t-170.5 -46.5q-81 -50 -123 -202q-99 -347 -31 -625zM971 872q0 -52 -7.5 -141.5t-7.5 -130.5q-16 -311 -194 -512q-51 -57 -128 -87t-151 -28.5t-143 21.5q-137 45 -219 194 q-43 82 -90 258q-77 307 30 676q12 38 23.5 68.5t31.5 69t49.5 70t65.5 52.5q88 52 215.5 61.5t217.5 -24.5q82 -30 144 -89.5t96 -135.5t50.5 -156.5t16.5 -165.5z" />
<glyph unicode="&#xd4;" horiz-adv-x="1067" d="M127 471q15 -59 28 -100t34 -91.5t45 -84.5t59 -63.5t78 -43.5q85 -29 175.5 -10t141.5 76q158 177 168 450q2 47 8 133.5t6 134.5q0 72 -12 139t-38.5 130t-75 111.5t-113.5 72.5q-78 28 -179.5 19.5t-170.5 -46.5q-81 -50 -123 -202q-99 -347 -31 -625zM971 872 q0 -52 -7.5 -141.5t-7.5 -130.5q-16 -311 -194 -512q-51 -57 -128 -87t-151 -28.5t-143 21.5q-137 45 -219 194q-43 82 -90 258q-77 307 30 676q12 38 23.5 68.5t31.5 69t49.5 70t65.5 52.5q88 52 215.5 61.5t217.5 -24.5q82 -30 144 -89.5t96 -135.5t50.5 -156.5 t16.5 -165.5zM324 1509q1 2 18.5 46t41.5 100.5t40 85.5q13 20 36 23t40 -11l7 -6q7 -6 16.5 -15t23.5 -22.5t28.5 -28t30 -33.5t29 -37.5t25.5 -40.5t20 -42q9 -30 -10 -50t-46 -16.5t-38 31.5q-22 60 -103 141q-19 -40 -65 -159q-13 -30 -39.5 -32.5t-45 18t-9.5 48.5z " />
<glyph unicode="&#xd5;" horiz-adv-x="1067" d="M127 471q15 -59 28 -100t34 -91.5t45 -84.5t59 -63.5t78 -43.5q85 -29 175.5 -10t141.5 76q158 177 168 450q2 47 8 133.5t6 134.5q0 72 -12 139t-38.5 130t-75 111.5t-113.5 72.5q-78 28 -179.5 19.5t-170.5 -46.5q-81 -50 -123 -202q-99 -347 -31 -625zM971 872 q0 -52 -7.5 -141.5t-7.5 -130.5q-16 -311 -194 -512q-51 -57 -128 -87t-151 -28.5t-143 21.5q-137 45 -219 194q-43 82 -90 258q-77 307 30 676q12 38 23.5 68.5t31.5 69t49.5 70t65.5 52.5q88 52 215.5 61.5t217.5 -24.5q82 -30 144 -89.5t96 -135.5t50.5 -156.5 t16.5 -165.5zM649 1456q-34 1 -63 12t-54 34.5t-39 40t-36 46.5q-35 42 -54.5 58.5t-42.5 13.5q-67 -6 -67 -125q-1 -35 -26 -49.5t-49 -0.5t-23 48q4 89 26 135q42 83 129 92q42 4 80.5 -15.5t57 -39t47.5 -55.5q5 -6 18 -22.5t20.5 -24.5t19.5 -20t24.5 -18.5t25.5 -9.5 q14 -4 34.5 10.5t33.5 35.5q18 35 6 102q-6 34 16 52.5t48 10t32 -40.5q19 -113 -16 -174q-23 -40 -64 -68t-84 -28z" />
<glyph unicode="&#xd6;" horiz-adv-x="1075" d="M127 471q15 -59 28 -100t34 -91.5t45 -84.5t59 -63.5t78 -43.5q85 -29 175.5 -10t141.5 76q158 177 168 450q2 47 8 133.5t6 134.5q0 72 -12 139t-38.5 130t-75 111.5t-113.5 72.5q-78 28 -179.5 19.5t-170.5 -46.5q-81 -50 -123 -202q-99 -347 -31 -625zM971 872 q0 -52 -7.5 -141.5t-7.5 -130.5q-16 -311 -194 -512q-51 -57 -128 -87t-151 -28.5t-143 21.5q-137 45 -219 194q-43 82 -90 258q-77 307 30 676q12 38 23.5 68.5t31.5 69t49.5 70t65.5 52.5q88 52 215.5 61.5t217.5 -24.5q82 -30 144 -89.5t96 -135.5t50.5 -156.5 t16.5 -165.5zM369 1481q-60 3 -83 41t0 75t76 37q38 0 59 -24t21 -60q0 -28 -23 -48.5t-50 -20.5zM657 1479q-58 2 -74 52q-14 44 12 78q23 30 62 23q43 -7 57.5 -27.5t14.5 -58.5q0 -28 -22.5 -47.5t-49.5 -19.5z" />
<glyph unicode="&#xd7;" horiz-adv-x="587" d="M485 524q23 -10 28.5 -33t-8.5 -42t-40 -19q-13 0 -19 4q-47 19 -108 72t-102 98q-95 -102 -132 -153q-18 -23 -46 -18t-38.5 27.5t5.5 49.5q43 58 133 158q-6 5 -22.5 14.5t-24.5 17.5q-26 18 -101 93q-19 21 -10 48.5t32.5 34.5t47.5 -14q83 -77 88 -80q6 -3 57 -43 q76 82 121 127q20 20 47 11.5t35 -32t-10 -48.5q-6 0 -115 -121q21 -27 82.5 -81t99.5 -71z" />
<glyph unicode="&#xd8;" horiz-adv-x="1081" d="M918 1167q31 -71 42.5 -159.5t10 -148.5t-9.5 -163q-1 -15 -3.5 -47t-3.5 -47q-3 -106 -41 -240q-41 -145 -151 -270q-50 -56 -125 -86.5t-162 -30.5q-66 0 -137 23q-11 3 -41 16q-1 -2 -6 -23t-6 -30q-3 -22 -15 -35.5t-27 -14t-29 5t-21.5 21.5t-4.5 37q11 59 23 97 q-49 46 -90 121q-43 82 -90 258q-75 307 30 675q55 195 170 260q54 32 114.5 43t146.5 15q69 0 108 -6q18 58 18 59q9 34 37.5 40.5t48.5 -15t11 -56.5q0 -1 -2.5 -7.5t-7.5 -20.5t-9 -29q73 -34 131 -96.5t91 -145.5zM127 475q50 -202 117 -291q4 13 102 338 q117 369 170 611q3 16 55 208q-22 5 -75 5q-150 -8 -215 -46q-79 -44 -125 -202q-96 -354 -29 -623zM862 702q7 96 8.5 150.5t-8 135t-35.5 142.5q-55 130 -159 183q-40 -124 -56 -201q-50 -234 -172 -618q-91 -303 -108 -367q-4 -8 -4 -16q17 -11 43 -21q50 -16 104 -16 q64 0 120.5 22.5t92.5 61.5q102 117 129 229q36 129 39 221q1 16 3 47t3 47z" />
<glyph unicode="&#xd9;" horiz-adv-x="1099" d="M463 1491q-42 26 -97.5 76t-89.5 84.5t-38 40.5q-14 16 -16 33.5t6.5 29.5t21 19t29.5 3.5t30 -18.5q140 -140 207 -184q21 -14 24.5 -34.5t-8 -34.5t-29.5 -21t-40 6zM936 766q0 -307 -84 -506q-32 -76 -97 -136t-145 -90.5t-170.5 -36t-171.5 27.5q-66 25 -113.5 69.5 t-74.5 102.5t-40.5 111t-21.5 118t-10 131.5t0 164.5t2 126q4 300 35 483q6 35 32.5 44.5t49 -8.5t16.5 -50q-29 -158 -34 -469q0 -50 -0.5 -128.5t-0.5 -114t2 -82.5t7 -85q7 -55 17.5 -98.5t31 -90t55 -80.5t82.5 -52q63 -25 134 -20.5t134.5 28.5t115 70t75.5 104 q34 82 52 177t20 213t-1 195t-12 216q-6 129 -24 241q-3 22 5 37.5t22 20.5t29.5 3t27.5 -14.5t14 -31.5q41 -302 41 -590z" />
<glyph unicode="&#xda;" horiz-adv-x="1120" d="M500 1493q-26 -16 -51.5 -1.5t-27 39.5t24.5 46q67 44 207 184q13 15 30 18.5t30 -3.5t21.5 -19t6.5 -29.5t-16 -33.5q-4 -6 -38 -40.5t-89.5 -84.5t-97.5 -76zM936 766q0 -307 -84 -506q-32 -76 -97 -136t-145 -90.5t-170.5 -36t-171.5 27.5q-66 25 -113.5 69.5 t-74.5 102.5t-40.5 111t-21.5 118t-10 131.5t0 164.5t2 126q4 300 35 483q6 35 32.5 44.5t49 -8.5t16.5 -50q-29 -158 -34 -469q0 -50 -0.5 -128.5t-0.5 -114t2 -82.5t7 -85q7 -55 17.5 -98.5t31 -90t55 -80.5t82.5 -52q63 -25 134 -20.5t134.5 28.5t115 70t75.5 104 q34 82 52 177t20 213t-1 195t-12 216q-6 129 -24 241q-3 22 5 37.5t22 20.5t29.5 3t27.5 -14.5t14 -31.5q41 -302 41 -590z" />
<glyph unicode="&#xdb;" horiz-adv-x="1110" d="M936 766q0 -307 -84 -506q-32 -76 -97 -136t-145 -90.5t-170.5 -36t-171.5 27.5q-66 25 -113.5 69.5t-74.5 102.5t-40.5 111t-21.5 118t-10 131.5t0 164.5t2 126q4 300 35 483q6 35 32.5 44.5t49 -8.5t16.5 -50q-29 -158 -34 -469q0 -50 -0.5 -128.5t-0.5 -114t2 -82.5 t7 -85q7 -55 17.5 -98.5t31 -90t55 -80.5t82.5 -52q63 -25 134 -20.5t134.5 28.5t115 70t75.5 104q34 82 52 177t20 213t-1 195t-12 216q-6 129 -24 241q-3 22 5 37.5t22 20.5t29.5 3t27.5 -14.5t14 -31.5q41 -302 41 -590zM295 1509q1 2 18.5 46t41.5 100.5t40 85.5 q13 20 36 23t40 -11l7 -6q7 -6 16.5 -15t23.5 -22.5t28.5 -28t30 -33.5t29 -37.5t25.5 -40.5t20 -42q9 -30 -10 -50t-46 -16.5t-38 31.5q-23 62 -102 141q-24 -51 -66 -159q-13 -30 -39.5 -32.5t-45 18t-9.5 48.5z" />
<glyph unicode="&#xdc;" horiz-adv-x="1116" d="M936 766q0 -307 -84 -506q-32 -76 -97 -136t-145 -90.5t-170.5 -36t-171.5 27.5q-66 25 -113.5 69.5t-74.5 102.5t-40.5 111t-21.5 118t-10 131.5t0 164.5t2 126q4 300 35 483q6 35 32.5 44.5t49 -8.5t16.5 -50q-29 -158 -34 -469q0 -50 -0.5 -128.5t-0.5 -114t2 -82.5 t7 -85q7 -55 17.5 -98.5t31 -90t55 -80.5t82.5 -52q63 -25 134 -20.5t134.5 28.5t115 70t75.5 104q34 82 52 177t20 213t-1 195t-12 216q-6 129 -24 241q-3 22 5 37.5t22 20.5t29.5 3t27.5 -14.5t14 -31.5q41 -302 41 -590zM348 1481q-60 3 -82.5 41t0.5 75t76 37 q38 0 59 -24t21 -60q0 -28 -23.5 -48.5t-50.5 -20.5zM637 1479q-58 2 -74 52q-14 44 12 78q23 30 62 23q43 -7 57.5 -27.5t14.5 -58.5q0 -28 -22.5 -47.5t-49.5 -19.5z" />
<glyph unicode="&#xdd;" horiz-adv-x="1099" d="M500 1493q-26 -16 -51.5 -1.5t-27 39.5t24.5 46q67 44 207 184q13 15 30 18.5t30 -3.5t21.5 -19t6.5 -29.5t-16 -33.5q-4 -6 -38 -40.5t-89.5 -84.5t-97.5 -76zM872 1436q13 22 34.5 27.5t37 -4.5t23.5 -28.5t-6 -44.5q0 -1 -17 -30t-55.5 -93.5t-73.5 -123.5 q-40 -69 -86 -142.5t-72 -113t-28 -41.5q0 -2 -2 -4q-67 -83 -92 -156q0 -246 -5 -348v-51t0.5 -53.5t1 -53t1 -48t1 -39t0.5 -26.5l1 -10q2 -34 -23 -49.5t-50.5 -2.5t-25.5 48q0 1 -1 21t-2 50.5t-1.5 66.5t-0.5 77t1 74q3 75 3.5 185.5t-1.5 156.5q-25 59 -166.5 280 t-261.5 392q-20 29 -7 54.5t40 26t49 -25.5q43 -60 182.5 -272.5t210.5 -333.5q31 53 68 98q1 1 21 32t42 66.5t55.5 89t61.5 101.5z" />
<glyph unicode="&#xdf;" horiz-adv-x="1046" d="M170 1409q106 63 279 29q42 -9 81.5 -22t82.5 -35.5t74.5 -50.5t52 -68.5t20.5 -87.5q0 -161 -156 -269q86 -14 161.5 -91.5t114 -180.5t27.5 -193q-15 -149 -94 -266q-91 -132 -229 -176q-31 -10 -72 -12t-150 -2q-76 -7 -147 4q-18 2 -29 14t-12 27t3.5 29t18.5 22.5 t33 5.5q51 -7 129 -4q36 3 65 0.5t66.5 -1t65.5 10.5q113 37 177.5 140.5t76.5 218.5q9 89 -51 206q-30 54 -66 92t-71 50q-82 30 -218 16q-29 -4 -176 -39q-17 -4 -31.5 3t-21 20.5t-7.5 28.5t8.5 27.5t27.5 16.5q108 29 188 39q18 6 41.5 14.5t67.5 32t77 51.5t59 72 t26 93q-3 37 -25.5 66.5t-59.5 48.5t-72.5 30.5t-76.5 19.5q-137 27 -209 -16q-26 -15 -45 -37.5t-31 -53.5t-19.5 -59t-11 -68.5t-4.5 -67t-2 -68.5v-287q4 -243 -4 -338q-2 -24 -3.5 -53t-1.5 -58v-58.5t1 -57t2 -53t2 -46t2 -36t2 -24.5v-9q2 -21 -12.5 -37t-38.5 -16 q-19 0 -33.5 12.5t-15.5 32.5q0 1 -2 30.5t-3.5 73.5t-2.5 96t0.5 110t5.5 103q8 106 4 326v291q1 49 2 78.5t6 79t15.5 84t27.5 74t45 70t66 52.5z" />
<glyph unicode="&#xe0;" horiz-adv-x="1071" d="M463 1491q-42 26 -97.5 76t-89.5 84.5t-38 40.5q-14 16 -16 33.5t6.5 29.5t21 19t29.5 3.5t30 -18.5q140 -140 207 -184q21 -14 24.5 -34.5t-8 -34.5t-29.5 -21t-40 6zM479 1376q17 26 47.5 23.5t42.5 -31.5q6 -18 20.5 -74.5t26 -104t11.5 -48.5q6 -27 25.5 -106.5 t29.5 -131.5q28 -143 129 -459q3 -8 13.5 -39.5t15.5 -48.5q45 -137 55 -166q32 -94 45 -118q15 -31 -0.5 -54t-43.5 -22.5t-42 27.5q-21 39 -51 135q-9 29 -29 84.5t-29 83.5q-2 8 -28 88q-41 127 -49 151q-111 -16 -383 2q-30 -74 -60 -155q-42 -109 -74.5 -204.5 t-44.5 -135.5l-12 -41q-7 -28 -33.5 -34.5t-48 11t-14.5 47.5l2 10q3 10 8 26.5t12.5 40.5t18.5 57.5t24 71t31.5 87t38.5 101.5q41 101 152 417q165 461 194 510zM584 883q-10 47 -35 152.5t-37 162.5q-37 -92 -133 -364q-6 -18 -28 -77t-32 -91q234 -12 320 -4 q-36 134 -55 221z" />
<glyph unicode="&#xe1;" horiz-adv-x="1050" d="M479 1376q17 26 47.5 23.5t42.5 -31.5q6 -18 20.5 -74.5t26 -104t11.5 -48.5q6 -27 25.5 -106.5t29.5 -131.5q28 -143 129 -459q3 -8 13.5 -39.5t15.5 -48.5q45 -137 55 -166q32 -94 45 -118q15 -31 -0.5 -54t-43.5 -22.5t-42 27.5q-21 39 -51 135q-9 29 -29 84.5 t-29 83.5q-2 8 -28 88q-41 127 -49 151q-111 -16 -383 2q-30 -74 -60 -155q-42 -109 -74.5 -204.5t-44.5 -135.5l-12 -41q-7 -28 -33.5 -34.5t-48 11t-14.5 47.5l2 10q3 10 8 26.5t12.5 40.5t18.5 57.5t24 71t31.5 87t38.5 101.5q41 101 152 417q165 461 194 510zM584 883 q-10 47 -35 152.5t-37 162.5q-37 -92 -133 -364q-6 -18 -28 -77t-32 -91q234 -12 320 -4q-36 134 -55 221zM600 1493q-26 -16 -51 -1.5t-26.5 39.5t24.5 46q67 44 207 184q13 15 30 18.5t29.5 -3.5t21 -19t6.5 -29.5t-16 -33.5q-4 -6 -38 -40.5t-89.5 -84.5t-97.5 -76z" />
<glyph unicode="&#xe2;" horiz-adv-x="1058" d="M479 1376q17 26 47.5 23.5t42.5 -31.5q6 -18 20.5 -74.5t26 -104t11.5 -48.5q6 -27 25.5 -106.5t29.5 -131.5q28 -143 129 -459q3 -8 13.5 -39.5t15.5 -48.5q45 -137 55 -166q32 -94 45 -118q15 -31 -0.5 -54t-43.5 -22.5t-42 27.5q-21 39 -51 135q-9 29 -29 84.5 t-29 83.5q-2 8 -28 88q-41 127 -49 151q-111 -16 -383 2q-30 -74 -60 -155q-42 -109 -74.5 -204.5t-44.5 -135.5l-12 -41q-7 -28 -33.5 -34.5t-48 11t-14.5 47.5l2 10q3 10 8 26.5t12.5 40.5t18.5 57.5t24 71t31.5 87t38.5 101.5q41 101 152 417q165 461 194 510zM584 883 q-10 47 -35 152.5t-37 162.5q-37 -92 -133 -364q-6 -18 -28 -77t-32 -91q234 -12 320 -4q-36 134 -55 221zM324 1509q1 2 18.5 46t41.5 100.5t40 85.5q13 20 36 23t40 -11l7 -6q7 -6 16.5 -15t23.5 -22.5t28.5 -28t30 -33.5t29 -37.5t25.5 -40.5t20 -42q9 -30 -10 -50 t-46 -16.5t-38 31.5q-22 60 -103 141q-19 -40 -65 -159q-13 -30 -39.5 -32.5t-45 18t-9.5 48.5z" />
<glyph unicode="&#xe3;" horiz-adv-x="1064" d="M479 1376q17 26 47.5 23.5t42.5 -31.5q6 -18 20.5 -74.5t26 -104t11.5 -48.5q6 -27 25.5 -106.5t29.5 -131.5q28 -143 129 -459q3 -8 13.5 -39.5t15.5 -48.5q45 -137 55 -166q32 -94 45 -118q15 -31 -0.5 -54t-43.5 -22.5t-42 27.5q-21 39 -51 135q-9 29 -29 84.5 t-29 83.5q-2 8 -28 88q-41 127 -49 151q-111 -16 -383 2q-30 -74 -60 -155q-42 -109 -74.5 -204.5t-44.5 -135.5l-12 -41q-7 -28 -33.5 -34.5t-48 11t-14.5 47.5l2 10q3 10 8 26.5t12.5 40.5t18.5 57.5t24 71t31.5 87t38.5 101.5q41 101 152 417q165 461 194 510zM584 883 q-10 47 -35 152.5t-37 162.5q-37 -92 -133 -364q-6 -18 -28 -77t-32 -91q234 -12 320 -4q-36 134 -55 221zM680 1456q-34 1 -63.5 12t-54 34t-39.5 40.5t-36 46.5q-24 29 -36 41.5t-28 22.5t-32 8q-67 -6 -67 -125q-1 -35 -26 -49.5t-49.5 -0.5t-23.5 48q4 87 27 135 q42 83 129 92q32 3 59.5 -5.5t52 -29t37.5 -34.5t35 -41l18 -22.5t21 -25t19.5 -19.5t25 -18.5t25.5 -9.5q14 -4 34 10.5t33 35.5q19 36 7 102q-6 34 16 52.5t48 10t32 -40.5q19 -111 -17 -174q-24 -40 -64 -68t-83 -28z" />
<glyph unicode="&#xe4;" horiz-adv-x="1024" d="M479 1376q17 26 47.5 23.5t42.5 -31.5q6 -18 20.5 -74.5t26 -104t11.5 -48.5q6 -27 25.5 -106.5t29.5 -131.5q28 -143 129 -459q3 -8 13.5 -39.5t15.5 -48.5q45 -137 55 -166q32 -94 45 -118q15 -31 -0.5 -54t-43.5 -22.5t-42 27.5q-21 39 -51 135q-9 29 -29 84.5 t-29 83.5q-2 8 -28 88q-41 127 -49 151q-111 -16 -383 2q-30 -74 -60 -155q-42 -109 -74.5 -204.5t-44.5 -135.5l-12 -41q-7 -28 -33.5 -34.5t-48 11t-14.5 47.5l2 10q3 10 8 26.5t12.5 40.5t18.5 57.5t24 71t31.5 87t38.5 101.5q41 101 152 417q165 461 194 510zM584 883 q-10 47 -35 152.5t-37 162.5q-37 -92 -133 -364q-6 -18 -28 -77t-32 -91q234 -12 320 -4q-36 134 -55 221zM369 1481q-60 3 -83 41t0 75t76 37q38 0 59 -24t21 -60q0 -28 -23 -48.5t-50 -20.5zM657 1479q-58 2 -74 52q-14 44 12 78q23 30 62 23q43 -7 57.5 -27.5t14.5 -58.5 q0 -28 -22.5 -47.5t-49.5 -19.5z" />
<glyph unicode="&#xe5;" horiz-adv-x="1077" d="M479 1376q17 26 47.5 23.5t42.5 -31.5q6 -18 20.5 -74.5t26 -104t11.5 -48.5q6 -27 25.5 -106.5t29.5 -131.5q28 -143 129 -459q3 -8 13.5 -39.5t15.5 -48.5q45 -137 55 -166q32 -94 45 -118q15 -31 -0.5 -54t-43.5 -22.5t-42 27.5q-21 39 -51 135q-9 29 -29 84.5 t-29 83.5q-2 8 -28 88q-41 127 -49 151q-111 -16 -383 2q-30 -74 -60 -155q-42 -109 -74.5 -204.5t-44.5 -135.5l-12 -41q-7 -28 -33.5 -34.5t-48 11t-14.5 47.5l2 10q3 10 8 26.5t12.5 40.5t18.5 57.5t24 71t31.5 87t38.5 101.5q41 101 152 417q165 461 194 510zM584 883 q-10 47 -35 152.5t-37 162.5q-37 -92 -133 -364q-6 -18 -28 -77t-32 -91q234 -12 320 -4q-36 134 -55 221zM498 1458q-54 0 -97 33.5t-47 83.5q-6 65 48.5 123.5t115.5 58.5q36 0 66 -23t41 -55q29 -80 -7.5 -150.5t-119.5 -70.5zM518 1659q-21 -3 -43 -29t-22 -47 q0 -16 17 -22t36 -1.5t26 13.5q10 12 8.5 49t-22.5 37z" />
<glyph unicode="&#xe6;" horiz-adv-x="1351" d="M1165 113q17 1 30 -8.5t17.5 -24t3 -29.5t-12.5 -26.5t-29 -12.5q-1 0 -37.5 -2.5t-94 -6.5t-96.5 -7q-117 -6 -188 -6h-18h-25.5t-28 0.5t-31 2.5t-29 5t-27.5 8.5t-21.5 12.5t-15.5 17t-5 23v3q7 214 -2 352q-6 62 -6 123q-17 0 -57.5 -2.5t-67.5 -2.5q-106 3 -152 -14 q-33 -87 -77 -210t-72.5 -203.5t-28.5 -81.5q-9 -28 -37 -31.5t-47.5 16t-7.5 47.5q0 2 34.5 102t85 240t83.5 226q1 1 36 89t82.5 205.5t73.5 174.5q44 109 74 167.5t70 100.5q14 14 33 15t34 -11q79 12 201 14.5t200.5 0t92.5 -4.5q30 0 41 -25.5t-2 -50t-43 -22.5h-12 q-11 1 -30 1.5t-44.5 1.5t-56 1t-64 0.5t-69 -0.5t-69 -2.5t-66.5 -4.5t-60 -7q9 -46 12 -88q8 -96 8 -291v-185v-69q65 -3 137 0h93q18 0 55 1t57 1q14 2 39 2q29 0 43 -23.5t3 -48.5t-42 -28h-39q-39 -2 -119 -2h-88q-91 -4 -139 0q1 -20 3 -58l3 -57q10 -137 4 -326 q60 -6 105 -6q134 4 180 8q41 2 95 5.5t90.5 7t37.5 4.5zM428 633q33 0 119 4v65v185q0 2 0.5 36t1 71t0 77.5t-3 69.5t-6.5 35q-6 -16 -23 -56.5t-27 -64.5q-124 -293 -174 -426q41 4 113 4z" />
<glyph unicode="&#xe7;" horiz-adv-x="1095" d="M469 -401q-35 0 -48.5 25t0 50t44.5 25q44 0 53 32q7 27 -17 42q-9 6 -22 6q-26 -1 -40.5 22.5t-2.5 46.5q15 39 74 134q-103 14 -195.5 60.5t-154.5 117.5q-122 144 -152 348q-25 173 15 369q23 120 70.5 221t131.5 182t193 111q60 16 125 15.5t113.5 -11t92 -26t64 -26 t25.5 -14.5q27 -21 25.5 -45.5t-27 -39t-50.5 -1.5q-6 6 -51.5 24t-126.5 34t-166 -7q-62 -17 -114 -55.5t-85 -83.5t-59.5 -102t-40 -102t-22.5 -93q-15 -77 -19.5 -153t3 -162t41 -169t90.5 -149q60 -69 150.5 -108t182.5 -42t179.5 36t140.5 116q11 15 27 19.5t29.5 -1.5 t24 -16.5t11 -26t-9.5 -30.5q-22 -34 -68 -77.5t-110 -74.5q-78 -37 -168 -43q-1 -2 -19 -34q-30 -45 -57 -90q54 -25 69.5 -77.5t-16.5 -111.5q-36 -65 -133 -65z" />
<glyph unicode="&#xe8;" horiz-adv-x="966" d="M391 1491q-42 26 -97.5 76t-89.5 84.5t-38 40.5q-23 26 -13.5 53.5t35 32t50.5 -18.5l1 -1q125 -131 205 -183q21 -14 24.5 -34.5t-8 -34.5t-29.5 -21t-40 6zM10 1356q0 35 33 45t55 -17q141 11 234 9q202 -9 377 -9q18 0 30.5 -10.5t15 -25t-0.5 -29t-15.5 -25 t-31.5 -10.5q-107 0 -377 8q-119 5 -224 -8q-11 -265 -4 -412v-1q2 -23 9 -142q287 23 520 14q29 -2 41 -27t-1 -49t-44 -24q-230 10 -512 -14q2 -38 4.5 -92.5t4 -89t1.5 -48.5q0 -30 3 -137t1 -172q317 12 666 0q29 -2 40 -27t-1.5 -49t-42.5 -24q-426 17 -709 -2h-2 q-27 -3 -41.5 14t-11.5 41q6 47 6 101t-3 128t-3 123q-1 31 -6.5 145.5t-11 216.5t-5.5 107q-3 51 -4 119t0.5 130.5t3.5 115.5t4 89.5t2 37.5z" />
<glyph unicode="&#xe9;" horiz-adv-x="958" d="M10 1356q0 35 33 45t55 -17q141 11 234 9q202 -9 377 -9q18 0 30.5 -10.5t15 -25t-0.5 -29t-15.5 -25t-31.5 -10.5q-107 0 -377 8q-119 5 -224 -8q-11 -265 -4 -412v-1q2 -23 9 -142q287 23 520 14q29 -2 41 -27t-1 -49t-44 -24q-230 10 -512 -14q2 -38 4.5 -92.5t4 -89 t1.5 -48.5q0 -30 3 -137t1 -172q317 12 666 0q29 -2 40 -27t-1.5 -49t-42.5 -24q-426 17 -709 -2h-2q-27 -3 -41.5 14t-11.5 41q6 47 6 101t-3 128t-3 123q-1 31 -6.5 145.5t-11 216.5t-5.5 107q-3 51 -4 119t0.5 130.5t3.5 115.5t4 89.5t2 37.5zM451 1493 q-26 -16 -51.5 -1.5t-27 39.5t24.5 46q67 44 207 184q13 15 30 18.5t30 -3.5t21.5 -19t6.5 -29.5t-16 -33.5q-4 -6 -38 -40.5t-89.5 -84.5t-97.5 -76z" />
<glyph unicode="&#xea;" d="M10 1356q0 35 33 45t55 -17q141 11 234 9q202 -9 377 -9q18 0 30.5 -10.5t15 -25t-0.5 -29t-15.5 -25t-31.5 -10.5q-107 0 -377 8q-119 5 -224 -8q-11 -265 -4 -412v-1q2 -23 9 -142q287 23 520 14q29 -2 41 -27t-1 -49t-44 -24q-230 10 -512 -14q2 -38 4.5 -92.5t4 -89 t1.5 -48.5q0 -30 3 -137t1 -172q317 12 666 0q29 -2 40 -27t-1.5 -49t-42.5 -24q-426 17 -709 -2h-2q-27 -3 -41.5 14t-11.5 41q6 47 6 101t-3 128t-3 123q-1 31 -6.5 145.5t-11 216.5t-5.5 107q-3 51 -4 119t0.5 130.5t3.5 115.5t4 89.5t2 37.5zM223 1509q1 2 18.5 46 t42 100.5t40.5 85.5q13 20 35.5 23t39.5 -11l7 -6q7 -6 17 -15t24 -22.5t28 -28t30 -33.5t29.5 -37.5t25.5 -40.5t20 -42q9 -30 -10 -50t-46.5 -16.5t-38.5 31.5q-23 62 -102 141q-24 -51 -66 -159q-13 -30 -39.5 -32.5t-45 18t-9.5 48.5z" />
<glyph unicode="&#xeb;" horiz-adv-x="964" d="M10 1356q0 35 33 45t55 -17q141 11 234 9q202 -9 377 -9q18 0 30.5 -10.5t15 -25t-0.5 -29t-15.5 -25t-31.5 -10.5q-107 0 -377 8q-119 5 -224 -8q-11 -265 -4 -412v-1q2 -23 9 -142q287 23 520 14q29 -2 41 -27t-1 -49t-44 -24q-230 10 -512 -14q2 -38 4.5 -92.5t4 -89 t1.5 -48.5q0 -30 3 -137t1 -172q317 12 666 0q29 -2 40 -27t-1.5 -49t-42.5 -24q-426 17 -709 -2h-2q-27 -3 -41.5 14t-11.5 41q6 47 6 101t-3 128t-3 123q-1 31 -6.5 145.5t-11 216.5t-5.5 107q-3 51 -4 119t0.5 130.5t3.5 115.5t4 89.5t2 37.5zM268 1481q-60 3 -82.5 41 t0.5 75t76 37q38 0 59 -24t21 -60q0 -28 -23.5 -48.5t-50.5 -20.5zM557 1479q-58 2 -74 52q-14 44 12 78q23 30 62 23q43 -7 57.5 -27.5t14.5 -58.5q0 -28 -22.5 -47.5t-49.5 -19.5z" />
<glyph unicode="&#xec;" horiz-adv-x="475" d="M221 1491q-42 26 -97.5 76t-89.5 84.5t-38 40.5q-23 26 -13.5 53.5t35 32t50.5 -18.5l1 -1q125 -131 205 -183q21 -14 24.5 -34.5t-8 -34.5t-29.5 -21t-40 6zM299 981q-1 -100 -13.5 -400t-6.5 -456q1 -14 2 -40.5t2 -39.5q3 -34 -22 -47.5t-51 -1t-26 42.5q-4 58 -4 82 q-6 85 -4 219.5t5.5 217.5t9.5 216t8 215q1 24 1 51v53.5t-0.5 54t-1 52t-1.5 47.5t-1.5 41.5t-1 32t-0.5 21.5l-1 8q-4 32 20 46.5t50 4t28 -40.5l1 -27q1 -27 3 -65.5t3 -90t1.5 -100.5t-0.5 -96z" />
<glyph unicode="&#xed;" horiz-adv-x="321" d="M121 981q-1 -103 -14 -402t-7 -454q1 -13 2 -40t2 -40q3 -34 -21.5 -47.5t-50.5 -1t-26 42.5q-4 58 -4 82q-6 84 -4 219.5t5 217.5t9 216t8 215q1 24 1 51v53.5t-0.5 54t-1 52t-1.5 47.5t-1.5 41.5t-1 32t-1.5 21.5v8q-4 32 20 46.5t50.5 4t28.5 -40.5l1 -27 q1 -27 3 -65.5t3 -90t1.5 -100.5t-0.5 -96zM113 1493q-26 -16 -51.5 -1.5t-27 39.5t24.5 46q67 44 207 184q13 15 30 18.5t30 -3.5t21.5 -19t6.5 -29.5t-16 -33.5q-4 -6 -38 -40.5t-89.5 -84.5t-97.5 -76z" />
<glyph unicode="&#xee;" horiz-adv-x="413" d="M238 981q-1 -103 -14 -402t-7 -454q1 -13 2 -39.5t2 -40.5q3 -34 -21.5 -47.5t-50.5 -1t-26 42.5q-4 58 -4 82q-6 84 -4 219.5t5 217.5t9 216t8 215q1 24 1 51v53.5t-0.5 54t-1 52t-1.5 47.5t-1.5 41.5t-1 32t-0.5 21.5l-1 8q-4 32 20 46.5t50 4t28 -40.5q0 -1 1.5 -27.5 t3 -65t3 -90t2 -100.5t-0.5 -96zM4 1509q1 2 18.5 46t41.5 100.5t40 85.5q13 20 36 23t40 -11l7 -6q7 -6 16.5 -15t23.5 -22.5t28.5 -28t30 -33.5t29 -37.5t25.5 -40.5t20 -42q9 -30 -10 -50t-46 -16.5t-38 31.5q-23 62 -102 141q-24 -51 -66 -159q-13 -30 -39.5 -32.5 t-45 18t-9.5 48.5z" />
<glyph unicode="&#xef;" horiz-adv-x="440" d="M272 981q-1 -100 -13.5 -400t-6.5 -456q1 -14 2 -40.5t2 -39.5q3 -34 -21.5 -47.5t-50.5 -1t-26 42.5q-4 58 -4 82q-6 84 -4 219.5t5 217.5t9 216t8 215q1 24 1 51v53.5t-0.5 54t-1 52t-1.5 47.5t-1.5 41.5t-1 32t-1.5 21.5v8q-4 32 20 46.5t50 4t28 -40.5l1 -27 q1 -27 3 -65.5t3 -90t1.5 -100.5t-0.5 -96zM74 1481q-60 3 -82.5 41t0.5 75t76 37q38 0 58.5 -24t20.5 -60q0 -28 -23 -48.5t-50 -20.5zM362 1479q-58 2 -74 52q-14 44 12 78q23 30 62 23q43 -7 57.5 -27.5t14.5 -58.5q0 -28 -22.5 -47.5t-49.5 -19.5z" />
<glyph unicode="&#xf0;" horiz-adv-x="1216" d="M1106 805q12 -150 -25 -381q-8 -61 -15 -97.5t-26.5 -87.5t-50.5 -89q-99 -126 -291 -175q-109 -28 -219 -28q-26 0 -80 4q-21 2 -58.5 5.5t-59.5 6.5q-30 2 -49 18t-15 46q10 42 2 141q-6 61 -10 182q-9 137 -12 281q-88 7 -134 -6q-4 -2 -14 -2q-24 0 -38.5 20 t-8.5 43.5t31 32.5q61 20 160 12q0 119 2 176q1 13 2 41t2 41q11 216 -11 338q-6 27 17 47t49 8q106 18 198.5 12.5t157 -17.5t116 -33.5t75.5 -35.5t35 -24q89 -56 155 -141q100 -132 115 -338zM983 438q12 73 18.5 127t9.5 131t-5.5 138t-32 128.5t-62.5 120.5 q-54 70 -131 119q-4 2 -8 6q-3 3 -13.5 10t-38.5 21t-61 25q-152 48 -364 24q13 -112 2 -303q0 -13 -1 -40.5t-1 -41.5q-2 -57 -2 -176q13 1 38 2t36 2q108 6 176 -2q28 -4 36.5 -30.5t-6.5 -49.5t-45 -18q-67 7 -155 2q-46 -4 -78 -4q0 -10 12 -275q4 -120 10 -178 q7 -71 5 -119q70 -8 84 -8q153 -9 268 23q158 39 239 139q32 41 46.5 94.5t23.5 132.5z" />
<glyph unicode="&#xf1;" horiz-adv-x="972" d="M678 1368q0 34 25 47t49.5 -1.5t23.5 -47.5q0 -24 -0.5 -79.5t0 -87t1 -77.5t3 -86.5t6.5 -79.5q31 -407 31 -561q0 -45 8.5 -140t8.5 -149q0 -45 -7 -73q-8 -31 -35 -39.5t-48 10t-13 51.5q6 26 -6 242q-6 64 -6 96q0 91 -6 182q-29 45 -103 137t-98 124 q-136 183 -208 274.5t-118 134.5q-4 -56 -9 -138.5t-7.5 -140t-3.5 -63.5q0 -135 -16 -338q-10 -166 -11 -196q-4 -85 -13.5 -164.5t-15.5 -115.5t-8 -42q-6 -33 -32.5 -40t-48.5 12t-15 49q25 123 33 305q8 132 12 200q17 236 17 334q0 12 4 95.5t11.5 192.5t14.5 155 q3 24 25 35.5t47 -1.5q7 -3 22 -13.5t55.5 -47t86.5 -86.5t116 -141.5t144 -202.5q97 -119 108 -133q-12 128 -16 188q-8 122 -8 420zM571 1458q-34 1 -63 12t-54 34.5t-39 40t-36 46.5q-24 29 -36 41.5t-28 22.5t-32 8q-68 -6 -68 -125q-1 -35 -26 -49.5t-49 -0.5t-23 48 q4 89 26 135q42 83 129 92q42 4 80.5 -15.5t57 -39t47.5 -55.5q4 -5 18 -22t21 -25t19 -19.5t24.5 -18t25.5 -9.5q15 -4 35.5 10t32.5 35q18 35 6 102q-6 34 16 53t48 10.5t32 -40.5q19 -113 -16 -175q-23 -40 -64 -68t-84 -28z" />
<glyph unicode="&#xf2;" horiz-adv-x="1064" d="M463 1491q-42 26 -97.5 76t-89.5 84.5t-38 40.5q-14 16 -16 33.5t6.5 29.5t21 19t29.5 3.5t30 -18.5q140 -140 207 -184q21 -14 24.5 -34.5t-8 -34.5t-29.5 -21t-40 6zM127 471q15 -59 28 -100t34 -91.5t45 -84.5t59 -63.5t78 -43.5q85 -29 175.5 -10t141.5 76 q158 177 168 450q2 47 8 133.5t6 134.5q0 72 -12 139t-38.5 130t-75 111.5t-113.5 72.5q-78 28 -179.5 19.5t-170.5 -46.5q-81 -50 -123 -202q-99 -347 -31 -625zM971 872q0 -52 -7.5 -141.5t-7.5 -130.5q-16 -311 -194 -512q-51 -57 -128 -87t-151 -28.5t-143 21.5 q-137 45 -219 194q-43 82 -90 258q-77 307 30 676q12 38 23.5 68.5t31.5 69t49.5 70t65.5 52.5q88 52 215.5 61.5t217.5 -24.5q82 -30 144 -89.5t96 -135.5t50.5 -156.5t16.5 -165.5z" />
<glyph unicode="&#xf3;" horiz-adv-x="1056" d="M510 1493q-26 -16 -51 -1.5t-26.5 39.5t24.5 46q67 44 207 184q13 15 30 18.5t29.5 -3.5t21 -19t6.5 -29.5t-16 -33.5q-4 -6 -38 -40.5t-89.5 -84.5t-97.5 -76zM127 471q15 -59 28 -100t34 -91.5t45 -84.5t59 -63.5t78 -43.5q85 -29 175.5 -10t141.5 76q158 177 168 450 q2 47 8 133.5t6 134.5q0 72 -12 139t-38.5 130t-75 111.5t-113.5 72.5q-78 28 -179.5 19.5t-170.5 -46.5q-81 -50 -123 -202q-99 -347 -31 -625zM971 872q0 -52 -7.5 -141.5t-7.5 -130.5q-16 -311 -194 -512q-51 -57 -128 -87t-151 -28.5t-143 21.5q-137 45 -219 194 q-43 82 -90 258q-77 307 30 676q12 38 23.5 68.5t31.5 69t49.5 70t65.5 52.5q88 52 215.5 61.5t217.5 -24.5q82 -30 144 -89.5t96 -135.5t50.5 -156.5t16.5 -165.5z" />
<glyph unicode="&#xf4;" horiz-adv-x="1067" d="M127 471q15 -59 28 -100t34 -91.5t45 -84.5t59 -63.5t78 -43.5q85 -29 175.5 -10t141.5 76q158 177 168 450q2 47 8 133.5t6 134.5q0 72 -12 139t-38.5 130t-75 111.5t-113.5 72.5q-78 28 -179.5 19.5t-170.5 -46.5q-81 -50 -123 -202q-99 -347 -31 -625zM971 872 q0 -52 -7.5 -141.5t-7.5 -130.5q-16 -311 -194 -512q-51 -57 -128 -87t-151 -28.5t-143 21.5q-137 45 -219 194q-43 82 -90 258q-77 307 30 676q12 38 23.5 68.5t31.5 69t49.5 70t65.5 52.5q88 52 215.5 61.5t217.5 -24.5q82 -30 144 -89.5t96 -135.5t50.5 -156.5 t16.5 -165.5zM324 1509q1 2 18.5 46t41.5 100.5t40 85.5q13 20 36 23t40 -11l7 -6q7 -6 16.5 -15t23.5 -22.5t28.5 -28t30 -33.5t29 -37.5t25.5 -40.5t20 -42q9 -30 -10 -50t-46 -16.5t-38 31.5q-22 60 -103 141q-19 -40 -65 -159q-13 -30 -39.5 -32.5t-45 18t-9.5 48.5z " />
<glyph unicode="&#xf5;" horiz-adv-x="1067" d="M127 471q15 -59 28 -100t34 -91.5t45 -84.5t59 -63.5t78 -43.5q85 -29 175.5 -10t141.5 76q158 177 168 450q2 47 8 133.5t6 134.5q0 72 -12 139t-38.5 130t-75 111.5t-113.5 72.5q-78 28 -179.5 19.5t-170.5 -46.5q-81 -50 -123 -202q-99 -347 -31 -625zM971 872 q0 -52 -7.5 -141.5t-7.5 -130.5q-16 -311 -194 -512q-51 -57 -128 -87t-151 -28.5t-143 21.5q-137 45 -219 194q-43 82 -90 258q-77 307 30 676q12 38 23.5 68.5t31.5 69t49.5 70t65.5 52.5q88 52 215.5 61.5t217.5 -24.5q82 -30 144 -89.5t96 -135.5t50.5 -156.5 t16.5 -165.5zM649 1456q-34 1 -63 12t-54 34.5t-39 40t-36 46.5q-35 42 -54.5 58.5t-42.5 13.5q-67 -6 -67 -125q-1 -35 -26 -49.5t-49 -0.5t-23 48q4 89 26 135q42 83 129 92q42 4 80.5 -15.5t57 -39t47.5 -55.5q5 -6 18 -22.5t20.5 -24.5t19.5 -20t24.5 -18.5t25.5 -9.5 q14 -4 34.5 10.5t33.5 35.5q18 35 6 102q-6 34 16 52.5t48 10t32 -40.5q19 -113 -16 -174q-23 -40 -64 -68t-84 -28z" />
<glyph unicode="&#xf6;" horiz-adv-x="1075" d="M127 471q15 -59 28 -100t34 -91.5t45 -84.5t59 -63.5t78 -43.5q85 -29 175.5 -10t141.5 76q158 177 168 450q2 47 8 133.5t6 134.5q0 72 -12 139t-38.5 130t-75 111.5t-113.5 72.5q-78 28 -179.5 19.5t-170.5 -46.5q-81 -50 -123 -202q-99 -347 -31 -625zM971 872 q0 -52 -7.5 -141.5t-7.5 -130.5q-16 -311 -194 -512q-51 -57 -128 -87t-151 -28.5t-143 21.5q-137 45 -219 194q-43 82 -90 258q-77 307 30 676q12 38 23.5 68.5t31.5 69t49.5 70t65.5 52.5q88 52 215.5 61.5t217.5 -24.5q82 -30 144 -89.5t96 -135.5t50.5 -156.5 t16.5 -165.5zM369 1481q-60 3 -83 41t0 75t76 37q38 0 59 -24t21 -60q0 -28 -23 -48.5t-50 -20.5zM657 1479q-58 2 -74 52q-14 44 12 78q23 30 62 23q43 -7 57.5 -27.5t14.5 -58.5q0 -28 -22.5 -47.5t-49.5 -19.5z" />
<glyph unicode="&#xf7;" horiz-adv-x="813" d="M193 633q-89 0 -146 2q-30 2 -40.5 27t2.5 49t42 22q118 -4 295 0q20 1 62.5 2t64.5 2q23 0 83.5 5.5t78.5 9.5q30 8 48.5 -13t13 -48t-34.5 -34q-27 -8 -95 -14t-92 -6q-26 0 -67.5 -1t-57.5 -1q-55 -2 -157 -2zM317 938q42 -3 58.5 -30.5t0.5 -54t-52 -26.5 q-30 0 -51 17t-21 41q0 20 23 36.5t42 16.5zM309 481q2 47 44 58q36 10 60 -14q17 -18 13 -44q-4 -31 -20 -42t-44 -11q-22 0 -37.5 16.5t-15.5 36.5z" />
<glyph unicode="&#xf8;" horiz-adv-x="1081" d="M918 1167q31 -71 42.5 -159.5t10 -148.5t-9.5 -163q-1 -15 -3.5 -47t-3.5 -47q-3 -106 -41 -240q-41 -145 -151 -270q-50 -56 -125 -86.5t-162 -30.5q-66 0 -137 23q-11 3 -41 16q-1 -2 -6 -23t-6 -30q-3 -22 -15 -35.5t-27 -14t-29 5t-21.5 21.5t-4.5 37q11 59 23 97 q-49 46 -90 121q-43 82 -90 258q-75 307 30 675q55 195 170 260q54 32 114.5 43t146.5 15q69 0 108 -6q18 58 18 59q9 34 37.5 40.5t48.5 -15t11 -56.5q0 -1 -2.5 -7.5t-7.5 -20.5t-9 -29q73 -34 131 -96.5t91 -145.5zM127 475q50 -202 117 -291q4 13 102 338 q117 369 170 611q3 16 55 208q-22 5 -75 5q-150 -8 -215 -46q-79 -44 -125 -202q-96 -354 -29 -623zM862 702q7 96 8.5 150.5t-8 135t-35.5 142.5q-55 130 -159 183q-40 -124 -56 -201q-50 -234 -172 -618q-91 -303 -108 -367q-4 -8 -4 -16q17 -11 43 -21q50 -16 104 -16 q64 0 120.5 22.5t92.5 61.5q102 117 129 229q36 129 39 221q1 16 3 47t3 47z" />
<glyph unicode="&#xf9;" horiz-adv-x="1099" d="M463 1491q-42 26 -97.5 76t-89.5 84.5t-38 40.5q-14 16 -16 33.5t6.5 29.5t21 19t29.5 3.5t30 -18.5q140 -140 207 -184q21 -14 24.5 -34.5t-8 -34.5t-29.5 -21t-40 6zM936 766q0 -307 -84 -506q-32 -76 -97 -136t-145 -90.5t-170.5 -36t-171.5 27.5q-66 25 -113.5 69.5 t-74.5 102.5t-40.5 111t-21.5 118t-10 131.5t0 164.5t2 126q4 300 35 483q6 35 32.5 44.5t49 -8.5t16.5 -50q-29 -158 -34 -469q0 -50 -0.5 -128.5t-0.5 -114t2 -82.5t7 -85q7 -55 17.5 -98.5t31 -90t55 -80.5t82.5 -52q63 -25 134 -20.5t134.5 28.5t115 70t75.5 104 q34 82 52 177t20 213t-1 195t-12 216q-6 129 -24 241q-3 22 5 37.5t22 20.5t29.5 3t27.5 -14.5t14 -31.5q41 -302 41 -590z" />
<glyph unicode="&#xfa;" horiz-adv-x="1120" d="M500 1493q-26 -16 -51.5 -1.5t-27 39.5t24.5 46q67 44 207 184q13 15 30 18.5t30 -3.5t21.5 -19t6.5 -29.5t-16 -33.5q-4 -6 -38 -40.5t-89.5 -84.5t-97.5 -76zM936 766q0 -307 -84 -506q-32 -76 -97 -136t-145 -90.5t-170.5 -36t-171.5 27.5q-66 25 -113.5 69.5 t-74.5 102.5t-40.5 111t-21.5 118t-10 131.5t0 164.5t2 126q4 300 35 483q6 35 32.5 44.5t49 -8.5t16.5 -50q-29 -158 -34 -469q0 -50 -0.5 -128.5t-0.5 -114t2 -82.5t7 -85q7 -55 17.5 -98.5t31 -90t55 -80.5t82.5 -52q63 -25 134 -20.5t134.5 28.5t115 70t75.5 104 q34 82 52 177t20 213t-1 195t-12 216q-6 129 -24 241q-3 22 5 37.5t22 20.5t29.5 3t27.5 -14.5t14 -31.5q41 -302 41 -590z" />
<glyph unicode="&#xfb;" horiz-adv-x="1110" d="M936 766q0 -307 -84 -506q-32 -76 -97 -136t-145 -90.5t-170.5 -36t-171.5 27.5q-66 25 -113.5 69.5t-74.5 102.5t-40.5 111t-21.5 118t-10 131.5t0 164.5t2 126q4 300 35 483q6 35 32.5 44.5t49 -8.5t16.5 -50q-29 -158 -34 -469q0 -50 -0.5 -128.5t-0.5 -114t2 -82.5 t7 -85q7 -55 17.5 -98.5t31 -90t55 -80.5t82.5 -52q63 -25 134 -20.5t134.5 28.5t115 70t75.5 104q34 82 52 177t20 213t-1 195t-12 216q-6 129 -24 241q-3 22 5 37.5t22 20.5t29.5 3t27.5 -14.5t14 -31.5q41 -302 41 -590zM295 1509q1 2 18.5 46t41.5 100.5t40 85.5 q13 20 36 23t40 -11l7 -6q7 -6 16.5 -15t23.5 -22.5t28.5 -28t30 -33.5t29 -37.5t25.5 -40.5t20 -42q9 -30 -10 -50t-46 -16.5t-38 31.5q-23 62 -102 141q-24 -51 -66 -159q-13 -30 -39.5 -32.5t-45 18t-9.5 48.5z" />
<glyph unicode="&#xfc;" horiz-adv-x="1116" d="M936 766q0 -307 -84 -506q-32 -76 -97 -136t-145 -90.5t-170.5 -36t-171.5 27.5q-66 25 -113.5 69.5t-74.5 102.5t-40.5 111t-21.5 118t-10 131.5t0 164.5t2 126q4 300 35 483q6 35 32.5 44.5t49 -8.5t16.5 -50q-29 -158 -34 -469q0 -50 -0.5 -128.5t-0.5 -114t2 -82.5 t7 -85q7 -55 17.5 -98.5t31 -90t55 -80.5t82.5 -52q63 -25 134 -20.5t134.5 28.5t115 70t75.5 104q34 82 52 177t20 213t-1 195t-12 216q-6 129 -24 241q-3 22 5 37.5t22 20.5t29.5 3t27.5 -14.5t14 -31.5q41 -302 41 -590zM348 1481q-60 3 -82.5 41t0.5 75t76 37 q38 0 59 -24t21 -60q0 -28 -23.5 -48.5t-50.5 -20.5zM637 1479q-58 2 -74 52q-14 44 12 78q23 30 62 23q43 -7 57.5 -27.5t14.5 -58.5q0 -28 -22.5 -47.5t-49.5 -19.5z" />
<glyph unicode="&#xfd;" horiz-adv-x="1099" d="M500 1493q-26 -16 -51.5 -1.5t-27 39.5t24.5 46q67 44 207 184q13 15 30 18.5t30 -3.5t21.5 -19t6.5 -29.5t-16 -33.5q-4 -6 -38 -40.5t-89.5 -84.5t-97.5 -76zM872 1436q13 22 34.5 27.5t37 -4.5t23.5 -28.5t-6 -44.5q0 -1 -17 -30t-55.5 -93.5t-73.5 -123.5 q-40 -69 -86 -142.5t-72 -113t-28 -41.5q0 -2 -2 -4q-67 -83 -92 -156q0 -246 -5 -348v-51t0.5 -53.5t1 -53t1 -48t1 -39t0.5 -26.5l1 -10q2 -34 -23 -49.5t-50.5 -2.5t-25.5 48q0 1 -1 21t-2 50.5t-1.5 66.5t-0.5 77t1 74q3 75 3.5 185.5t-1.5 156.5q-25 59 -166.5 280 t-261.5 392q-20 29 -7 54.5t40 26t49 -25.5q43 -60 182.5 -272.5t210.5 -333.5q31 53 68 98q1 1 21 32t42 66.5t55.5 89t61.5 101.5z" />
<glyph unicode="&#xff;" horiz-adv-x="1099" d="M358 1481q-60 3 -82.5 41t0.5 75t76 37q38 0 59 -24t21 -60q0 -28 -23.5 -48.5t-50.5 -20.5zM647 1479q-58 2 -74 52q-14 44 12 78q23 30 62 23q43 -7 57.5 -27.5t14.5 -58.5q0 -28 -22.5 -47.5t-49.5 -19.5zM872 1436q13 22 34.5 27.5t37 -4.5t23.5 -28.5t-6 -44.5 q0 -1 -17 -30t-55.5 -93.5t-73.5 -123.5q-40 -69 -86 -142.5t-72 -113t-28 -41.5q0 -2 -2 -4q-67 -83 -92 -156q0 -246 -5 -348v-51t0.5 -53.5t1 -53t1 -48t1 -39t0.5 -26.5l1 -10q2 -34 -23 -49.5t-50.5 -2.5t-25.5 48q0 1 -1 21t-2 50.5t-1.5 66.5t-0.5 77t1 74 q3 75 3.5 185.5t-1.5 156.5q-25 59 -166.5 280t-261.5 392q-20 29 -7 54.5t40 26t49 -25.5q43 -60 182.5 -272.5t210.5 -333.5q31 53 68 98q1 1 21 32t42 66.5t55.5 89t61.5 101.5z" />
<glyph unicode="&#x152;" horiz-adv-x="1656" d="M1444 106q29 0 40 -26t-1.5 -51t-42.5 -23q-223 8 -381.5 6.5t-242 -5t-85.5 -5.5h-4q-13 0 -25 6q-60 -4 -93 -3.5t-94 4t-99 3.5q-45 3 -73.5 7.5t-68.5 17t-74 40.5t-63 70q-8 12 -15.5 25.5t-13.5 24.5t-12.5 27t-10.5 25.5t-10 27t-8.5 25.5t-8 28t-7 25.5t-7.5 27 t-7 25.5q-40 154 -35.5 337t55.5 349q52 184 174 256q53 31 113 41t143 12q76 5 185 -8q14 20 41 20q22 -3 37 -18q113 9 233 6q202 -6 373 -6q31 0 44 -25.5t0 -50.5t-44 -25q-71 0 -375 9q-89 2 -223 -9q-4 -61 -4 -129.5t2 -153t2 -130.5q0 -64 2 -140q336 21 520 15 q29 -4 41.5 -30t0 -49.5t-45.5 -21.5q-237 10 -516 -14q0 -24 0.5 -93.5t2.5 -119.5t7 -98q10 -173 8 -226q287 11 666 0zM422 111q10 0 126 -4.5t134 2.5q0 112 -10 217q-9 161 -13 553q-10 165 0 415q-90 15 -165 11q-142 -3 -215 -43q-79 -44 -127 -197 q-45 -160 -50.5 -324t31.5 -309q37 -155 86 -229q26 -38 60.5 -58t62 -25t80.5 -9z" />
<glyph unicode="&#x153;" horiz-adv-x="1656" d="M1444 106q29 0 40 -26t-1.5 -51t-42.5 -23q-223 8 -381.5 6.5t-242 -5t-85.5 -5.5h-4q-13 0 -25 6q-60 -4 -93 -3.5t-94 4t-99 3.5q-45 3 -73.5 7.5t-68.5 17t-74 40.5t-63 70q-8 12 -15.5 25.5t-13.5 24.5t-12.5 27t-10.5 25.5t-10 27t-8.5 25.5t-8 28t-7 25.5t-7.5 27 t-7 25.5q-40 154 -35.5 337t55.5 349q52 184 174 256q53 31 113 41t143 12q76 5 185 -8q14 20 41 20q22 -3 37 -18q113 9 233 6q202 -6 373 -6q31 0 44 -25.5t0 -50.5t-44 -25q-71 0 -375 9q-89 2 -223 -9q-4 -61 -4 -129.5t2 -153t2 -130.5q0 -64 2 -140q336 21 520 15 q29 -4 41.5 -30t0 -49.5t-45.5 -21.5q-237 10 -516 -14q0 -24 0.5 -93.5t2.5 -119.5t7 -98q10 -173 8 -226q287 11 666 0zM422 111q10 0 126 -4.5t134 2.5q0 112 -10 217q-9 161 -13 553q-10 165 0 415q-90 15 -165 11q-142 -3 -215 -43q-79 -44 -127 -197 q-45 -160 -50.5 -324t31.5 -309q37 -155 86 -229q26 -38 60.5 -58t62 -25t80.5 -9z" />
<glyph unicode="&#x178;" horiz-adv-x="1099" d="M358 1481q-60 3 -82.5 41t0.5 75t76 37q38 0 59 -24t21 -60q0 -28 -23.5 -48.5t-50.5 -20.5zM647 1479q-58 2 -74 52q-14 44 12 78q23 30 62 23q43 -7 57.5 -27.5t14.5 -58.5q0 -28 -22.5 -47.5t-49.5 -19.5zM872 1436q13 22 34.5 27.5t37 -4.5t23.5 -28.5t-6 -44.5 q0 -1 -17 -30t-55.5 -93.5t-73.5 -123.5q-40 -69 -86 -142.5t-72 -113t-28 -41.5q0 -2 -2 -4q-67 -83 -92 -156q0 -246 -5 -348v-51t0.5 -53.5t1 -53t1 -48t1 -39t0.5 -26.5l1 -10q2 -34 -23 -49.5t-50.5 -2.5t-25.5 48q0 1 -1 21t-2 50.5t-1.5 66.5t-0.5 77t1 74 q3 75 3.5 185.5t-1.5 156.5q-25 59 -166.5 280t-261.5 392q-20 29 -7 54.5t40 26t49 -25.5q43 -60 182.5 -272.5t210.5 -333.5q31 53 68 98q1 1 21 32t42 66.5t55.5 89t61.5 101.5z" />
<glyph unicode="&#x2c6;" horiz-adv-x="522" d="M4 1270q1 2 18.5 45.5t41.5 100t40 85.5q13 20 36 23t40 -11l7 -6q7 -6 16.5 -15t23.5 -22.5t28.5 -28t30 -33.5t29 -37.5t25.5 -40.5t20 -42q9 -30 -10 -50t-46 -16.5t-38 31.5q-23 63 -102 142q-22 -47 -66 -160q-13 -30 -39.5 -32.5t-45 18.5t-9.5 49z" />
<glyph unicode="&#x2dc;" horiz-adv-x="739" d="M442 1167q-34 1 -63 12t-54 34.5t-39 40t-36 46.5q-24 29 -36 41.5t-28 22.5t-32 8q-68 -6 -68 -125q-1 -35 -26 -49.5t-49 -0.5t-23 48q4 89 26 135q43 84 129 93q42 4 80.5 -16t57 -39.5t47.5 -55.5q4 -5 18 -22t21 -25t19 -19.5t24.5 -18t25.5 -9.5q15 -4 35.5 10 t32.5 35q18 35 6 102q-6 34 16 53t48 10.5t32 -40.5q19 -113 -16 -174q-24 -40 -64.5 -68.5t-83.5 -28.5z" />
<glyph unicode="&#x2000;" horiz-adv-x="890" />
<glyph unicode="&#x2001;" horiz-adv-x="1780" />
<glyph unicode="&#x2002;" horiz-adv-x="890" />
<glyph unicode="&#x2003;" horiz-adv-x="1780" />
<glyph unicode="&#x2004;" horiz-adv-x="593" />
<glyph unicode="&#x2005;" horiz-adv-x="445" />
<glyph unicode="&#x2006;" horiz-adv-x="296" />
<glyph unicode="&#x2007;" horiz-adv-x="296" />
<glyph unicode="&#x2008;" horiz-adv-x="222" />
<glyph unicode="&#x2009;" horiz-adv-x="356" />
<glyph unicode="&#x200a;" horiz-adv-x="98" />
<glyph unicode="&#x2010;" horiz-adv-x="669" d="M565 637q-213 11 -511 0h-3q-33 -2 -47 22.5t-1.5 50t44.5 25.5h3q48 1 104 2t186.5 1t228.5 -3q19 -1 31 -11.5t14 -25t-1.5 -28.5t-16.5 -24t-31 -9z" />
<glyph unicode="&#x2011;" horiz-adv-x="669" d="M565 637q-213 11 -511 0h-3q-33 -2 -47 22.5t-1.5 50t44.5 25.5h3q48 1 104 2t186.5 1t228.5 -3q19 -1 31 -11.5t14 -25t-1.5 -28.5t-16.5 -24t-31 -9z" />
<glyph unicode="&#x2012;" horiz-adv-x="669" d="M565 637q-213 11 -511 0h-3q-33 -2 -47 22.5t-1.5 50t44.5 25.5h3q48 1 104 2t186.5 1t228.5 -3q19 -1 31 -11.5t14 -25t-1.5 -28.5t-16.5 -24t-31 -9z" />
<glyph unicode="&#x2013;" horiz-adv-x="763" d="M565 637q-213 11 -511 0h-3q-33 -2 -47 22.5t-1.5 50t44.5 25.5h3q48 1 104 2t186.5 1t228.5 -3q19 -1 31 -11.5t14 -25t-1.5 -28.5t-16.5 -24t-31 -9z" />
<glyph unicode="&#x2014;" horiz-adv-x="1110" d="M49 625q-29 2 -41.5 24.5t-2.5 46t38 27.5q1 0 23 2.5t54.5 6t76 7t86.5 5t86 -0.5q79 -3 212.5 -2.5t202.5 -1.5q85 0 113 4q30 7 47.5 -14.5t11.5 -48t-34 -33.5q-25 -6 -140 -6q-64 2 -211 1.5t-206 2.5q-28 1 -57 0.5t-59.5 -2.5t-58 -4t-52.5 -4.5t-43 -4.5t-29 -4 l-11 -1h-6z" />
<glyph unicode="&#x2018;" horiz-adv-x="434" d="M268 1241q10 -18 10 -35t-11.5 -27.5t-25 -15.5t-30 2t-27.5 25q-23 38 -86 113q-57 67 -102 143q-13 30 0 52.5t42.5 22.5t45.5 -30q22 -43 92 -125q66 -84 92 -125z" />
<glyph unicode="&#x2019;" horiz-adv-x="428" d="M8 1241q26 41 92 125q73 85 93 125q16 30 45.5 30t42.5 -22.5t0 -52.5q-43 -73 -103 -143q-63 -75 -86 -113q-11 -18 -27.5 -25t-30 -2t-25 15.5t-11.5 27.5t10 35z" />
<glyph unicode="&#x201a;" horiz-adv-x="460" d="M8 4q26 41 92 125q73 85 93 125q16 30 45.5 30t42.5 -22.5t0 -52.5q-43 -73 -103 -143q-63 -75 -86 -113q-11 -18 -27.5 -25t-30 -2t-25 15.5t-11.5 27.5t10 35z" />
<glyph unicode="&#x201c;" horiz-adv-x="649" d="M268 1241q10 -18 10 -35t-11.5 -27.5t-25 -15.5t-30 2t-27.5 25q-23 38 -86 113q-57 67 -102 143q-13 30 0 52.5t42.5 22.5t45.5 -30q22 -43 92 -125q66 -84 92 -125zM469 1241q10 -18 10 -35t-11.5 -27.5t-25 -15.5t-30 2t-27.5 25q-23 38 -86 113q-57 67 -102 143 q-13 30 0 52.5t42.5 22.5t45.5 -30q22 -43 92 -125q66 -84 92 -125z" />
<glyph unicode="&#x201d;" horiz-adv-x="628" d="M8 1241q26 41 92 125q73 85 93 125q16 30 45.5 30t42.5 -22.5t0 -52.5q-43 -73 -103 -143q-63 -75 -86 -113q-11 -18 -27.5 -25t-30 -2t-25 15.5t-11.5 27.5t10 35zM209 1241q26 41 92 125q70 82 92 125q16 30 45.5 30t42.5 -22.5t0 -52.5q-45 -76 -102 -143 q-63 -75 -86 -113q-11 -18 -27.5 -25t-30 -2t-25 15.5t-11.5 27.5t10 35z" />
<glyph unicode="&#x201e;" horiz-adv-x="700" d="M8 4q26 41 92 125q73 85 93 125q16 30 45.5 30t42.5 -22.5t0 -52.5q-43 -73 -103 -143q-63 -75 -86 -113q-11 -18 -27.5 -25t-30 -2t-25 15.5t-11.5 27.5t10 35zM209 4q26 41 92 125q70 82 92 125q16 30 45.5 30t42.5 -22.5t0 -52.5q-45 -76 -102 -143q-63 -75 -86 -113 q-11 -18 -27.5 -25t-30 -2t-25 15.5t-11.5 27.5t10 35z" />
<glyph unicode="&#x2022;" horiz-adv-x="444" d="M104 967q64 16 126 -6.5t94 -83.5q14 -33 11.5 -73t-18.5 -75t-44 -62.5t-64.5 -35t-79.5 5.5q-44 15 -75.5 49.5t-43 76t-8 82.5t30.5 74.5t71 47.5z" />
<glyph unicode="&#x2026;" horiz-adv-x="1202" d="M92 -4q-60 2 -82.5 38.5t0.5 72.5t76 36q41 0 61.5 -26.5t20.5 -61.5q0 -28 -22.5 -43.5t-53.5 -15.5zM444 -4q-31 0 -53 15.5t-22 43.5q0 35 20.5 61.5t61.5 26.5q53 0 76 -36t0 -72.5t-83 -38.5zM840 -4q-60 2 -82.5 38.5t0.5 72.5t76 36q41 0 61 -26.5t20 -61.5 q0 -28 -22 -43.5t-53 -15.5z" />
<glyph unicode="&#x202f;" horiz-adv-x="356" />
<glyph unicode="&#x2039;" horiz-adv-x="630" d="M401 469q-97 28 -192.5 67.5t-137 60.5t-51.5 28q-55 30 15 100q57 57 141 122t154 89q30 9 49 -9.5t14.5 -45.5t-31.5 -39q-83 -29 -231 -162q143 -67 299 -115q28 -8 31.5 -35.5t-15.5 -48t-45 -12.5z" />
<glyph unicode="&#x203a;" horiz-adv-x="630" d="M74 524q134 63 272 168q-58 25 -135.5 53t-125.5 43t-50 15q-30 9 -34.5 36t14 47t46.5 13l19 -6q19 -6 43.5 -14t59 -19t71.5 -25t74 -28.5t72.5 -31t62.5 -32.5q24 -10 25.5 -37t-17.5 -42q-10 -10 -50 -41.5t-128.5 -89.5t-175.5 -99q-31 -7 -52 10t-19 41.5t28 38.5z " />
<glyph unicode="&#x205f;" horiz-adv-x="445" />
<glyph unicode="&#x20ac;" horiz-adv-x="1247" d="M1030 340q9 28 35.5 33.5t47 -12.5t13.5 -48q-21 -71 -55 -131.5t-82.5 -109t-115.5 -76t-144 -27.5h-6q-94 0 -181 41t-149 113q-115 133 -155 323q-8 32 -15 70q-6 0 -64.5 2t-97.5 4q-30 2 -41 27t3 49.5t45 24.5q100 -7 145 -7q-5 63 -2 138q-22 0 -46 -0.5t-42.5 -1 t-34 -1t-24.5 -1.5h-9q-28 0 -42.5 24t-4 49t42.5 27h11q11 1 27.5 1.5t37.5 1t46.5 0.5t49.5 -1q3 18 6 33q28 134 93 235l6 10q32 52 56 84.5t66 71t89 57.5q133 54 279.5 19.5t240.5 -143.5q18 -21 7 -47.5t-35 -32.5t-48 16q-72 85 -188 112t-220 -16q-34 -14 -66 -44.5 t-49.5 -56t-47.5 -73.5l-6 -10q-55 -82 -80 -203q0 -2 -1 -7t-1 -7q18 -2 40.5 -2.5t43 -0.5t41 0.5t38 1t31 1.5t21.5 2h8q29 2 43 -22t4.5 -49t-39.5 -27q-1 0 -24.5 -1.5t-61 -3t-72.5 -1.5q-68 0 -86 4q-4 -45 0 -136q21 0 138 5.5t155 -0.5q30 0 41 -25.5t-3.5 -50.5 t-45.5 -23q-60 3 -86.5 3t-90.5 -3t-95 -4q2 -8 5 -25.5t5 -25.5q38 -170 135 -281q47 -55 114.5 -85.5t141.5 -32.5q115 -3 191 72t114 200z" />
<glyph unicode="&#x2122;" horiz-adv-x="1028" d="M375 1423q26 -6 35 -30t-4 -46t-41 -22h-9q-29 6 -102 10q15 -195 2 -276q-7 -27 -32.5 -36t-47.5 6t-18 46q8 52 -2 260l-105 -4q-17 -1 -30.5 8.5t-17.5 24t-2.5 29.5t13.5 26.5t31 12.5h19q19 1 44 2t61 1t70.5 -1t71 -3.5t64.5 -7.5zM721 1044q5 -29 31.5 -35.5 t49 10.5t15.5 46q-3 16 -3 34t1.5 47.5t1.5 51.5q-6 113 -14 166q-3 28 -31.5 40t-50.5 -11q-22 -18 -82 -82q-27 34 -53 63q-18 19 -27 27.5t-26.5 17t-34.5 4.5q-10 -2 -18 -8t-13 -13.5t-8 -19.5t-4.5 -20.5t-1.5 -23.5v-22.5t1 -22t1 -17.5q2 -10 2 -31q3 -81 0 -174 q0 -29 24 -41.5t49 -1.5t27 41q0 117 -2 180v6q2 -2 6 -7t6 -7q4 -5 15 -18.5t16 -18.5q13 -17 36 -17t38 15q18 20 43 45q0 -7 1 -25t1 -28q2 -20 -0.5 -74t4.5 -76z" />
<glyph unicode="&#x25fc;" horiz-adv-x="1382" d="M0 1382h1382v-1382h-1382v1382z" />
</font>
</defs>
</svg>
